<svg xmlns="http://www.w3.org/2000/svg" width="52.01" height="110" fill="#fd6a4f"><path d="M51.66 102.08c.42-1.2 1.8-8.14-6.55-10.62-1.53 8.56 5.28 10.45 6.55 10.62zm-10.86 7.57c1.2.42 8.14 1.8 10.63-6.54-8.57-1.53-10.46 5.27-10.63 6.54zm.8-9.8c.7-1.08 3.6-7.5-3.93-11.84-3.46 8 2.72 11.4 3.93 11.84zm-12.33 4.88c1.08.7 7.5 3.6 11.84-3.93-8-3.46-11.38 2.73-11.84 3.93zm3-9.66c.9-.9 5.2-6.5-1.18-12.42-5.15 7 .12 11.7 1.18 12.42zm-13.08 2c.9.9 6.5 5.2 12.42-1.18-7-5.15-11.7.1-12.42 1.18zm4.9-9.03c1.1-.68 6.52-5.2 1.6-12.37-6.58 5.68-2.5 11.43-1.6 12.37zm-13.2-.97c.68 1.1 5.2 6.52 12.37 1.6-5.7-6.58-11.44-2.5-12.37-1.6zM17.4 79c1.22-.4 7.52-3.6 4.35-11.7-7.7 4.07-5 10.6-4.35 11.7zM4.74 75.1c.4 1.22 3.6 7.52 11.7 4.35-4.07-7.7-10.6-5-11.7-4.35zm7.7-6.83c1.28-.12 8.14-1.76 6.93-10.38-8.42 2.18-7.3 9.15-6.93 10.38zm-11.4-6.72c.12 1.28 1.76 8.14 10.38 6.93-2.2-8.43-9.15-7.3-10.38-6.93zm8.54-5.18c1.27.18 8.33.2 9.17-8.46-8.7.14-9.25 7.18-9.17 8.46zm-9.52-9.2c-.18 1.27-.2 8.33 8.46 9.17-.14-8.7-7.17-9.25-8.46-9.17zm9.46-1.24c1.2.47 8.05 2.14 10.9-6.08-8.5-1.9-10.68 4.8-10.9 6.08zm-7.1-11.2c-.47 1.2-2.14 8.05 6.08 10.9 1.9-8.5-4.82-10.67-6.08-10.9zm9.8 1.22c1.05.73 7.35 3.93 12-3.43-7.84-3.8-11.5 2.25-12 3.43zm-4.35-12.5c-.73 1.05-3.93 7.35 3.43 12 3.8-7.84-2.25-11.5-3.43-12zm9.58 3.4c.86.95 6.3 5.47 12.46-.66-6.8-5.45-11.7-.38-12.46.66zM16 13.66c-.95.86-5.47 6.3.66 12.46 5.44-6.8.37-11.7-.66-12.46zm8.87 5.24c.63 1.12 4.9 6.73 12.3 2.13-5.42-6.82-11.33-2.97-12.3-2.13zM26.4 5.73c-1.12.63-6.73 4.9-2.13 12.3 6.82-5.4 2.97-11.33 2.13-12.3zm7.83 6.75c.36 1.23 3.26 7.67 11.5 4.85-3.73-7.87-10.36-5.45-11.5-4.85zM38.68 0C37.45.36 31 3.26 33.83 11.5 41.7 7.77 39.28 1.14 38.68 0z"/></svg>