<?xml version="1.0" standalone="no"?>
<!DOCTYPE svg PUBLIC "-//W3C//DTD SVG 1.1//EN" "http://www.w3.org/Graphics/SVG/1.1/DTD/svg11.dtd" >
<svg xmlns="http://www.w3.org/2000/svg" version="1.1">
    <metadata>
        Created by FontForge 20190801 at Sat May 23 11:42:04 2015
        By www-data
        Copyright (c) Olivier Gourvat - Mostardesign Studio, 2012. All rights reserved.
    </metadata>
    <defs>
        <font id="SofiaProLightAz" horiz-adv-x="558">
            <font-face
                font-family="SofiaProLightAz"
                font-weight="300"
                font-stretch="normal"
                units-per-em="1000"
                panose-1="2 11 0 0 0 0 0 0 0 0"
                ascent="750"
                descent="-250"
                x-height="467"
                cap-height="689"
                bbox="-170 -258 1118 1085"
                underline-thickness="50"
                underline-position="-100"
                unicode-range="U+0020-FB04"
            />
            <missing-glyph horiz-adv-x="635"
                           d="M80 0v665h475v-665h-475zM185 431h62q0 37 21 60t53 23t56 -20.5t24 -52.5q0 -30 -24 -50q-15 -17 -33 -21q-45 -13 -69 -38t-24 -72v-38h62v38q0 22 12.5 32.5t37.5 17.5q44 13 71.5 47.5t27.5 83.5q0 60 -41.5 97.5t-99.5 37.5q-57 0 -96.5 -40t-39.5 -105zM237 131
q0 -18 13.5 -30.5t32.5 -12.5q18 0 31.5 12.5t13.5 30.5t-13.5 30.5t-31.5 12.5q-19 0 -32.5 -12.5t-13.5 -30.5z"/>
            <glyph glyph-name="f_f" unicode="ff" horiz-adv-x="677"
                   d="M681 720v-63h-50q-32 0 -52.5 -11.5t-29.5 -34t-11.5 -42t-2.5 -48.5v-54h115v-60h-115v-407h-67v407h-281v-407h-67v407h-91v60h91v54q0 199 163 199h50v-63h-50q-32 0 -52.5 -11.5t-29.5 -34t-11.5 -42t-2.5 -48.5v-54h281v54q0 199 163 199h50z"/>
            <glyph glyph-name="fi" unicode="fi" horiz-adv-x="597"
                   d="M452 407h-265v-407h-67v407h-91v60h91v54q0 199 163 199h50v-63h-50q-32 0 -52.5 -11.5t-29.5 -34t-11.5 -42t-2.5 -48.5v-54h331v-467h-66v407zM435 641q0 21 15 34.5t36 13.5t36 -13.5t15 -34.5t-15 -34.5t-36 -13.5t-36 13.5t-15 34.5z"/>
            <glyph glyph-name="fl" unicode="fl" horiz-adv-x="584"
                   d="M283 720h220v-720h-66v657h-154q-32 0 -52.5 -11.5t-29.5 -34t-11.5 -42t-2.5 -48.5v-54h115v-60h-115v-407h-67v407h-91v60h91v54q0 199 163 199z"/>
            <glyph glyph-name="f_f_i" unicode="ffi" horiz-adv-x="945"
                   d="M800 407h-265v-407h-67v407h-281v-407h-67v407h-91v60h91v54q0 199 163 199h50v-63h-50q-32 0 -52.5 -11.5t-29.5 -34t-11.5 -42t-2.5 -48.5v-54h281v54q0 199 163 199h50v-63h-50q-32 0 -52.5 -11.5t-29.5 -34t-11.5 -42t-2.5 -48.5v-54h331v-467h-66v407zM783 641
q0 21 15 34.5t36 13.5t36 -13.5t15 -34.5t-15 -34.5t-36 -13.5t-36 13.5t-15 34.5z"/>
            <glyph glyph-name="f_f_l" unicode="ffl" horiz-adv-x="932"
                   d="M785 0v657h-154q-32 0 -52.5 -11.5t-29.5 -34t-11.5 -42t-2.5 -48.5v-54h115v-60h-115v-407h-67v407h-281v-407h-67v407h-91v60h91v54q0 199 163 199h50v-63h-50q-32 0 -52.5 -11.5t-29.5 -34t-11.5 -42t-2.5 -48.5v-54h281v54q0 199 163 199h220v-720h-66z"/>
            <glyph glyph-name="f_f_j" unicode="ffj" horiz-adv-x="946"
                   d="M654 -226v63h50q26 0 44.5 8.5t28 21t15 32t7 36t1.5 38.5v434h-265v-407h-67v407h-281v-407h-67v407h-91v60h91v54q0 199 163 199h50v-63h-50q-32 0 -52.5 -11.5t-29.5 -34t-11.5 -42t-2.5 -48.5v-54h281v54q0 199 163 199h50v-63h-50q-32 0 -52.5 -11.5t-29.5 -34
t-11.5 -42t-2.5 -48.5v-54h332v-494q0 -199 -163 -199h-50zM783 641q0 21 15 34.5t36 13.5t36 -13.5t15 -34.5t-15 -34.5t-36 -13.5t-36 13.5t-15 34.5z"/>
            <glyph glyph-name="f_j" unicode="fj" horiz-adv-x="598"
                   d="M306 -226v63h50q26 0 44.5 8.5t28 21t15 32t7 36t1.5 38.5v434h-265v-407h-67v407h-91v60h91v54q0 199 163 199h50v-63h-50q-32 0 -52.5 -11.5t-29.5 -34t-11.5 -42t-2.5 -48.5v-54h332v-494q0 -199 -163 -199h-50zM435 641q0 21 15 34.5t36 13.5t36 -13.5t15 -34.5
t-15 -34.5t-36 -13.5t-36 13.5t-15 34.5z"/>
            <glyph glyph-name=".notdef" horiz-adv-x="635"
                   d="M80 0v665h475v-665h-475zM185 431h62q0 37 21 60t53 23t56 -20.5t24 -52.5q0 -30 -24 -50q-15 -17 -33 -21q-45 -13 -69 -38t-24 -72v-38h62v38q0 22 12.5 32.5t37.5 17.5q44 13 71.5 47.5t27.5 83.5q0 60 -41.5 97.5t-99.5 37.5q-57 0 -96.5 -40t-39.5 -105zM237 131
q0 -18 13.5 -30.5t32.5 -12.5q18 0 31.5 12.5t13.5 30.5t-13.5 30.5t-31.5 12.5q-19 0 -32.5 -12.5t-13.5 -30.5z"/>
            <glyph glyph-name=".null" horiz-adv-x="0"
            />
            <glyph glyph-name="nonmarkingreturn" horiz-adv-x="333"
            />
            <glyph glyph-name="space" unicode=" " horiz-adv-x="266"
            />
            <glyph glyph-name="space" unicode="&#xa0;" horiz-adv-x="266"
            />
            <glyph glyph-name="exclam" unicode="!" horiz-adv-x="260"
                   d="M75 42q0 23 15.5 37.5t39.5 14.5t39.5 -14.5t15.5 -37.5t-15.5 -37.5t-39.5 -14.5t-39.5 14.5t-15.5 37.5zM163 689l-6 -504h-54l-6 504h66z"/>
            <glyph glyph-name="quotedbl" unicode="&#x22;" horiz-adv-x="326"
                   d="M79 689h53v-271h-53v271zM194 689h53v-271h-53v271z"/>
            <glyph glyph-name="numbersign" unicode="#" horiz-adv-x="656"
                   d="M507 513h112l-17 -62h-112l-59 -214h112l-17 -62h-112l-48 -175h-62l48 175h-144l-48 -175h-61l48 175h-110l17 62h110l58 214h-109l16 62h110l49 176h62l-49 -176h144l49 176h62zM284 451l-59 -214h144l59 214h-144z"/>
            <glyph glyph-name="dollar" unicode="$" horiz-adv-x="554"
                   d="M305 -8v-114h-50v113q-90 6 -147.5 68.5t-57.5 138.5h66q0 -55 44 -98.5t113 -43.5q72 0 116 34t53 79q9 59 -28.5 94.5t-102.5 51.5l-93 21q-162 36 -162 173q0 77 58.5 129t140.5 58v95h50v-96q80 -10 131.5 -62.5t51.5 -132.5h-66q0 59 -42.5 95t-107.5 36
q-60 0 -105 -35t-45 -87q0 -84 110 -109l94 -21q92 -20 143 -75t38 -147q-13 -62 -65 -109.5t-137 -55.5z"/>
            <glyph glyph-name="percent" unicode="%" horiz-adv-x="654"
                   d="M514 673l-329 -673h-47l329 673h47zM39 539q0 57 38 95.5t95 38.5q56 0 95 -39t39 -95q0 -57 -38.5 -95t-95.5 -38t-95 38t-38 95zM96 539q0 -32 22 -54t54 -22t54.5 22t22.5 54t-22.5 54.5t-54.5 22.5t-54 -22.5t-22 -54.5zM349 123q0 57 38 95.5t95 38.5q56 0 95 -39
t39 -95q0 -57 -38.5 -95t-95.5 -38t-95 38t-38 95zM406 123q0 -32 22 -54t54 -22t54.5 22t22.5 54t-22.5 54.5t-54.5 22.5t-54 -22.5t-22 -54.5z"/>
            <glyph glyph-name="ampersand" unicode="&#x26;" horiz-adv-x="664"
                   d="M284 425h156v88h65v-89h92v-59h-92v-155q0 -75 22.5 -116t87.5 -41v-63q-57 0 -97.5 25t-54.5 68q-24 -42 -74 -67.5t-108 -25.5q-98 0 -161 63.5t-63 156.5q0 60 31 110.5t85 79.5q-60 50 -60 129q0 70 50.5 119t125.5 49q51 0 92 -23.5t65 -62.5l-56 -35
q-32 55 -101 55q-48 0 -79 -29t-31 -73q0 -45 29 -74.5t76 -29.5zM440 365h-158q-67 0 -113 -46t-46 -109q0 -65 44 -109.5t114 -44.5q68 0 112.5 42t46.5 105v162z"/>
            <glyph glyph-name="quotesingle" unicode="'" horiz-adv-x="211"
                   d="M79 689h53v-271h-53v271z"/>
            <glyph glyph-name="parenleft" unicode="(" horiz-adv-x="361"
                   d="M320 -167v-66q-121 0 -193.5 124t-72.5 341q0 220 72 342.5t194 122.5v-66q-91 0 -145.5 -105.5t-54.5 -293.5q0 -187 54.5 -293t145.5 -106z"/>
            <glyph glyph-name="parenright" unicode=")" horiz-adv-x="361"
                   d="M41 -233v66q91 0 145.5 106t54.5 293q0 188 -54.5 293.5t-145.5 105.5v66q122 0 194 -122.5t72 -342.5q0 -217 -72.5 -341t-193.5 -124z"/>
            <glyph glyph-name="asterisk" unicode="*" horiz-adv-x="487"
                   d="M162 341l-56 42l92 113l-141 40q4 14 11.5 35.5t10.5 31.5l136 -52q-2 23 -4.5 73.5t-3.5 72.5h73l-9 -146l138 52l21 -67l-141 -38q14 -18 46.5 -58.5t45.5 -57.5q-26 -19 -56 -40l-79 121q-10 -14 -40 -57t-44 -65z"/>
            <glyph glyph-name="plus" unicode="+" horiz-adv-x="522"
                   d="M229 295v172h63v-172h173v-63h-173v-173h-63v173h-172v63h172z"/>
            <glyph glyph-name="comma" unicode="," horiz-adv-x="244"
                   d="M69 -132l-46 14q67 95 63 211h77q-6 -80 -33 -138.5t-61 -86.5z"/>
            <glyph glyph-name="hyphen" unicode="-" horiz-adv-x="485"
                   d="M72 265h341v-63h-341v63z"/>
            <glyph glyph-name="period" unicode="." horiz-adv-x="254"
                   d="M72 42q0 23 15.5 37.5t39.5 14.5t39.5 -14.5t15.5 -37.5t-15.5 -37.5t-39.5 -14.5t-39.5 14.5t-15.5 37.5z"/>
            <glyph glyph-name="slash" unicode="/" horiz-adv-x="473"
                   d="M442 689l-337 -689h-73l337 689h73z"/>
            <glyph glyph-name="zero" unicode="0" horiz-adv-x="610"
                   d="M68 331q0 75 11 133.5t36.5 107.5t73.5 75t116 26t115.5 -26t73 -75t36.5 -107.5t11 -133.5t-11 -133t-36.5 -107t-73 -75t-115.5 -26t-116 26t-73.5 75t-36.5 107t-11 133zM134 331q0 -128 38 -201.5t133 -73.5q49 0 83.5 21t53 60t26 86t7.5 108t-7.5 108t-26 86.5
t-53 60.5t-83.5 21q-95 0 -133 -73.5t-38 -202.5z"/>
            <glyph glyph-name="one" unicode="1" horiz-adv-x="322"
                   d="M155 0v579l-113 -39v60l179 65v-665h-66z"/>
            <glyph glyph-name="two" unicode="2" horiz-adv-x="525"
                   d="M61 23l278 337q54 64 54 123q0 56 -39.5 90t-98.5 34q-55 0 -94 -28.5t-46 -78.5l-61 16q12 72 67.5 114.5t133.5 42.5q86 0 145 -53.5t59 -136.5q0 -90 -72 -170l-209 -247h282v-66h-399v23z"/>
            <glyph glyph-name="three" unicode="3" horiz-adv-x="535"
                   d="M134 547l-53 33q27 46 77.5 72t109.5 22q90 -6 138 -60.5t40 -128.5q-3 -40 -28.5 -75t-65.5 -52q56 -14 90.5 -69t30.5 -115q-8 -82 -77.5 -135.5t-160.5 -47.5q-65 5 -114.5 38t-73.5 85l60 27q15 -34 51 -57t82 -27h-1q64 -4 113.5 33t53.5 94q2 56 -42.5 98
t-106.5 42h-64v63h64q50 0 85 31t37 77q2 47 -27.5 77.5t-87.5 34.5q-42 2 -77.5 -14.5t-52.5 -45.5z"/>
            <glyph glyph-name="four" unicode="4" horiz-adv-x="586"
                   d="M443 142v-142h-66v142h-348l365 523h49v-462h100v-61h-100zM150 203h227v330z"/>
            <glyph glyph-name="five" unicode="5" horiz-adv-x="561"
                   d="M48 130l57 41q18 -48 66 -80t100 -32q78 0 122.5 42.5t44.5 107.5q0 66 -46 104t-104 38q-49 0 -86 -10.5t-97 -41.5l-26 35l58 331h326v-67h-269l-40 -220q82 41 134 41q92 0 155.5 -56.5t63.5 -153.5q0 -100 -64.5 -159.5t-171.5 -59.5q-69 0 -131 39t-92 101z"/>
            <glyph glyph-name="six" unicode="6" horiz-adv-x="556"
                   d="M481 561l-58 -25q-33 66 -118 71q-62 2 -101.5 -37.5t-53.5 -98.5t-11 -134q17 42 63 63t95 19q89 -4 147 -69.5t54 -153.5q-4 -90 -66.5 -150t-151.5 -56q-88 4 -143.5 63.5t-63.5 160.5q-8 156 11 260q14 91 75 146t149 53q128 -5 173 -112zM140 211q0 -65 41 -108.5
t102 -45.5q62 -2 103.5 38.5t45.5 103.5q2 63 -36.5 107t-100.5 46t-107.5 -38.5t-47.5 -102.5z"/>
            <glyph glyph-name="seven" unicode="7" horiz-adv-x="518"
                   d="M500 665l-366 -665h-78l331 599h-328v66h441z"/>
            <glyph glyph-name="eight" unicode="8" horiz-adv-x="565"
                   d="M112 510q0 68 49 115.5t121 47.5q73 0 123 -47.5t50 -115.5q0 -76 -61 -124q52 -28 82.5 -77t30.5 -107q0 -89 -65 -150.5t-160 -61.5t-159.5 61.5t-64.5 150.5q0 58 30 107t82 77q-58 47 -58 124zM124 202q0 -61 45 -103.5t113 -42.5t113.5 42.5t45.5 103.5t-46 105
t-113 44h-7q-64 -2 -107.5 -46t-43.5 -103zM178 510q0 -40 28 -68.5t71 -30.5h9q44 2 73.5 30.5t29.5 68.5q0 41 -30.5 69t-76.5 28q-45 0 -74.5 -28t-29.5 -69z"/>
            <glyph glyph-name="nine" unicode="9"
                   d="M71 101l58 25q33 -65 124 -71q47 -2 81 20t52.5 61.5t26 86.5t6.5 102q-16 -41 -63 -62.5t-95 -19.5q-89 4 -147 69.5t-54 153.5q4 90 66.5 150t151.5 56q87 -4 143 -63.5t64 -160.5q7 -146 -11 -260q-15 -90 -76 -146.5t-148 -52.5q-134 6 -179 112zM418 451
q0 65 -41 108.5t-102 45.5t-104 -39t-45 -103q-2 -63 36.5 -107t100.5 -46t107.5 38.5t47.5 102.5z"/>
            <glyph glyph-name="colon" unicode=":" horiz-adv-x="254"
                   d="M72 42q0 23 15.5 37.5t39.5 14.5t39.5 -14.5t15.5 -37.5t-15.5 -37.5t-39.5 -14.5t-39.5 14.5t-15.5 37.5zM72 425q0 23 15.5 37.5t39.5 14.5t39.5 -14.5t15.5 -37.5t-15.5 -37.5t-39.5 -14.5t-39.5 14.5t-15.5 37.5z"/>
            <glyph glyph-name="semicolon" unicode=";" horiz-adv-x="277"
                   d="M89 -132l-46 14q67 95 63 211h77q-6 -80 -33 -138.5t-61 -86.5zM90 425q0 23 15.5 37.5t39.5 14.5t39.5 -14.5t15.5 -37.5t-15.5 -37.5t-39.5 -14.5t-39.5 14.5t-15.5 37.5z"/>
            <glyph glyph-name="less" unicode="&#x3c;" horiz-adv-x="629"
                   d="M558 40l-509 195v72l509 195v-72l-432 -159l432 -160v-71z"/>
            <glyph glyph-name="equal" unicode="=" horiz-adv-x="613"
                   d="M77 385h459v-63h-459v63zM77 180h459v-63h-459v63z"/>
            <glyph glyph-name="greater" unicode="&#x3e;" horiz-adv-x="629"
                   d="M580 235l-509 -195v71l432 160l-432 159v72l509 -195v-72z"/>
            <glyph glyph-name="question" unicode="?" horiz-adv-x="487"
                   d="M113 503h-66q0 86 56.5 139.5t138.5 53.5q83 0 143 -53.5t60 -139.5q0 -69 -40.5 -118.5t-102.5 -68.5q-45 -14 -65.5 -32t-20.5 -60v-39h-66v39q0 65 34 100t98 55q41 13 69 46t28 78q0 56 -41 91.5t-96 35.5q-53 0 -91 -35.5t-38 -91.5zM128 42q0 23 15.5 37.5
t39.5 14.5t39.5 -14.5t15.5 -37.5t-15.5 -37.5t-39.5 -14.5t-39.5 14.5t-15.5 37.5z"/>
            <glyph glyph-name="at" unicode="@" horiz-adv-x="987"
                   d="M617 257v1q0 58 -40.5 98t-97.5 40t-97.5 -40t-40.5 -98q0 -57 40.5 -97.5t97.5 -40.5q54 0 96 42v-71q-45 -32 -96 -32q-83 0 -141 58.5t-58 140.5t58 140.5t141 58.5q81 0 138 -55q56 -55 61 -135v-149q0 -74 80 -74q37 0 63.5 22.5t39 59.5t18 72.5t5.5 71.5
q0 156 -116.5 261t-278.5 105q-158 0 -267 -112t-109 -272q0 -159 108.5 -269.5t267.5 -110.5h18v-61h-18q-184 0 -310.5 128.5t-126.5 312.5q0 121 57.5 223t158 162t221.5 60q122 0 226.5 -54.5t167.5 -153.5t63 -219q0 -47 -10 -94.5t-30.5 -91.5t-59 -71.5t-88.5 -27.5
q-61 0 -101 32.5t-40 107.5v132z"/>
            <glyph glyph-name="A" unicode="A" horiz-adv-x="638"
                   d="M90 0h-71l265 689h70l265 -689h-71l-70 181h-319zM455 243l-136 354l-136 -354h272z"/>
            <glyph glyph-name="B" unicode="B" horiz-adv-x="621"
                   d="M530 518q0 -119 -84 -151q51 -10 86 -62.5t35 -111.5q0 -81 -52 -137t-141 -56h-274v689h251q84 0 131.5 -46t47.5 -125zM167 396h192q51 0 78 35t27 87q0 51 -32.5 78.5t-87.5 27.5h-177v-228zM369 334h-202v-268h206q57 0 92.5 37.5t35.5 89.5t-37.5 96.5t-94.5 44.5z
"/>
            <glyph glyph-name="C" unicode="C" horiz-adv-x="664"
                   d="M588 140l46 -47q-101 -103 -246 -103t-239.5 102t-94.5 251q0 148 95 251t239 103t245 -103l-46 -46q-83 83 -199 83q-118 0 -193 -83t-75 -205q0 -121 75.5 -204t192.5 -83q118 0 200 84z"/>
            <glyph glyph-name="D" unicode="D" horiz-adv-x="722"
                   d="M359 0h-259v689h259q143 0 224 -97t81 -249q0 -151 -81 -247t-224 -96zM166 623v-557h193q115 0 177 76.5t62 200.5t-62 202t-177 78h-193z"/>
            <glyph glyph-name="E" unicode="E" horiz-adv-x="559"
                   d="M100 689h393v-66h-327v-252h286v-66h-286v-239h338v-66h-404v689z"/>
            <glyph glyph-name="F" unicode="F" horiz-adv-x="520"
                   d="M100 689h387v-66h-321v-252h255v-66h-255v-305h-66v689z"/>
            <glyph glyph-name="G" unicode="G" horiz-adv-x="756"
                   d="M445 338h275q0 -172 -84.5 -260t-235.5 -88q-146 0 -246 102.5t-100 250.5q0 147 100 250.5t246 103.5q126 0 220 -80l-47 -47q-74 61 -173 61q-119 0 -199.5 -83.5t-80.5 -204.5q0 -120 80.5 -203.5t199.5 -83.5q111 0 175.5 58.5t70.5 161.5h-201v62z"/>
            <glyph glyph-name="H" unicode="H" horiz-adv-x="710"
                   d="M610 689v-689h-66v311h-378v-311h-66v689h66v-316h378v316h66z"/>
            <glyph glyph-name="I" unicode="I" horiz-adv-x="266"
                   d="M166 689v-689h-66v689h66z"/>
            <glyph glyph-name="J" unicode="J" horiz-adv-x="266"
                   d="M-101 -250l6 65q21 -7 56 -7q71 0 105 42.5t34 110.5v728h66v-728q0 -97 -50 -158t-155 -61q-28 0 -62 8z"/>
            <glyph glyph-name="K" unicode="K"
                   d="M236 344l326 -344h-89l-307 324v-324h-66v689h66v-335l260 335h78z"/>
            <glyph glyph-name="L" unicode="L" horiz-adv-x="487"
                   d="M100 689h66v-623h292v-66h-358v689z"/>
            <glyph glyph-name="M" unicode="M" horiz-adv-x="945"
                   d="M473 152l261 537h66l84 -689h-65l-70 571l-243 -496h-66l-244 496l-70 -571h-65l84 689h66z"/>
            <glyph glyph-name="N" unicode="N" horiz-adv-x="685"
                   d="M585 0h-68l-351 577v-577h-66v689h71l348 -573v573h66v-689z"/>
            <glyph glyph-name="O" unicode="O" horiz-adv-x="801"
                   d="M54 343q0 147 100 250.5t246 103.5t246.5 -103.5t100.5 -250.5q0 -148 -100.5 -250.5t-246.5 -102.5t-246 102.5t-100 250.5zM120 343q0 -120 80.5 -203.5t199.5 -83.5t200 83.5t81 203.5q0 121 -81 204.5t-200 83.5t-199.5 -83.5t-80.5 -204.5z"/>
            <glyph glyph-name="P" unicode="P" horiz-adv-x="601"
                   d="M100 689h271q98 0 146 -61t48 -150t-48 -149t-146 -60h-204v-269h-67v689zM371 623h-204v-288h199q68 0 100.5 41t32.5 102t-32 103t-96 42z"/>
            <glyph glyph-name="Q" unicode="Q" horiz-adv-x="801"
                   d="M577 38l75 -116l-56 -36l-79 124q-58 -20 -117 -20q-146 0 -246 102.5t-100 250.5q0 147 100 250.5t246 103.5t246.5 -103.5t100.5 -250.5q0 -96 -46 -177t-124 -128zM457 228l84 -135q65 39 102.5 104.5t37.5 145.5q0 121 -81 204.5t-200 83.5t-199.5 -83.5
t-80.5 -204.5q0 -120 80.5 -203.5t199.5 -83.5q46 0 80 10l-78 126z"/>
            <glyph glyph-name="R" unicode="R" horiz-adv-x="608"
                   d="M364 269l190 -269h-81l-190 269h-116v-269h-67v689h256q98 0 144.5 -60.5t46.5 -150.5q0 -86 -45 -146.5t-138 -62.5zM356 623h-189v-288h184q68 0 99 41t31 102t-30.5 103t-94.5 42z"/>
            <glyph glyph-name="S" unicode="S" horiz-adv-x="568"
                   d="M57 198h66q0 -55 44 -98.5t113 -43.5q72 0 116 34t53 79q9 59 -28.5 94.5t-102.5 51.5l-93 21q-162 36 -162 173q0 81 65.5 134.5t150.5 53.5q94 0 155 -54t61 -143h-66q0 59 -42.5 95t-107.5 36q-60 0 -105 -35t-45 -87q0 -84 110 -109l94 -21q92 -20 143 -75t38 -147
q-13 -67 -74.5 -117t-159.5 -50q-97 0 -160 64t-63 144z"/>
            <glyph glyph-name="T" unicode="T" horiz-adv-x="566"
                   d="M29 689h508v-66h-221v-623h-66v623h-221v66z"/>
            <glyph glyph-name="U" unicode="U" horiz-adv-x="674"
                   d="M337 56q75 0 126.5 49t51.5 128v456h66v-456q0 -108 -70.5 -175.5t-173.5 -67.5t-173.5 67.5t-70.5 175.5v456h66v-456q0 -79 51.5 -128t126.5 -49z"/>
            <glyph glyph-name="V" unicode="V" horiz-adv-x="551"
                   d="M102 689l173 -581l173 581h68l-206 -689h-69l-207 689h68z"/>
            <glyph glyph-name="W" unicode="W" horiz-adv-x="908"
                   d="M815 689h70l-233 -689h-63l-135 462l-135 -462h-63l-233 689h70l193 -585l143 494h50l143 -494z"/>
            <glyph glyph-name="X" unicode="X" horiz-adv-x="591"
                   d="M335 371l242 -371h-81l-201 315l-201 -315h-80l241 371l-214 318h81l173 -261l174 261h80z"/>
            <glyph glyph-name="Y" unicode="Y" horiz-adv-x="615"
                   d="M341 320v-320h-68v320l-259 369h79l214 -297l216 297h80z"/>
            <glyph glyph-name="Z" unicode="Z" horiz-adv-x="560"
                   d="M42 66l389 556h-375v67h456v-66l-390 -556h390v-67h-470v66z"/>
            <glyph glyph-name="bracketleft" unicode="[" horiz-adv-x="299"
                   d="M89 -226v915h164v-67h-97v-780h97v-68h-164z"/>
            <glyph glyph-name="backslash" unicode="\" horiz-adv-x="473"
                   d="M368 0l-337 689h73l337 -689h-73z"/>
            <glyph glyph-name="bracketright" unicode="]" horiz-adv-x="299"
                   d="M210 689v-915h-164v68h97v780h-97v67h164z"/>
            <glyph glyph-name="underscore" unicode="_" horiz-adv-x="711"
                   d="M72 -59h567v-63h-567v63z"/>
            <glyph glyph-name="grave" unicode="`" horiz-adv-x="458"
                   d="M213 555l-84 134h82l70 -134h-68z"/>
            <glyph glyph-name="a" unicode="a" horiz-adv-x="612"
                   d="M531 467v-467h-67v80q-25 -43 -74 -66.5t-102 -23.5q-102 0 -170.5 68t-68.5 177t68.5 175.5t170.5 66.5q54 0 102.5 -22.5t73.5 -64.5v77h67zM116 235q0 -77 49.5 -127.5t122.5 -50.5q75 0 125.5 47t50.5 131q0 82 -53.5 128.5t-122.5 46.5q-74 0 -123 -48t-49 -127z
"/>
            <glyph glyph-name="b" unicode="b" horiz-adv-x="612"
                   d="M81 0v720h67v-330q25 42 73.5 64.5t102.5 22.5q102 0 170.5 -66.5t68.5 -175.5t-68.5 -177t-170.5 -68q-53 0 -102 23.5t-74 66.5v-80h-67zM496 235q0 79 -49 127t-123 48q-69 0 -122.5 -46.5t-53.5 -128.5q0 -84 50.5 -131t125.5 -47q73 0 122.5 50.5t49.5 127.5z"/>
            <glyph glyph-name="c" unicode="c" horiz-adv-x="504"
                   d="M414 101l48 -47q-69 -64 -169 -64q-102 0 -173 68t-71 177q0 108 70.5 175t173.5 67q99 0 168 -63l-47 -47q-50 44 -121 44q-75 0 -126.5 -48.5t-51.5 -127.5t51.5 -129t126.5 -50q71 0 121 45z"/>
            <glyph glyph-name="d" unicode="d" horiz-adv-x="612"
                   d="M531 720v-720h-67v80q-25 -43 -74 -66.5t-102 -23.5q-102 0 -170.5 68t-68.5 177t68.5 175.5t170.5 66.5q54 0 102.5 -22.5t73.5 -64.5v330h67zM116 235q0 -77 49.5 -127.5t122.5 -50.5q75 0 125.5 47t50.5 131q0 82 -53.5 128.5t-122.5 46.5q-74 0 -123 -48t-49 -127z
"/>
            <glyph glyph-name="e" unicode="e" horiz-adv-x="557"
                   d="M285 -10q-101 0 -168.5 68t-67.5 177t67 175.5t169 66.5q101 0 165 -66t64 -176q0 -22 -1 -31h-396q8 -67 55 -107.5t113 -40.5q100 0 146 81q11 -3 34.5 -8t32.5 -7q-29 -63 -85 -97.5t-128 -34.5zM117 266h329q-10 67 -53 106t-108 39q-66 0 -112 -39.5t-56 -105.5z
"/>
            <glyph glyph-name="f" unicode="f" horiz-adv-x="329"
                   d="M333 720v-63h-50q-32 0 -52.5 -11.5t-29.5 -34t-11.5 -42t-2.5 -48.5v-54h115v-60h-115v-407h-67v407h-91v60h91v54q0 199 163 199h50z"/>
            <glyph glyph-name="g" unicode="g" horiz-adv-x="611"
                   d="M116 232q0 -79 49 -127t123 -48q69 0 122.5 46.5t53.5 128.5q0 84 -50.5 131t-125.5 47q-73 0 -122.5 -50.5t-49.5 -127.5zM80 -117l57 33q51 -83 144 -83q88 0 135.5 58t47.5 194q-22 -43 -72.5 -69t-103.5 -26q-102 0 -170.5 66.5t-68.5 175.5t68.5 177t170.5 68
q53 0 102 -23.5t74 -66.5v80h67v-393q0 -307 -250 -307q-61 0 -114 29t-87 87z"/>
            <glyph glyph-name="h" unicode="h"
                   d="M148 255v-255h-67v720h67v-330q20 43 65 65t90 22q86 0 133.5 -54.5t46.5 -150.5v-272h-67v272q0 66 -29.5 102.5t-83.5 36.5q-63 0 -109 -38.5t-46 -117.5z"/>
            <glyph glyph-name="i" unicode="i" horiz-adv-x="228"
                   d="M147 467v-467h-66v467h66zM64 641q0 21 15 34.5t36 13.5t36 -13.5t15 -34.5t-15 -34.5t-36 -13.5t-36 13.5t-15 34.5z"/>
            <glyph glyph-name="j" unicode="j" horiz-adv-x="229"
                   d="M64 641q0 21 15 34.5t36 13.5t36 -13.5t15 -34.5t-15 -34.5t-36 -13.5t-36 13.5t-15 34.5zM-65 -226v63h50q26 0 44.5 8.5t28 21t15 32t7 36t1.5 38.5v494h67v-494q0 -199 -163 -199h-50z"/>
            <glyph glyph-name="k" unicode="k" horiz-adv-x="485"
                   d="M147 255v-255h-66v720h66v-438l185 185h94l-200 -200l253 -267h-91z"/>
            <glyph glyph-name="l" unicode="l" horiz-adv-x="228"
                   d="M147 720v-720h-66v720h66z"/>
            <glyph glyph-name="m" unicode="m" horiz-adv-x="893"
                   d="M483 255v-255h-67v272q0 66 -29.5 102.5t-83.5 36.5q-63 0 -109 -38.5t-46 -117.5v-255h-67v467h67v-77q20 41 68 64t87 23q120 0 162 -102q50 102 173 102q86 0 133.5 -54.5t46.5 -150.5v-272h-67v272q0 66 -29.5 102.5t-83.5 36.5q-63 0 -109 -38.5t-46 -117.5z"/>
            <glyph glyph-name="n" unicode="n"
                   d="M148 255v-255h-67v467h67v-77q20 43 65 65t90 22q86 0 133.5 -54.5t46.5 -150.5v-272h-67v272q0 66 -29.5 102.5t-83.5 36.5q-63 0 -109 -38.5t-46 -117.5z"/>
            <glyph glyph-name="o" unicode="o" horiz-adv-x="586"
                   d="M293 -10q-102 0 -173 68t-71 177q0 108 70.5 175t173.5 67t173.5 -67t70.5 -175q0 -109 -71 -177t-173 -68zM293 56q75 0 126.5 50t51.5 129t-51.5 127.5t-126.5 48.5t-126.5 -48.5t-51.5 -127.5t51.5 -129t126.5 -50z"/>
            <glyph glyph-name="p" unicode="p" horiz-adv-x="612"
                   d="M81 -226v693h67v-81q25 43 74 67t102 24q102 0 170.5 -68.5t68.5 -177.5t-68.5 -175t-170.5 -66q-55 0 -103 21.5t-73 64.5v-302h-67zM496 231q0 77 -49.5 128t-122.5 51q-75 0 -125.5 -48t-50.5 -131q0 -81 53.5 -127.5t122.5 -46.5q75 0 123.5 47.5t48.5 126.5z"/>
            <glyph glyph-name="q" unicode="q" horiz-adv-x="612"
                   d="M531 467v-693h-67v302q-25 -42 -73.5 -64t-102.5 -22q-102 0 -170.5 66t-68.5 175t68.5 177.5t170.5 68.5q53 0 102 -24t74 -67v81h67zM116 231q0 -79 48.5 -126.5t123.5 -47.5q69 0 122.5 46.5t53.5 127.5q0 83 -50.5 131t-125.5 48q-73 0 -122.5 -51t-49.5 -128z"/>
            <glyph glyph-name="r" unicode="r" horiz-adv-x="377"
                   d="M358 459l-8 -65q-33 16 -68 16q-67 0 -100.5 -67.5t-33.5 -168.5v-174h-67v467h67v-106q33 116 134 116q23 0 46 -6t30 -12z"/>
            <glyph glyph-name="s" unicode="s" horiz-adv-x="424"
                   d="M44 134h59q18 -81 110 -81q45 0 72 20.5t27 53.5q0 56 -67 72l-65 15q-133 30 -118 152q8 50 51 80.5t101 30.5t98 -30t49 -91h-65q-6 26 -28.5 41.5t-53.5 15.5q-34 0 -58.5 -16t-28.5 -41q-12 -58 69 -78l64 -15q118 -28 118 -136q0 -60 -49 -98.5t-122 -38.5
q-63 0 -112 39t-51 105z"/>
            <glyph glyph-name="t" unicode="t" horiz-adv-x="308"
                   d="M179 0h-67v407h-84v60h84v175h67v-175h99v-60h-99v-407z"/>
            <glyph glyph-name="u" unicode="u"
                   d="M410 212v255h67v-467h-67v77q-20 -43 -65 -65t-90 -22q-86 0 -133.5 54.5t-46.5 150.5v272h67v-272q0 -66 29.5 -102.5t83.5 -36.5q63 0 109 38.5t46 117.5z"/>
            <glyph glyph-name="v" unicode="v" horiz-adv-x="505"
                   d="M24 467h70l159 -389l158 389h71l-194 -467h1h-72z"/>
            <glyph glyph-name="w" unicode="w" horiz-adv-x="804"
                   d="M602 0h-56l-145 375l-140 -375h-56l-180 467h71l135 -361l134 361h72l135 -361l134 361h71z"/>
            <glyph glyph-name="x" unicode="x" horiz-adv-x="483"
                   d="M49 467h82l110 -154l111 154h82l-152 -210l186 -257h-81l-146 201l-146 -201h-80l186 257z"/>
            <glyph glyph-name="y" unicode="y" horiz-adv-x="505"
                   d="M192 -226h-69l93 227l-192 466h70l158 -380l159 380h71z"/>
            <glyph glyph-name="z" unicode="z" horiz-adv-x="495"
                   d="M446 467v-60l-315 -341h315v-66h-405v61l310 340h-293v66h388z"/>
            <glyph glyph-name="braceleft" unicode="{" horiz-adv-x="395"
                   d="M171 137v-170q0 -57 38 -94.5t91 -37.5h54v-61h-54q-82 0 -138.5 53.5t-56.5 139.5v170q0 27 -19 48t-45 21v57q26 0 45 21t19 48v172q0 86 56.5 139.5t138.5 53.5h54v-61h-54q-53 0 -91 -37.5t-38 -94.5v-172q0 -31 -15.5 -59t-43.5 -39q26 -9 42.5 -38t16.5 -59z"/>
            <glyph glyph-name="bar" unicode="|" horiz-adv-x="228"
                   d="M139 791v-913h-50v913h50z"/>
            <glyph glyph-name="braceright" unicode="}" horiz-adv-x="395"
                   d="M224 -33v170q0 30 16.5 59t42.5 38q-28 11 -43.5 39t-15.5 59v172q0 57 -38 94.5t-91 37.5h-54v61h54q82 0 138.5 -53.5t56.5 -139.5v-172q0 -27 19 -48t45 -21v-57q-26 0 -45 -21t-19 -48v-170q0 -86 -56.5 -139.5t-138.5 -53.5h-54v61h54q53 0 91 37.5t38 94.5z"/>
            <glyph glyph-name="exclamdown" unicode="&#xa1;" horiz-adv-x="234"
                   d="M172 415q0 -23 -15.5 -37.5t-39.5 -14.5t-39.5 14.5t-15.5 37.5t15.5 37.5t39.5 14.5t39.5 -14.5t15.5 -37.5zM84 -226l6 498h54l6 -498h-66z"/>
            <glyph glyph-name="cent" unicode="&#xa2;" horiz-adv-x="523"
                   d="M306 583v-106q94 -5 158 -63l-47 -47q-50 44 -121 44q-75 0 -126.5 -48.5t-51.5 -127.5t51.5 -129t126.5 -50q72 0 121 45l48 -47q-65 -59 -159 -64v-112h-50v115q-89 12 -146.5 78.5t-57.5 163.5t57.5 162t146.5 77v109h50z"/>
            <glyph glyph-name="sterling" unicode="&#xa3;" horiz-adv-x="639"
                   d="M147 336v173q0 86 60 139.5t143 53.5q82 0 138.5 -53.5t56.5 -139.5h-66q0 56 -38 91.5t-91 35.5q-55 0 -96 -35.5t-41 -91.5v-173h162v-57h-162v-213h285q21 0 21 25v59h66v-59q0 -39 -25.5 -65t-61.5 -26h-449v66h98v213h-81v57h81z"/>
            <glyph glyph-name="currency" unicode="&#xa4;" horiz-adv-x="608"
                   d="M172 346q0 -54 39 -93t93 -39t93 39t39 93t-39 93t-93 39t-93 -39t-39 -93zM187 192l-72 -73l-38 38l72 73q-38 51 -38 116q0 66 39 116l-73 74l38 38l73 -74q50 39 116 39q65 0 116 -39l73 74l38 -38l-73 -74q39 -52 39 -116q0 -66 -39 -116l73 -73l-38 -38l-73 73
q-50 -39 -116 -39t-117 39z"/>
            <glyph glyph-name="yen" unicode="&#xa5;" horiz-adv-x="655"
                   d="M131 272v47h161l-259 370h79l214 -297l216 297h80l-262 -370h162v-47h-162v-99h162v-47h-162v-126h-68v126h-161v47h161v99h-161z"/>
            <glyph glyph-name="brokenbar" unicode="&#xa6;" horiz-adv-x="232"
                   d="M91 414v377h50v-377h-50zM141 254v-376h-50v376h50z"/>
            <glyph glyph-name="section" unicode="&#xa7;" horiz-adv-x="517"
                   d="M132 504v-133q0 -57 37.5 -91.5t91.5 -34.5q58 0 89 27v-74q-42 -19 -89 -19q-82 0 -138.5 53t-56.5 139v133q0 86 56.5 139.5t138.5 53.5q63 0 113 -33t70 -90l-64 -18q-15 35 -47 55t-72 20q-53 0 -91 -35.5t-38 -91.5zM385 117v133q0 57 -37.5 91.5t-91.5 34.5
q-58 0 -89 -27v74q42 19 89 19q82 0 138.5 -53t56.5 -139v-133q0 -86 -56.5 -139.5t-138.5 -53.5q-63 0 -113 33t-70 90l64 18q15 -35 47 -55t72 -20q53 0 91 35.5t38 91.5z"/>
            <glyph glyph-name="dieresis" unicode="&#xa8;" horiz-adv-x="519"
                   d="M120 641q0 21 15 34.5t36 13.5t36 -13.5t15 -34.5t-15 -34.5t-36 -13.5t-36 13.5t-15 34.5zM297 641q0 21 15 34.5t36 13.5t36 -13.5t15 -34.5t-15 -34.5t-36 -13.5t-36 13.5t-15 34.5z"/>
            <glyph glyph-name="copyright" unicode="&#xa9;" horiz-adv-x="815"
                   d="M58 343q0 147 101.5 250.5t247.5 103.5t248 -103.5t102 -250.5t-102 -250t-248 -103t-247.5 103t-101.5 250zM507 258l36 -39q-55 -60 -132 -60q-75 0 -126.5 52t-51.5 127t51.5 127t126.5 52q76 0 131 -60l-37 -37q-43 43 -94 43q-52 0 -88 -37t-36 -88t36 -88t88 -37
q51 0 96 45zM114 343q0 -123 85 -209.5t208 -86.5t208 86.5t85 209.5t-85 210t-208 87t-208 -87t-85 -210z"/>
            <glyph glyph-name="ordfeminine" unicode="&#xaa;" horiz-adv-x="476"
                   d="M390 662v-305h-49v44q-40 -51 -110 -51q-67 0 -112 44.5t-45 115.5q0 73 44.5 116t112.5 43q79 0 110 -48v41h49zM124 510q0 -48 31 -79t76 -31q47 0 78.5 29t31.5 81q0 51 -33.5 80.5t-76.5 29.5q-46 0 -76.5 -30t-30.5 -80zM88 252v41h305v-41h-305z"/>
            <glyph glyph-name="guillemotleft" unicode="&#xab;" horiz-adv-x="453"
                   d="M50 233l138 207h62l-138 -207l138 -207h-62zM200 233l138 207h62l-138 -207l138 -207h-62z"/>
            <glyph glyph-name="logicalnot" unicode="&#xac;" horiz-adv-x="644"
                   d="M567 352v-226h-63v163h-427v63h490z"/>
            <glyph glyph-name="registered" unicode="&#xae;" horiz-adv-x="815"
                   d="M454 293l92 -129h-66l-91 127h-37v-127h-55v350h133q54 0 82 -33t28 -79q0 -39 -22.5 -70t-63.5 -39zM430 459h-78v-114h76q26 0 42 17t16 40t-15.5 40t-40.5 17zM58 343q0 147 101.5 250.5t247.5 103.5t248 -103.5t102 -250.5t-102 -250t-248 -103t-247.5 103
t-101.5 250zM114 343q0 -123 85 -209.5t208 -86.5t208 86.5t85 209.5t-85 210t-208 87t-208 -87t-85 -210z"/>
            <glyph glyph-name="macron" unicode="&#xaf;" horiz-adv-x="478"
                   d="M120 669h238v-63h-238v63z"/>
            <glyph glyph-name="degree" unicode="&#xb0;" horiz-adv-x="366"
                   d="M58 572q0 51 37 88t88 37t88 -37t37 -88t-37 -88t-88 -37t-88 37t-37 88zM109 572q0 -31 21.5 -52.5t52.5 -21.5t52.5 21.5t21.5 52.5t-21.5 52.5t-52.5 21.5t-52.5 -21.5t-21.5 -52.5z"/>
            <glyph glyph-name="plusminus" unicode="&#xb1;" horiz-adv-x="546"
                   d="M241 337v158h63v-158h169v-63h-169v-159h-63v159h-168v63h168zM473 0h-400v63h400v-63z"/>
            <glyph glyph-name="twosuperior" unicode="&#xb2;" horiz-adv-x="321"
                   d="M38 470v24l159 192q29 36 29 65t-20 46t-50 17q-28 0 -49 -17t-25 -45l-49 12q8 47 42 75t81 28q52 0 87.5 -32.5t35.5 -83.5t-43 -101q-22 -26 -36 -42.5t-32.5 -38.5t-38.5 -46h150v-53h-241z"/>
            <glyph glyph-name="threesuperior" unicode="&#xb3;" horiz-adv-x="325"
                   d="M49 810q16 28 46.5 44t66.5 14q48 -4 78 -35t30 -74q-2 -51 -47 -78q30 -11 48 -41.5t15 -63.5q-4 -50 -46.5 -82.5t-97.5 -28.5q-38 3 -69.5 25t-46.5 56l44 25q21 -46 76 -53q33 -2 58.5 17t27.5 48q2 28 -21.5 49.5t-55.5 21.5h-44v51h44q22 0 37 13t18 33
q4 26 -11 43t-42 20q-44 4 -70 -35q-5 4 -18 14.5t-20 16.5z"/>
            <glyph glyph-name="acute" unicode="&#xb4;" horiz-adv-x="458"
                   d="M281 689l-84 -134h-68l70 134h82z"/>
            <glyph glyph-name="mu" unicode="&#xb5;" horiz-adv-x="557"
                   d="M87 -163v630h67v-272q0 -66 29.5 -102.5t83.5 -36.5q63 0 109 38.5t46 117.5v255h67v-467h-67v77q-20 -43 -65 -65t-90 -22q-78 0 -113 42v-195h-67z"/>
            <glyph glyph-name="paragraph" unicode="&#xb6;" horiz-adv-x="612"
                   d="M318 689v-748h-66v316q-90 0 -153 63t-63 153q0 89 63 152.5t153 63.5h66zM374 689h66q55 0 94 -39t39 -94v-79h-66v79q0 28 -19.5 47.5t-47.5 19.5v-666q0 -14 -2 -21q-8 -49 -44.5 -80.5t-86.5 -31.5h-55v59h55q25 0 46 17.5t21 40.5v748z"/>
            <glyph glyph-name="periodcentered" unicode="&#xb7;" horiz-adv-x="254"
                   d="M72 263q0 23 15.5 37.5t39.5 14.5t39.5 -14.5t15.5 -37.5t-15.5 -37.5t-39.5 -14.5t-39.5 14.5t-15.5 37.5z"/>
            <glyph glyph-name="cedilla" unicode="&#xb8;" horiz-adv-x="516"
                   d="M301 -89l-49 115h56l39 -94q17 -40 2 -76.5t-54 -52.5q-38 -16 -73.5 -0.5t-52.5 53.5q-9 23 -9 43l53 -4q2 -14 4 -19q8 -17 25 -25t34 -1q18 8 25.5 26t-0.5 35z"/>
            <glyph glyph-name="onesuperior" unicode="&#xb9;" horiz-adv-x="202"
                   d="M145 470h-53v325l-64 -23v51l117 43v-396z"/>
            <glyph glyph-name="ordmasculine" unicode="&#xba;" horiz-adv-x="475"
                   d="M236 352q-67 0 -113.5 45t-46.5 115q0 72 46 115.5t114 43.5t114 -43.5t46 -115.5q0 -70 -46.5 -115t-113.5 -45zM236 401q46 0 79 31t33 80q0 50 -32.5 80.5t-79.5 30.5t-79 -30.5t-32 -80.5q0 -49 32.5 -80t78.5 -31zM86 252v41h305v-41h-305z"/>
            <glyph glyph-name="guillemotright" unicode="&#xbb;" horiz-adv-x="453"
                   d="M403 233l-138 -207h-62l138 207l-138 207h62zM253 233l-138 -207h-62l138 207l-138 207h62z"/>
            <glyph glyph-name="onequarter" unicode="&#xbc;" horiz-adv-x="766"
                   d="M615 296l-113 -165h113v165zM725 81h-57v-81h-53v81h-204l217 311h40v-261h57v-50zM166 273h-53v325l-64 -23v51l117 43v-396zM596 673l-448 -683h-66l448 683h66z"/>
            <glyph glyph-name="onehalf" unicode="&#xbd;" horiz-adv-x="768"
                   d="M169 273h-53v325l-64 -23v51l117 43v-396zM473 0v24l159 192q29 36 29 65t-20 46t-50 17q-28 0 -49 -17t-25 -45l-49 12q8 47 42 75t81 28q52 0 87.5 -32.5t35.5 -83.5t-43 -101q-22 -26 -36 -42.5t-32.5 -38.5t-38.5 -46h150v-53h-241zM585 673l-448 -683h-66l448 683
h66z"/>
            <glyph glyph-name="threequarters" unicode="&#xbe;" horiz-adv-x="810"
                   d="M657 296l-113 -165h113v165zM767 81h-57v-81h-53v81h-204l217 311h40v-261h57v-50zM67 613q16 28 46.5 44t66.5 14q48 -4 78 -35t30 -74q-2 -51 -47 -78q30 -11 48 -41.5t15 -63.5q-4 -50 -46.5 -82.5t-97.5 -28.5q-38 3 -69.5 25t-46.5 56l44 25q21 -46 76 -53
q33 -2 58.5 17t27.5 48q2 28 -21.5 49.5t-55.5 21.5h-44v51h44q22 0 37 13t18 33q4 26 -11 43t-42 20q-44 4 -70 -35q-5 4 -18 14.5t-20 16.5zM669 673l-448 -683h-66l448 683h66z"/>
            <glyph glyph-name="questiondown" unicode="&#xbf;" horiz-adv-x="474"
                   d="M368 -36h66q0 -86 -56.5 -139.5t-138.5 -53.5q-83 0 -143 53.5t-60 139.5q0 69 40.5 118.5t102.5 68.5q86 25 86 102v29h66v-29q0 -123 -132 -165q-41 -13 -69 -46t-28 -78q0 -56 41 -91.5t96 -35.5q53 0 91 35.5t38 91.5zM353 425q0 -23 -15.5 -37.5t-39.5 -14.5
t-39.5 14.5t-15.5 37.5t15.5 37.5t39.5 14.5t39.5 -14.5t15.5 -37.5z"/>
            <glyph glyph-name="Agrave" unicode="&#xc0;" horiz-adv-x="638"
                   d="M90 0h-71l265 689h70l265 -689h-71l-70 181h-319zM455 243l-136 354l-136 -354h272zM285 755l-84 134h82l70 -134h-68z"/>
            <glyph glyph-name="Aacute" unicode="&#xc1;" horiz-adv-x="638"
                   d="M90 0h-71l265 689h70l265 -689h-71l-70 181h-319zM455 243l-136 354l-136 -354h272zM434 889l-84 -134h-68l70 134h82z"/>
            <glyph glyph-name="Acircumflex" unicode="&#xc2;" horiz-adv-x="638"
                   d="M90 0h-71l265 689h70l265 -689h-71l-70 181h-319zM455 243l-136 354l-136 -354h272zM389 755l-71 86l-70 -86h-68l95 134h87l95 -134h-68z"/>
            <glyph glyph-name="Atilde" unicode="&#xc3;" horiz-adv-x="638"
                   d="M90 0h-71l265 689h70l265 -689h-71l-70 181h-319zM455 243l-136 354l-136 -354h272zM273 826q-12 0 -22.5 -11.5t-11.5 -33.5h-51q3 57 27.5 82.5t57.5 25.5q24 0 51 -21t40 -21q12 0 22.5 10t11.5 32h51q-3 -56 -28 -80.5t-57 -24.5q-24 0 -51 21t-40 21z"/>
            <glyph glyph-name="Adieresis" unicode="&#xc4;" horiz-adv-x="638"
                   d="M90 0h-71l265 689h70l265 -689h-71l-70 181h-319zM455 243l-136 354l-136 -354h272zM179 841q0 21 15 34.5t36 13.5t36 -13.5t15 -34.5t-15 -34.5t-36 -13.5t-36 13.5t-15 34.5zM356 841q0 21 15 34.5t36 13.5t36 -13.5t15 -34.5t-15 -34.5t-36 -13.5t-36 13.5t-15 34.5z
"/>
            <glyph glyph-name="Aring" unicode="&#xc5;" horiz-adv-x="638"
                   d="M90 0h-71l265 689h70l265 -689h-71l-70 181h-319zM455 243l-136 354l-136 -354h272zM222 851q0 42 27.5 70t68.5 28q42 0 70 -28t28 -70q0 -41 -28 -68.5t-70 -27.5q-41 0 -68.5 27.5t-27.5 68.5zM274 852q0 -20 12.5 -32.5t32.5 -12.5q19 0 32 12.5t13 32.5q0 19 -13 32
t-32 13q-20 0 -32.5 -13t-12.5 -32z"/>
            <glyph glyph-name="AE" unicode="&#xc6;" horiz-adv-x="942"
                   d="M203 181l-115 -181h-78l435 689h431v-66h-327v-252h286v-66h-286v-239h338v-66h-404v181h-280zM242 243h241v380z"/>
            <glyph glyph-name="Ccedilla" unicode="&#xc7;" horiz-adv-x="665"
                   d="M589 140l46 -47q-94 -98 -234 -103l24 -58q17 -40 2 -76.5t-54 -52.5q-38 -16 -73.5 -0.5t-52.5 53.5q-9 23 -9 43l53 -4q0 -12 4 -19q8 -17 25 -25t34 -1q18 8 25.5 26t-0.5 35l-35 82q-127 16 -208 115t-81 235q0 148 95 251t239 103t245 -103l-46 -46q-83 83 -199 83
q-117 0 -192.5 -83t-75.5 -205q0 -121 75.5 -204t192.5 -83q118 0 200 84z"/>
            <glyph glyph-name="Egrave" unicode="&#xc8;" horiz-adv-x="559"
                   d="M100 689h393v-66h-327v-252h286v-66h-286v-239h338v-66h-404v689zM275 755l-84 134h82l70 -134h-68z"/>
            <glyph glyph-name="Eacute" unicode="&#xc9;" horiz-adv-x="559"
                   d="M100 689h393v-66h-327v-252h286v-66h-286v-239h338v-66h-404v689zM390 889l-84 -134h-68l70 134h82z"/>
            <glyph glyph-name="Ecircumflex" unicode="&#xca;" horiz-adv-x="559"
                   d="M100 689h393v-66h-327v-252h286v-66h-286v-239h338v-66h-404v689zM353 755l-71 86l-70 -86h-68l95 134h87l95 -134h-68z"/>
            <glyph glyph-name="Edieresis" unicode="&#xcb;" horiz-adv-x="559"
                   d="M100 689h393v-66h-327v-252h286v-66h-286v-239h338v-66h-404v689zM142 841q0 21 15 34.5t36 13.5t36 -13.5t15 -34.5t-15 -34.5t-36 -13.5t-36 13.5t-15 34.5zM319 841q0 21 15 34.5t36 13.5t36 -13.5t15 -34.5t-15 -34.5t-36 -13.5t-36 13.5t-15 34.5z"/>
            <glyph glyph-name="Igrave" unicode="&#xcc;" horiz-adv-x="266"
                   d="M166 689v-689h-66v689h66zM98 755l-84 134h82l70 -134h-68z"/>
            <glyph glyph-name="Iacute" unicode="&#xcd;" horiz-adv-x="266"
                   d="M166 689v-689h-66v689h66zM251 889l-84 -134h-68l70 134h82z"/>
            <glyph glyph-name="Icircumflex" unicode="&#xce;" horiz-adv-x="266"
                   d="M166 689v-689h-66v689h66zM204 755l-71 86l-70 -86h-68l95 134h87l95 -134h-68z"/>
            <glyph glyph-name="Idieresis" unicode="&#xcf;" horiz-adv-x="266"
                   d="M166 689v-689h-66v689h66zM-6 841q0 21 15 34.5t36 13.5t36 -13.5t15 -34.5t-15 -34.5t-36 -13.5t-36 13.5t-15 34.5zM171 841q0 21 15 34.5t36 13.5t36 -13.5t15 -34.5t-15 -34.5t-36 -13.5t-36 13.5t-15 34.5z"/>
            <glyph glyph-name="Eth" unicode="&#xd0;" horiz-adv-x="727"
                   d="M364 0h-259v314h-98v61h98v314h259q143 0 224 -97t81 -249q0 -151 -81 -247t-224 -96zM171 375h172v-61h-172v-248h193q115 0 177 76.5t62 200.5t-62 202t-177 78h-193v-248z"/>
            <glyph glyph-name="Ntilde" unicode="&#xd1;" horiz-adv-x="685"
                   d="M585 0h-68l-351 577v-577h-66v689h71l348 -573v573h66v-689zM297 826q-12 0 -22.5 -11.5t-11.5 -33.5h-51q3 57 27.5 82.5t57.5 25.5q24 0 51 -21t40 -21q12 0 22.5 10t11.5 32h51q-3 -56 -28 -80.5t-57 -24.5q-24 0 -51 21t-40 21z"/>
            <glyph glyph-name="Ograve" unicode="&#xd2;" horiz-adv-x="801"
                   d="M54 343q0 147 100 250.5t246 103.5t246.5 -103.5t100.5 -250.5q0 -148 -100.5 -250.5t-246.5 -102.5t-246 102.5t-100 250.5zM120 343q0 -120 80.5 -203.5t199.5 -83.5t200 83.5t81 203.5q0 121 -81 204.5t-200 83.5t-199.5 -83.5t-80.5 -204.5zM373 755l-84 134h82
l70 -134h-68z"/>
            <glyph glyph-name="Oacute" unicode="&#xd3;" horiz-adv-x="801"
                   d="M54 343q0 147 100 250.5t246 103.5t246.5 -103.5t100.5 -250.5q0 -148 -100.5 -250.5t-246.5 -102.5t-246 102.5t-100 250.5zM120 343q0 -120 80.5 -203.5t199.5 -83.5t200 83.5t81 203.5q0 121 -81 204.5t-200 83.5t-199.5 -83.5t-80.5 -204.5zM506 889l-84 -134h-68
l70 134h82z"/>
            <glyph glyph-name="Ocircumflex" unicode="&#xd4;" horiz-adv-x="801"
                   d="M54 343q0 147 100 250.5t246 103.5t246.5 -103.5t100.5 -250.5q0 -148 -100.5 -250.5t-246.5 -102.5t-246 102.5t-100 250.5zM120 343q0 -120 80.5 -203.5t199.5 -83.5t200 83.5t81 203.5q0 121 -81 204.5t-200 83.5t-199.5 -83.5t-80.5 -204.5zM471 755l-71 86l-70 -86
h-68l95 134h87l95 -134h-68z"/>
            <glyph glyph-name="Otilde" unicode="&#xd5;" horiz-adv-x="801"
                   d="M54 343q0 147 100 250.5t246 103.5t246.5 -103.5t100.5 -250.5q0 -148 -100.5 -250.5t-246.5 -102.5t-246 102.5t-100 250.5zM120 343q0 -120 80.5 -203.5t199.5 -83.5t200 83.5t81 203.5q0 121 -81 204.5t-200 83.5t-199.5 -83.5t-80.5 -204.5zM355 826
q-12 0 -22.5 -11.5t-11.5 -33.5h-51q3 57 27.5 82.5t57.5 25.5q24 0 51 -21t40 -21q12 0 22.5 10t11.5 32h51q-3 -56 -28 -80.5t-57 -24.5q-24 0 -51 21t-40 21z"/>
            <glyph glyph-name="Odieresis" unicode="&#xd6;" horiz-adv-x="801"
                   d="M54 343q0 147 100 250.5t246 103.5t246.5 -103.5t100.5 -250.5q0 -148 -100.5 -250.5t-246.5 -102.5t-246 102.5t-100 250.5zM120 343q0 -120 80.5 -203.5t199.5 -83.5t200 83.5t81 203.5q0 121 -81 204.5t-200 83.5t-199.5 -83.5t-80.5 -204.5zM261 841q0 21 15 34.5
t36 13.5t36 -13.5t15 -34.5t-15 -34.5t-36 -13.5t-36 13.5t-15 34.5zM438 841q0 21 15 34.5t36 13.5t36 -13.5t15 -34.5t-15 -34.5t-36 -13.5t-36 13.5t-15 34.5z"/>
            <glyph glyph-name="multiply" unicode="&#xd7;" horiz-adv-x="489"
                   d="M200 275l-132 132l45 44l131 -131l133 132l44 -45l-132 -132l132 -132l-44 -45l-133 132l-131 -131l-45 44z"/>
            <glyph glyph-name="Oslash" unicode="&#xd8;" horiz-adv-x="799"
                   d="M175 72l-80 -83l-37 37l80 83q-85 101 -85 234q0 147 100 250.5t246 103.5q131 0 228 -86l87 89l37 -37l-87 -90q82 -101 82 -230q0 -148 -100.5 -250.5t-246.5 -102.5q-128 0 -224 82zM119 343q0 -106 65 -187l397 407q-77 68 -182 68q-119 0 -199.5 -83.5t-80.5 -204.5
zM399 56q119 0 200 83.5t81 203.5q0 103 -63 183l-396 -407q78 -63 178 -63z"/>
            <glyph glyph-name="Ugrave" unicode="&#xd9;" horiz-adv-x="674"
                   d="M337 56q75 0 126.5 49t51.5 128v456h66v-456q0 -108 -70.5 -175.5t-173.5 -67.5t-173.5 67.5t-70.5 175.5v456h66v-456q0 -79 51.5 -128t126.5 -49zM305 755l-84 134h82l70 -134h-68z"/>
            <glyph glyph-name="Uacute" unicode="&#xda;" horiz-adv-x="674"
                   d="M337 56q75 0 126.5 49t51.5 128v456h66v-456q0 -108 -70.5 -175.5t-173.5 -67.5t-173.5 67.5t-70.5 175.5v456h66v-456q0 -79 51.5 -128t126.5 -49zM446 889l-84 -134h-68l70 134h82z"/>
            <glyph glyph-name="Ucircumflex" unicode="&#xdb;" horiz-adv-x="674"
                   d="M337 56q75 0 126.5 49t51.5 128v456h66v-456q0 -108 -70.5 -175.5t-173.5 -67.5t-173.5 67.5t-70.5 175.5v456h66v-456q0 -79 51.5 -128t126.5 -49zM407 755l-71 86l-70 -86h-68l95 134h87l95 -134h-68z"/>
            <glyph glyph-name="Udieresis" unicode="&#xdc;" horiz-adv-x="674"
                   d="M337 56q75 0 126.5 49t51.5 128v456h66v-456q0 -108 -70.5 -175.5t-173.5 -67.5t-173.5 67.5t-70.5 175.5v456h66v-456q0 -79 51.5 -128t126.5 -49zM197 841q0 21 15 34.5t36 13.5t36 -13.5t15 -34.5t-15 -34.5t-36 -13.5t-36 13.5t-15 34.5zM374 841q0 21 15 34.5
t36 13.5t36 -13.5t15 -34.5t-15 -34.5t-36 -13.5t-36 13.5t-15 34.5z"/>
            <glyph glyph-name="Yacute" unicode="&#xdd;" horiz-adv-x="615"
                   d="M341 320v-320h-68v320l-259 369h79l214 -297l216 297h80zM422 889l-84 -134h-68l70 134h82z"/>
            <glyph glyph-name="Thorn" unicode="&#xde;" horiz-adv-x="572"
                   d="M329 144h-162v-144h-67v689h67v-128h162q87 0 146 -57t59 -150t-59 -151.5t-146 -58.5zM167 210h162q59 0 99 40t40 104q0 63 -40 102t-99 39h-162v-285z"/>
            <glyph glyph-name="germandbls" unicode="&#xdf;" horiz-adv-x="801"
                   d="M56 373h623q-7 92 -58.5 156.5t-121 87.5t-148 6t-136.5 -75l-46 45q52 53 118.5 79.5t132 24.5t128 -30t108.5 -76t71 -121t17 -158q-10 -136 -108 -229t-235 -93q-155 0 -256 114t-89 269zM679 312h-558q14 -120 95 -187t185 -67q67 0 126 27t101.5 86.5t50.5 140.5z
"/>
            <glyph glyph-name="germandbls" unicode="&#x42f;" horiz-adv-x="801"
                   d="M56 373h623q-7 92 -58.5 156.5t-121 87.5t-148 6t-136.5 -75l-46 45q52 53 118.5 79.5t132 24.5t128 -30t108.5 -76t71 -121t17 -158q-10 -136 -108 -229t-235 -93q-155 0 -256 114t-89 269zM679 312h-558q14 -120 95 -187t185 -67q67 0 126 27t101.5 86.5t50.5 140.5z
"/>
            <glyph glyph-name="germandbls" unicode="&#x18f;" horiz-adv-x="801"
                   d="M56 373h623q-7 92 -58.5 156.5t-121 87.5t-148 6t-136.5 -75l-46 45q52 53 118.5 79.5t132 24.5t128 -30t108.5 -76t71 -121t17 -158q-10 -136 -108 -229t-235 -93q-155 0 -256 114t-89 269zM679 312h-558q14 -120 95 -187t185 -67q67 0 126 27t101.5 86.5t50.5 140.5z
"/>
            <glyph glyph-name="agrave" unicode="&#xe0;" horiz-adv-x="612"
                   d="M280 555l-84 134h82l70 -134h-68zM531 467v-467h-67v80q-25 -43 -74 -66.5t-102 -23.5q-102 0 -170.5 68t-68.5 177t68.5 175.5t170.5 66.5q54 0 102.5 -22.5t73.5 -64.5v77h67zM116 235q0 -77 49.5 -127.5t122.5 -50.5q75 0 125.5 47t50.5 131q0 82 -53.5 128.5
t-122.5 46.5q-74 0 -123 -48t-49 -127z"/>
            <glyph glyph-name="aacute" unicode="&#xe1;" horiz-adv-x="612"
                   d="M406 689l-84 -134h-68l70 134h82zM531 467v-467h-67v80q-25 -43 -74 -66.5t-102 -23.5q-102 0 -170.5 68t-68.5 177t68.5 175.5t170.5 66.5q54 0 102.5 -22.5t73.5 -64.5v77h67zM116 235q0 -77 49.5 -127.5t122.5 -50.5q75 0 125.5 47t50.5 131q0 82 -53.5 128.5
t-122.5 46.5q-74 0 -123 -48t-49 -127z"/>
            <glyph glyph-name="acircumflex" unicode="&#xe2;" horiz-adv-x="612"
                   d="M375 555l-71 86l-70 -86h-68l95 134h87l95 -134h-68zM531 467v-467h-67v80q-25 -43 -74 -66.5t-102 -23.5q-102 0 -170.5 68t-68.5 177t68.5 175.5t170.5 66.5q54 0 102.5 -22.5t73.5 -64.5v77h67zM116 235q0 -77 49.5 -127.5t122.5 -50.5q75 0 125.5 47t50.5 131
q0 82 -53.5 128.5t-122.5 46.5q-74 0 -123 -48t-49 -127z"/>
            <glyph glyph-name="atilde" unicode="&#xe3;" horiz-adv-x="612"
                   d="M259 626q-12 0 -22.5 -11.5t-11.5 -33.5h-51q3 57 27.5 82.5t57.5 25.5q24 0 51 -21t40 -21q12 0 22.5 10t11.5 32h51q-3 -56 -28 -80.5t-57 -24.5q-24 0 -51 21t-40 21zM531 467v-467h-67v80q-25 -43 -74 -66.5t-102 -23.5q-102 0 -170.5 68t-68.5 177t68.5 175.5
t170.5 66.5q54 0 102.5 -22.5t73.5 -64.5v77h67zM116 235q0 -77 49.5 -127.5t122.5 -50.5q75 0 125.5 47t50.5 131q0 82 -53.5 128.5t-122.5 46.5q-74 0 -123 -48t-49 -127z"/>
            <glyph glyph-name="adieresis" unicode="&#xe4;" horiz-adv-x="612"
                   d="M165 641q0 21 15 34.5t36 13.5t36 -13.5t15 -34.5t-15 -34.5t-36 -13.5t-36 13.5t-15 34.5zM342 641q0 21 15 34.5t36 13.5t36 -13.5t15 -34.5t-15 -34.5t-36 -13.5t-36 13.5t-15 34.5zM531 467v-467h-67v80q-25 -43 -74 -66.5t-102 -23.5q-102 0 -170.5 68t-68.5 177
t68.5 175.5t170.5 66.5q54 0 102.5 -22.5t73.5 -64.5v77h67zM116 235q0 -77 49.5 -127.5t122.5 -50.5q75 0 125.5 47t50.5 131q0 82 -53.5 128.5t-122.5 46.5q-74 0 -123 -48t-49 -127z"/>
            <glyph glyph-name="aring" unicode="&#xe5;" horiz-adv-x="612"
                   d="M208 651q0 42 27.5 70t68.5 28q42 0 70 -28t28 -70q0 -41 -28 -68.5t-70 -27.5q-41 0 -68.5 27.5t-27.5 68.5zM260 652q0 -20 12.5 -32.5t32.5 -12.5q19 0 32 12.5t13 32.5q0 19 -13 32t-32 13q-20 0 -32.5 -13t-12.5 -32zM531 467v-467h-67v80q-25 -43 -74 -66.5
t-102 -23.5q-102 0 -170.5 68t-68.5 177t68.5 175.5t170.5 66.5q54 0 102.5 -22.5t73.5 -64.5v77h67zM116 235q0 -77 49.5 -127.5t122.5 -50.5q75 0 125.5 47t50.5 131q0 82 -53.5 128.5t-122.5 46.5q-74 0 -123 -48t-49 -127z"/>
            <glyph glyph-name="ae" unicode="&#xe6;" horiz-adv-x="973"
                   d="M531 59v-59h-67v80q-25 -43 -74 -66.5t-102 -23.5q-102 0 -170.5 68t-68.5 177t68.5 175.5t170.5 66.5q54 0 102.5 -22.5t73.5 -64.5v77h67v-58q66 68 170 68q101 0 165 -66t64 -176q0 -22 -1 -31h-396q8 -67 55 -107.5t113 -40.5q100 0 146 81q11 -3 34.5 -8t32.5 -7
q-29 -63 -85 -97.5t-128 -34.5q-103 0 -170 69zM116 235q0 -77 49.5 -127.5t122.5 -50.5q75 0 125.5 47t50.5 131q0 82 -53.5 128.5t-122.5 46.5q-74 0 -123 -48t-49 -127zM533 266h329q-10 67 -53 106t-108 39q-66 0 -112 -39.5t-56 -105.5z"/>
            <glyph glyph-name="ccedilla" unicode="&#xe7;" horiz-adv-x="505"
                   d="M316 -9l25 -59q17 -40 2 -76.5t-54 -52.5q-38 -16 -73.5 -0.5t-52.5 53.5q-9 23 -9 43l53 -4q1 -4 2 -9.5t2 -9.5q8 -17 25 -25t34 -1q18 8 25.5 26t-0.5 35l-35 81q-90 10 -150.5 76.5t-60.5 166.5q0 108 70.5 175t173.5 67q99 0 168 -63l-47 -47q-50 44 -121 44
q-75 0 -126.5 -48.5t-51.5 -127.5t51.5 -129t126.5 -50q71 0 121 45l48 -47q-60 -55 -146 -63z"/>
            <glyph glyph-name="egrave" unicode="&#xe8;" horiz-adv-x="557"
                   d="M285 -10q-101 0 -168.5 68t-67.5 177t67 175.5t169 66.5q101 0 165 -66t64 -176q0 -22 -1 -31h-396q8 -67 55 -107.5t113 -40.5q100 0 146 81q11 -3 34.5 -8t32.5 -7q-29 -63 -85 -97.5t-128 -34.5zM117 266h329q-10 67 -53 106t-108 39q-66 0 -112 -39.5t-56 -105.5z
M253 555l-84 134h82l70 -134h-68z"/>
            <glyph glyph-name="eacute" unicode="&#xe9;" horiz-adv-x="557"
                   d="M285 -10q-101 0 -168.5 68t-67.5 177t67 175.5t169 66.5q101 0 165 -66t64 -176q0 -22 -1 -31h-396q8 -67 55 -107.5t113 -40.5q100 0 146 81q11 -3 34.5 -8t32.5 -7q-29 -63 -85 -97.5t-128 -34.5zM117 266h329q-10 67 -53 106t-108 39q-66 0 -112 -39.5t-56 -105.5z
M393 689l-84 -134h-68l70 134h82z"/>
            <glyph glyph-name="ecircumflex" unicode="&#xea;" horiz-adv-x="557"
                   d="M285 -10q-101 0 -168.5 68t-67.5 177t67 175.5t169 66.5q101 0 165 -66t64 -176q0 -22 -1 -31h-396q8 -67 55 -107.5t113 -40.5q100 0 146 81q11 -3 34.5 -8t32.5 -7q-29 -63 -85 -97.5t-128 -34.5zM117 266h329q-10 67 -53 106t-108 39q-66 0 -112 -39.5t-56 -105.5z
M352 555l-71 86l-70 -86h-68l95 134h87l95 -134h-68z"/>
            <glyph glyph-name="edieresis" unicode="&#xeb;" horiz-adv-x="557"
                   d="M285 -10q-101 0 -168.5 68t-67.5 177t67 175.5t169 66.5q101 0 165 -66t64 -176q0 -22 -1 -31h-396q8 -67 55 -107.5t113 -40.5q100 0 146 81q11 -3 34.5 -8t32.5 -7q-29 -63 -85 -97.5t-128 -34.5zM117 266h329q-10 67 -53 106t-108 39q-66 0 -112 -39.5t-56 -105.5z
M142 641q0 21 15 34.5t36 13.5t36 -13.5t15 -34.5t-15 -34.5t-36 -13.5t-36 13.5t-15 34.5zM319 641q0 21 15 34.5t36 13.5t36 -13.5t15 -34.5t-15 -34.5t-36 -13.5t-36 13.5t-15 34.5z"/>
            <glyph glyph-name="igrave" unicode="&#xec;" horiz-adv-x="228"
                   d="M147 467v-467h-66v467h66zM78 555l-84 134h82l70 -134h-68z"/>
            <glyph glyph-name="iacute" unicode="&#xed;" horiz-adv-x="228"
                   d="M147 467v-467h-66v467h66zM232 689l-84 -134h-68l70 134h82z"/>
            <glyph glyph-name="icircumflex" unicode="&#xee;" horiz-adv-x="228"
                   d="M147 467v-467h-66v467h66zM186 555l-71 86l-70 -86h-68l95 134h87l95 -134h-68z"/>
            <glyph glyph-name="idieresis" unicode="&#xef;" horiz-adv-x="228"
                   d="M147 467v-467h-66v467h66zM-24 641q0 21 15 34.5t36 13.5t36 -13.5t15 -34.5t-15 -34.5t-36 -13.5t-36 13.5t-15 34.5zM153 641q0 21 15 34.5t36 13.5t36 -13.5t15 -34.5t-15 -34.5t-36 -13.5t-36 13.5t-15 34.5z"/>
            <glyph glyph-name="eth" unicode="&#xf0;" horiz-adv-x="587"
                   d="M268 660l68 43l30 -35l-69 -43l194 -243q46 -62 46 -147q0 -109 -71 -177t-173 -68t-173 68t-71 177q0 107 69.5 174.5t166.5 67.5q30 0 56 -10l-99 123l-88 -56l-25 38l85 54l-80 94h82zM293 56q75 0 126.5 50t51.5 129t-51.5 127.5t-126.5 48.5t-126.5 -48.5
t-51.5 -127.5t51.5 -129t126.5 -50z"/>
            <glyph glyph-name="ntilde" unicode="&#xf1;"
                   d="M148 255v-255h-67v467h67v-77q20 43 65 65t90 22q86 0 133.5 -54.5t46.5 -150.5v-272h-67v272q0 66 -29.5 102.5t-83.5 36.5q-63 0 -109 -38.5t-46 -117.5zM234 626q-12 0 -22.5 -11.5t-11.5 -33.5h-51q3 57 27.5 82.5t57.5 25.5q24 0 51 -21t40 -21q12 0 22.5 10
t11.5 32h51q-3 -56 -28 -80.5t-57 -24.5q-24 0 -51 21t-40 21z"/>
            <glyph glyph-name="ograve" unicode="&#xf2;" horiz-adv-x="586"
                   d="M293 -10q-102 0 -173 68t-71 177q0 108 70.5 175t173.5 67t173.5 -67t70.5 -175q0 -109 -71 -177t-173 -68zM293 56q75 0 126.5 50t51.5 129t-51.5 127.5t-126.5 48.5t-126.5 -48.5t-51.5 -127.5t51.5 -129t126.5 -50zM262 555l-84 134h82l70 -134h-68z"/>
            <glyph glyph-name="oacute" unicode="&#xf3;" horiz-adv-x="586"
                   d="M293 -10q-102 0 -173 68t-71 177q0 108 70.5 175t173.5 67t173.5 -67t70.5 -175q0 -109 -71 -177t-173 -68zM293 56q75 0 126.5 50t51.5 129t-51.5 127.5t-126.5 48.5t-126.5 -48.5t-51.5 -127.5t51.5 -129t126.5 -50zM404 689l-84 -134h-68l70 134h82z"/>
            <glyph glyph-name="ocircumflex" unicode="&#xf4;" horiz-adv-x="586"
                   d="M293 -10q-102 0 -173 68t-71 177q0 108 70.5 175t173.5 67t173.5 -67t70.5 -175q0 -109 -71 -177t-173 -68zM293 56q75 0 126.5 50t51.5 129t-51.5 127.5t-126.5 48.5t-126.5 -48.5t-51.5 -127.5t51.5 -129t126.5 -50zM363 555l-71 86l-70 -86h-68l95 134h87l95 -134h-68
z"/>
            <glyph glyph-name="otilde" unicode="&#xf5;" horiz-adv-x="586"
                   d="M293 -10q-102 0 -173 68t-71 177q0 108 70.5 175t173.5 67t173.5 -67t70.5 -175q0 -109 -71 -177t-173 -68zM293 56q75 0 126.5 50t51.5 129t-51.5 127.5t-126.5 48.5t-126.5 -48.5t-51.5 -127.5t51.5 -129t126.5 -50zM247 626q-12 0 -22.5 -11.5t-11.5 -33.5h-51
q3 57 27.5 82.5t57.5 25.5q24 0 51 -21t40 -21q12 0 22.5 10t11.5 32h51q-3 -56 -28 -80.5t-57 -24.5q-24 0 -51 21t-40 21z"/>
            <glyph glyph-name="odieresis" unicode="&#xf6;" horiz-adv-x="586"
                   d="M293 -10q-102 0 -173 68t-71 177q0 108 70.5 175t173.5 67t173.5 -67t70.5 -175q0 -109 -71 -177t-173 -68zM293 56q75 0 126.5 50t51.5 129t-51.5 127.5t-126.5 48.5t-126.5 -48.5t-51.5 -127.5t51.5 -129t126.5 -50zM153 641q0 21 15 34.5t36 13.5t36 -13.5t15 -34.5
t-15 -34.5t-36 -13.5t-36 13.5t-15 34.5zM330 641q0 21 15 34.5t36 13.5t36 -13.5t15 -34.5t-15 -34.5t-36 -13.5t-36 13.5t-15 34.5z"/>
            <glyph glyph-name="divide" unicode="&#xf7;" horiz-adv-x="580"
                   d="M235 104q0 23 15.5 37.5t39.5 14.5t39.5 -14.5t15.5 -37.5t-15.5 -37.5t-39.5 -14.5t-39.5 14.5t-15.5 37.5zM235 425q0 23 15.5 37.5t39.5 14.5t39.5 -14.5t15.5 -37.5t-15.5 -37.5t-39.5 -14.5t-39.5 14.5t-15.5 37.5zM77 296h426v-63h-426v63z"/>
            <glyph glyph-name="oslash" unicode="&#xf8;" horiz-adv-x="584"
                   d="M137 42l-51 -53l-37 37l51 53q-52 67 -52 156q0 108 70.5 175t173.5 67q86 0 150 -48l50 52l37 -37l-49 -50q56 -66 56 -159q0 -109 -71 -177t-173 -68q-90 0 -155 52zM292 56q75 0 126.5 50t51.5 129q0 64 -37 111l-249 -256q46 -34 108 -34zM292 411
q-75 0 -126.5 -48.5t-51.5 -127.5q0 -62 33 -108l248 254q-43 30 -103 30z"/>
            <glyph glyph-name="ugrave" unicode="&#xf9;"
                   d="M410 212v255h67v-467h-67v77q-20 -43 -65 -65t-90 -22q-86 0 -133.5 54.5t-46.5 150.5v272h67v-272q0 -66 29.5 -102.5t83.5 -36.5q63 0 109 38.5t46 117.5zM250 555l-84 134h82l70 -134h-68z"/>
            <glyph glyph-name="uacute" unicode="&#xfa;"
                   d="M410 212v255h67v-467h-67v77q-20 -43 -65 -65t-90 -22q-86 0 -133.5 54.5t-46.5 150.5v272h67v-272q0 -66 29.5 -102.5t83.5 -36.5q63 0 109 38.5t46 117.5zM385 689l-84 -134h-68l70 134h82z"/>
            <glyph glyph-name="ucircumflex" unicode="&#xfb;"
                   d="M410 212v255h67v-467h-67v77q-20 -43 -65 -65t-90 -22q-86 0 -133.5 54.5t-46.5 150.5v272h67v-272q0 -66 29.5 -102.5t83.5 -36.5q63 0 109 38.5t46 117.5zM356 555l-71 86l-70 -86h-68l95 134h87l95 -134h-68z"/>
            <glyph glyph-name="udieresis" unicode="&#xfc;"
                   d="M410 212v255h67v-467h-67v77q-20 -43 -65 -65t-90 -22q-86 0 -133.5 54.5t-46.5 150.5v272h67v-272q0 -66 29.5 -102.5t83.5 -36.5q63 0 109 38.5t46 117.5zM146 641q0 21 15 34.5t36 13.5t36 -13.5t15 -34.5t-15 -34.5t-36 -13.5t-36 13.5t-15 34.5zM323 641
q0 21 15 34.5t36 13.5t36 -13.5t15 -34.5t-15 -34.5t-36 -13.5t-36 13.5t-15 34.5z"/>
            <glyph glyph-name="yacute" unicode="&#xfd;" horiz-adv-x="505"
                   d="M192 -226h-69l93 227l-192 466h70l158 -380l159 380h71zM355 689l-84 -134h-68l70 134h82z"/>
            <glyph glyph-name="thorn" unicode="&#xfe;" horiz-adv-x="612"
                   d="M81 -226v946h67v-329q25 42 73.5 64.5t102.5 22.5q102 0 170.5 -66.5t68.5 -175.5t-68.5 -177t-170.5 -68q-53 0 -102 23.5t-74 66.5v-307h-67zM496 236q0 79 -49 127t-123 48q-69 0 -122.5 -46.5t-53.5 -128.5q0 -84 50.5 -131t125.5 -47q73 0 122.5 50.5t49.5 127.5z
"/>
            <glyph glyph-name="ydieresis" unicode="&#xff;" horiz-adv-x="557"
                   d="M277 476q101 0 168.5 -68t67.5 -177t-67 -175.5t-169 -66.5q-101 0 -165 66t-64 176q0 22 1 31h396q-10 68 -56 108t-112 40q-100 0 -146 -81q-11 3 -34.5 8t-32.5 7q29 63 85 97.5t128 34.5zM445 200h-329q10 -67 53 -106t108 -39q66 0 112 39.5t56 105.5z"/>
            <glyph glyph-name="ydieresis" unicode="&#x44f;" horiz-adv-x="557"
                   d="M277 476q101 0 168.5 -68t67.5 -177t-67 -175.5t-169 -66.5q-101 0 -165 66t-64 176q0 22 1 31h396q-10 68 -56 108t-112 40q-100 0 -146 -81q-11 3 -34.5 8t-32.5 7q29 63 85 97.5t128 34.5zM445 200h-329q10 -67 53 -106t108 -39q66 0 112 39.5t56 105.5z"/>
            <glyph glyph-name="ydieresis" unicode="&#x259;" horiz-adv-x="557"
                   d="M277 476q101 0 168.5 -68t67.5 -177t-67 -175.5t-169 -66.5q-101 0 -165 66t-64 176q0 22 1 31h396q-10 68 -56 108t-112 40q-100 0 -146 -81q-11 3 -34.5 8t-32.5 7q29 63 85 97.5t128 34.5zM445 200h-329q10 -67 53 -106t108 -39q66 0 112 39.5t56 105.5z"/>
            <glyph glyph-name="Amacron" unicode="&#x100;" horiz-adv-x="638"
                   d="M90 0h-71l265 689h70l265 -689h-71l-70 181h-319zM455 243l-136 354l-136 -354h272zM200 891h238v-63h-238v63z"/>
            <glyph glyph-name="amacron" unicode="&#x101;" horiz-adv-x="612"
                   d="M186 669h238v-63h-238v63zM531 467v-467h-67v80q-25 -43 -74 -66.5t-102 -23.5q-102 0 -170.5 68t-68.5 177t68.5 175.5t170.5 66.5q54 0 102.5 -22.5t73.5 -64.5v77h67zM116 235q0 -77 49.5 -127.5t122.5 -50.5q75 0 125.5 47t50.5 131q0 82 -53.5 128.5t-122.5 46.5
q-74 0 -123 -48t-49 -127z"/>
            <glyph glyph-name="Abreve" unicode="&#x102;" horiz-adv-x="638"
                   d="M90 0h-71l265 689h70l265 -689h-71l-70 181h-319zM455 243l-136 354l-136 -354h272zM195 911h52q6 -31 24.5 -50t47.5 -19q34 0 51.5 20t20.5 49h52q0 -57 -33.5 -91t-90.5 -34q-62 0 -93 36t-31 89z"/>
            <glyph glyph-name="abreve" unicode="&#x103;" horiz-adv-x="612"
                   d="M181 689h52q6 -31 24.5 -50t47.5 -19q34 0 51.5 20t20.5 49h52q0 -57 -33.5 -91t-90.5 -34q-62 0 -93 36t-31 89zM531 467v-467h-67v80q-25 -43 -74 -66.5t-102 -23.5q-102 0 -170.5 68t-68.5 177t68.5 175.5t170.5 66.5q54 0 102.5 -22.5t73.5 -64.5v77h67zM116 235
q0 -77 49.5 -127.5t122.5 -50.5q75 0 125.5 47t50.5 131q0 82 -53.5 128.5t-122.5 46.5q-74 0 -123 -48t-49 -127z"/>
            <glyph glyph-name="Aogonek" unicode="&#x104;" horiz-adv-x="638"
                   d="M455 243l-136 354l-136 -354h272zM521 -68l27 68l-70 181h-319l-69 -181h-71l265 689h70l265 -689h-27l-25 -89q-5 -19 1.5 -36t23.5 -25q17 -7 34 1t25 25q4 7 4 19l53 4q0 -21 -9 -43q-17 -38 -52.5 -53.5t-73.5 0.5q-39 16 -54 52.5t2 76.5z"/>
            <glyph glyph-name="aogonek" unicode="&#x105;" horiz-adv-x="612"
                   d="M531 467v-467h-24l-18 -89q-9 -45 25 -61q17 -7 34 1t25 25q4 7 4 19l53 4q0 -21 -9 -43q-17 -38 -52.5 -53.5t-73.5 0.5q-38 15 -51 51.5t-1 77.5l21 68v80q-25 -43 -74 -66.5t-102 -23.5q-102 0 -170.5 68t-68.5 177t68.5 175.5t170.5 66.5q54 0 102.5 -22.5
t73.5 -64.5v77h67zM116 235q0 -77 49.5 -127.5t122.5 -50.5q75 0 125.5 47t50.5 131q0 82 -53.5 128.5t-122.5 46.5q-74 0 -123 -48t-49 -127z"/>
            <glyph glyph-name="Cacute" unicode="&#x106;" horiz-adv-x="664"
                   d="M588 140l46 -47q-101 -103 -246 -103t-239.5 102t-94.5 251q0 148 95 251t239 103t245 -103l-46 -46q-83 83 -199 83q-118 0 -193 -83t-75 -205q0 -121 75.5 -204t192.5 -83q118 0 200 84zM469 911l-84 -134h-68l70 134h82z"/>
            <glyph glyph-name="cacute" unicode="&#x107;" horiz-adv-x="504"
                   d="M414 101l48 -47q-69 -64 -169 -64q-102 0 -173 68t-71 177q0 108 70.5 175t173.5 67q99 0 168 -63l-47 -47q-50 44 -121 44q-75 0 -126.5 -48.5t-51.5 -127.5t51.5 -129t126.5 -50q71 0 121 45zM360 689l-84 -134h-68l70 134h82z"/>
            <glyph glyph-name="Ccircumflex" unicode="&#x108;" horiz-adv-x="664"
                   d="M588 140l46 -47q-101 -103 -246 -103t-239.5 102t-94.5 251q0 148 95 251t239 103t245 -103l-46 -46q-83 83 -199 83q-118 0 -193 -83t-75 -205q0 -121 75.5 -204t192.5 -83q118 0 200 84zM450 777l-71 86l-70 -86h-68l95 134h87l95 -134h-68z"/>
            <glyph glyph-name="ccircumflex" unicode="&#x109;" horiz-adv-x="504"
                   d="M414 101l48 -47q-69 -64 -169 -64q-102 0 -173 68t-71 177q0 108 70.5 175t173.5 67q99 0 168 -63l-47 -47q-50 44 -121 44q-75 0 -126.5 -48.5t-51.5 -127.5t51.5 -129t126.5 -50q71 0 121 45zM348 555l-71 86l-70 -86h-68l95 134h87l95 -134h-68z"/>
            <glyph glyph-name="Cdotaccent" unicode="&#x10a;" horiz-adv-x="664"
                   d="M588 140l46 -47q-101 -103 -246 -103t-239.5 102t-94.5 251q0 148 95 251t239 103t245 -103l-46 -46q-83 83 -199 83q-118 0 -193 -83t-75 -205q0 -121 75.5 -204t192.5 -83q118 0 200 84zM316 863q0 21 15 34.5t36 13.5t36 -13.5t15 -34.5t-15 -34.5t-36 -13.5t-36 13.5
t-15 34.5z"/>
            <glyph glyph-name="cdotaccent" unicode="&#x10b;" horiz-adv-x="504"
                   d="M414 101l48 -47q-69 -64 -169 -64q-102 0 -173 68t-71 177q0 108 70.5 175t173.5 67q99 0 168 -63l-47 -47q-50 44 -121 44q-75 0 -126.5 -48.5t-51.5 -127.5t51.5 -129t126.5 -50q71 0 121 45zM235 641q0 21 15 34.5t36 13.5t36 -13.5t15 -34.5t-15 -34.5t-36 -13.5
t-36 13.5t-15 34.5z"/>
            <glyph glyph-name="Ccaron" unicode="&#x10c;" horiz-adv-x="664"
                   d="M588 140l46 -47q-101 -103 -246 -103t-239.5 102t-94.5 251q0 148 95 251t239 103t245 -103l-46 -46q-83 83 -199 83q-118 0 -193 -83t-75 -205q0 -121 75.5 -204t192.5 -83q118 0 200 84zM301 911l71 -86l70 86h68l-95 -134h-87l-95 134h68z"/>
            <glyph glyph-name="ccaron" unicode="&#x10d;" horiz-adv-x="504"
                   d="M414 101l48 -47q-69 -64 -169 -64q-102 0 -173 68t-71 177q0 108 70.5 175t173.5 67q99 0 168 -63l-47 -47q-50 44 -121 44q-75 0 -126.5 -48.5t-51.5 -127.5t51.5 -129t126.5 -50q71 0 121 45zM204 689l71 -86l70 86h68l-95 -134h-87l-95 134h68z"/>
            <glyph glyph-name="Dcaron" unicode="&#x10e;" horiz-adv-x="722"
                   d="M359 0h-259v689h259q143 0 224 -97t81 -249q0 -151 -81 -247t-224 -96zM166 623v-557h193q115 0 177 76.5t62 200.5t-62 202t-177 78h-193zM282 911l71 -86l70 86h68l-95 -134h-87l-95 134h68z"/>
            <glyph glyph-name="dcaron" unicode="&#x10f;" horiz-adv-x="612"
                   d="M531 720v-720h-67v80q-25 -43 -74 -66.5t-102 -23.5q-102 0 -170.5 68t-68.5 177t68.5 175.5t170.5 66.5q54 0 102.5 -22.5t73.5 -64.5v330h67zM116 235q0 -77 49.5 -127.5t122.5 -50.5q75 0 125.5 47t50.5 131q0 82 -53.5 128.5t-122.5 46.5q-74 0 -123 -48t-49 -127z
M623 524l-48 13q56 80 43 160h76q0 -117 -71 -173z"/>
            <glyph glyph-name="Dcroat" unicode="&#x110;" horiz-adv-x="727"
                   d="M364 0h-259v314h-98v61h98v314h259q143 0 224 -97t81 -249q0 -151 -81 -247t-224 -96zM171 375h172v-61h-172v-248h193q115 0 177 76.5t62 200.5t-62 202t-177 78h-193v-248z"/>
            <glyph glyph-name="dcroat" unicode="&#x111;" horiz-adv-x="612"
                   d="M116 235q0 -77 49.5 -127.5t122.5 -50.5q75 0 125.5 47t50.5 131q0 82 -53.5 128.5t-122.5 46.5q-74 0 -123 -48t-49 -127zM464 390v185h-158v50h158v95h67v-95h82v-50h-82v-575h-67v80q-25 -43 -74 -66.5t-102 -23.5q-102 0 -170.5 68t-68.5 177t68.5 175.5t170.5 66.5
q54 0 102.5 -22.5t73.5 -64.5z"/>
            <glyph glyph-name="Emacron" unicode="&#x112;" horiz-adv-x="559"
                   d="M100 689h393v-66h-327v-252h286v-66h-286v-239h338v-66h-404v689zM163 891h238v-63h-238v63z"/>
            <glyph glyph-name="emacron" unicode="&#x113;" horiz-adv-x="557"
                   d="M285 -10q-101 0 -168.5 68t-67.5 177t67 175.5t169 66.5q101 0 165 -66t64 -176q0 -22 -1 -31h-396q8 -67 55 -107.5t113 -40.5q100 0 146 81q11 -3 34.5 -8t32.5 -7q-29 -63 -85 -97.5t-128 -34.5zM117 266h329q-10 67 -53 106t-108 39q-66 0 -112 -39.5t-56 -105.5z
M162 669h238v-63h-238v63z"/>
            <glyph glyph-name="Ebreve" unicode="&#x114;" horiz-adv-x="559"
                   d="M100 689h393v-66h-327v-252h286v-66h-286v-239h338v-66h-404v689zM158 911h52q6 -31 24.5 -50t47.5 -19q34 0 51.5 20t20.5 49h52q0 -57 -33.5 -91t-90.5 -34q-62 0 -93 36t-31 89z"/>
            <glyph glyph-name="ebreve" unicode="&#x115;" horiz-adv-x="557"
                   d="M285 -10q-101 0 -168.5 68t-67.5 177t67 175.5t169 66.5q101 0 165 -66t64 -176q0 -22 -1 -31h-396q8 -67 55 -107.5t113 -40.5q100 0 146 81q11 -3 34.5 -8t32.5 -7q-29 -63 -85 -97.5t-128 -34.5zM117 266h329q-10 67 -53 106t-108 39q-66 0 -112 -39.5t-56 -105.5z
M157 689h52q6 -31 24.5 -50t47.5 -19q34 0 51.5 20t20.5 49h52q0 -57 -33.5 -91t-90.5 -34q-62 0 -93 36t-31 89z"/>
            <glyph glyph-name="Edotaccent" unicode="&#x116;" horiz-adv-x="559"
                   d="M100 689h393v-66h-327v-252h286v-66h-286v-239h338v-66h-404v689zM251 863q0 21 15 34.5t36 13.5t36 -13.5t15 -34.5t-15 -34.5t-36 -13.5t-36 13.5t-15 34.5z"/>
            <glyph glyph-name="edotaccent" unicode="&#x117;" horiz-adv-x="557"
                   d="M285 -10q-101 0 -168.5 68t-67.5 177t67 175.5t169 66.5q101 0 165 -66t64 -176q0 -22 -1 -31h-396q8 -67 55 -107.5t113 -40.5q100 0 146 81q11 -3 34.5 -8t32.5 -7q-29 -63 -85 -97.5t-128 -34.5zM117 266h329q-10 67 -53 106t-108 39q-66 0 -112 -39.5t-56 -105.5z
M230 641q0 21 15 34.5t36 13.5t36 -13.5t15 -34.5t-15 -34.5t-36 -13.5t-36 13.5t-15 34.5z"/>
            <glyph glyph-name="Eogonek" unicode="&#x118;" horiz-adv-x="559"
                   d="M458 0h-358v689h393v-66h-327v-252h286v-66h-286v-239h338v-66l-38 -89q-8 -17 -0.5 -35t25.5 -26q17 -7 34 1t25 25q4 7 4 19l53 4q0 -21 -9 -43q-17 -38 -52.5 -53.5t-73.5 0.5q-41 16 -57 53.5t5 75.5z"/>
            <glyph glyph-name="eogonek" unicode="&#x119;"
                   d="M334 -89q-7 -17 0 -35t25 -26q17 -7 34 1t25 25q4 7 4 19h53q0 -20 -9 -39q-17 -38 -52.5 -53.5t-73.5 0.5q-41 16 -57.5 54.5t5.5 74.5l41 64q-14 -6 -44 -6q-101 0 -168.5 68t-67.5 177t67 175.5t169 66.5q101 0 165 -66t64 -176q0 -22 -1 -31h-396q8 -67 55 -107.5
t113 -40.5q100 0 146 81q11 -3 34.5 -8t32.5 -7q-7 -15 -23 -32t-39.5 -39.5t-37.5 -38.5q-46 -51 -64 -101zM117 266h329q-10 67 -53 106t-108 39q-66 0 -112 -39.5t-56 -105.5z"/>
            <glyph glyph-name="Ecaron" unicode="&#x11a;" horiz-adv-x="559"
                   d="M100 689h393v-66h-327v-252h286v-66h-286v-239h338v-66h-404v689zM228 911l71 -86l70 86h68l-95 -134h-87l-95 134h68z"/>
            <glyph glyph-name="ecaron" unicode="&#x11b;" horiz-adv-x="557"
                   d="M285 -10q-101 0 -168.5 68t-67.5 177t67 175.5t169 66.5q101 0 165 -66t64 -176q0 -22 -1 -31h-396q8 -67 55 -107.5t113 -40.5q100 0 146 81q11 -3 34.5 -8t32.5 -7q-29 -63 -85 -97.5t-128 -34.5zM117 266h329q-10 67 -53 106t-108 39q-66 0 -112 -39.5t-56 -105.5z
M211 689l71 -86l70 86h68l-95 -134h-87l-95 134h68z"/>
            <glyph glyph-name="Gcircumflex" unicode="&#x11c;" horiz-adv-x="756"
                   d="M445 338h275q0 -172 -84.5 -260t-235.5 -88q-146 0 -246 102.5t-100 250.5q0 147 100 250.5t246 103.5q126 0 220 -80l-47 -47q-74 61 -173 61q-119 0 -199.5 -83.5t-80.5 -204.5q0 -120 80.5 -203.5t199.5 -83.5q111 0 175.5 58.5t70.5 161.5h-201v62zM453 777l-71 86
l-70 -86h-68l95 134h87l95 -134h-68z"/>
            <glyph glyph-name="gcircumflex" unicode="&#x11d;" horiz-adv-x="611"
                   d="M116 232q0 -79 49 -127t123 -48q69 0 122.5 46.5t53.5 128.5q0 84 -50.5 131t-125.5 47q-73 0 -122.5 -50.5t-49.5 -127.5zM80 -117l57 33q51 -83 144 -83q184 0 184 241l-1 11q-22 -43 -72.5 -69t-103.5 -26q-102 0 -170.5 66.5t-68.5 175.5t68.5 177t170.5 68
q53 0 102 -23.5t74 -66.5v80h67v-393q0 -307 -250 -307q-61 0 -114 29t-87 87zM375 555l-71 86l-70 -86h-68l95 134h87l95 -134h-68z"/>
            <glyph glyph-name="Gbreve" unicode="&#x11e;" horiz-adv-x="756"
                   d="M445 338h275q0 -172 -84.5 -260t-235.5 -88q-146 0 -246 102.5t-100 250.5q0 147 100 250.5t246 103.5q126 0 220 -80l-47 -47q-74 61 -173 61q-119 0 -199.5 -83.5t-80.5 -204.5q0 -120 80.5 -203.5t199.5 -83.5q111 0 175.5 58.5t70.5 161.5h-201v62zM259 911h52
q6 -31 24.5 -50t47.5 -19q34 0 51.5 20t20.5 49h52q0 -57 -33.5 -91t-90.5 -34q-62 0 -93 36t-31 89z"/>
            <glyph glyph-name="gbreve" unicode="&#x11f;" horiz-adv-x="611"
                   d="M116 232q0 -79 49 -127t123 -48q69 0 122.5 46.5t53.5 128.5q0 84 -50.5 131t-125.5 47q-73 0 -122.5 -50.5t-49.5 -127.5zM80 -117l57 33q51 -83 144 -83q88 0 135.5 58t47.5 194q-22 -43 -72.5 -69t-103.5 -26q-102 0 -170.5 66.5t-68.5 175.5t68.5 177t170.5 68
q53 0 102 -23.5t74 -66.5v80h67v-393q0 -307 -250 -307q-61 0 -114 29t-87 87zM181 689h52q6 -31 24.5 -50t47.5 -19q34 0 51.5 20t20.5 49h52q0 -57 -33.5 -91t-90.5 -34q-62 0 -93 36t-31 89z"/>
            <glyph glyph-name="Gdotaccent" unicode="&#x120;" horiz-adv-x="756"
                   d="M445 338h275q0 -172 -84.5 -260t-235.5 -88q-146 0 -246 102.5t-100 250.5q0 147 100 250.5t246 103.5q126 0 220 -80l-47 -47q-74 61 -173 61q-119 0 -199.5 -83.5t-80.5 -204.5q0 -120 80.5 -203.5t199.5 -83.5q111 0 175.5 58.5t70.5 161.5h-201v62zM332 863
q0 21 15 34.5t36 13.5t36 -13.5t15 -34.5t-15 -34.5t-36 -13.5t-36 13.5t-15 34.5z"/>
            <glyph glyph-name="gdotaccent" unicode="&#x121;" horiz-adv-x="611"
                   d="M116 232q0 -79 49 -127t123 -48q69 0 122.5 46.5t53.5 128.5q0 84 -50.5 131t-125.5 47q-73 0 -122.5 -50.5t-49.5 -127.5zM80 -117l57 33q51 -83 144 -83q88 0 135.5 58t47.5 194q-22 -43 -72.5 -69t-103.5 -26q-102 0 -170.5 66.5t-68.5 175.5t68.5 177t170.5 68
q53 0 102 -23.5t74 -66.5v80h67v-393q0 -307 -250 -307q-61 0 -114 29t-87 87zM254 641q0 21 15 34.5t36 13.5t36 -13.5t15 -34.5t-15 -34.5t-36 -13.5t-36 13.5t-15 34.5z"/>
            <glyph glyph-name="Gcommaaccent" unicode="&#x122;" horiz-adv-x="756"
                   d="M445 338h275q0 -172 -84.5 -260t-235.5 -88q-146 0 -246 102.5t-100 250.5q0 147 100 250.5t246 103.5q126 0 220 -80l-47 -47q-74 61 -173 61q-119 0 -199.5 -83.5t-80.5 -204.5q0 -120 80.5 -203.5t199.5 -83.5q111 0 175.5 58.5t70.5 161.5h-201v62zM371 -247l-48 13
q57 82 43 170h76q1 -122 -71 -183z"/>
            <glyph glyph-name="gcommaaccent" unicode="&#x123;" horiz-adv-x="611"
                   d="M116 232q0 -79 49 -127t123 -48q69 0 122.5 46.5t53.5 128.5q0 84 -50.5 131t-125.5 47q-73 0 -122.5 -50.5t-49.5 -127.5zM80 -117l57 33q51 -83 144 -83q88 0 135.5 58t47.5 194q-22 -43 -72.5 -69t-103.5 -26q-102 0 -170.5 66.5t-68.5 175.5t68.5 177t170.5 68
q53 0 102 -23.5t74 -66.5v80h67v-393q0 -307 -250 -307q-61 0 -114 29t-87 87zM304 718l48 -13q-57 -82 -43 -170h-76q-1 122 71 183z"/>
            <glyph glyph-name="Hcircumflex" unicode="&#x124;" horiz-adv-x="710"
                   d="M610 689v-689h-66v311h-378v-311h-66v689h66v-316h378v316h66zM425 777l-71 86l-70 -86h-68l95 134h87l95 -134h-68z"/>
            <glyph glyph-name="hcircumflex" unicode="&#x125;"
                   d="M148 255v-255h-67v720h67v-330q20 43 65 65t90 22q86 0 133.5 -54.5t46.5 -150.5v-272h-67v272q0 66 -29.5 102.5t-83.5 36.5q-63 0 -109 -38.5t-46 -117.5zM184 757l-71 86l-70 -86h-68l95 134h87l95 -134h-68z"/>
            <glyph glyph-name="Hbar" unicode="&#x126;" horiz-adv-x="722"
                   d="M616 567h73v-54h-73v-513h-66v311h-378v-311h-66v513h-72v54h72v122h66v-122h378v122h66v-122zM172 373h378v140h-378v-140z"/>
            <glyph glyph-name="hbar" unicode="&#x127;"
                   d="M148 576v-186q20 43 65 65t90 22q86 0 133.5 -54.5t46.5 -150.5v-272h-67v272q0 66 -29.5 102.5t-83.5 36.5q-63 0 -109 -38.5t-46 -117.5v-255h-67v576h-82v49h82v95h67v-95h158v-49h-158z"/>
            <glyph glyph-name="Itilde" unicode="&#x128;" horiz-adv-x="266"
                   d="M166 689v-689h-66v689h66zM88 848q-12 0 -22.5 -11.5t-11.5 -33.5h-51q3 57 27.5 82.5t57.5 25.5q24 0 51 -21t40 -21q12 0 22.5 10t11.5 32h51q-3 -56 -28 -80.5t-57 -24.5q-24 0 -51 21t-40 21z"/>
            <glyph glyph-name="itilde" unicode="&#x129;" horiz-adv-x="228"
                   d="M147 467v-467h-66v467h66zM70 626q-12 0 -22.5 -11.5t-11.5 -33.5h-51q3 57 27.5 82.5t57.5 25.5q24 0 51 -21t40 -21q12 0 22.5 10t11.5 32h51q-3 -56 -28 -80.5t-57 -24.5q-24 0 -51 21t-40 21z"/>
            <glyph glyph-name="Imacron" unicode="&#x12a;" horiz-adv-x="266"
                   d="M166 689v-689h-66v689h66zM14 891h238v-63h-238v63z"/>
            <glyph glyph-name="imacron" unicode="&#x12b;" horiz-adv-x="228"
                   d="M147 467v-467h-66v467h66zM-4 669h238v-63h-238v63z"/>
            <glyph glyph-name="Ibreve" unicode="&#x12c;" horiz-adv-x="266"
                   d="M166 689v-689h-66v689h66zM9 911h52q6 -31 24.5 -50t47.5 -19q34 0 51.5 20t20.5 49h52q0 -57 -33.5 -91t-90.5 -34q-62 0 -93 36t-31 89z"/>
            <glyph glyph-name="ibreve" unicode="&#x12d;" horiz-adv-x="228"
                   d="M147 467v-467h-66v467h66zM-9 689h52q6 -31 24.5 -50t47.5 -19q34 0 51.5 20t20.5 49h52q0 -57 -33.5 -91t-90.5 -34q-62 0 -93 36t-31 89z"/>
            <glyph glyph-name="Iogonek" unicode="&#x12e;" horiz-adv-x="266"
                   d="M100 0v689h66v-689h-32l-16 -89q-9 -45 25 -61q17 -7 34 1t25 25q4 7 4 19l53 4q0 -21 -9 -43q-17 -38 -52.5 -53.5t-73.5 0.5q-39 16 -54 52.5t2 76.5z"/>
            <glyph glyph-name="iogonek" unicode="&#x12f;" horiz-adv-x="228"
                   d="M81 0v467h66v-467h-30l-18 -89q-9 -45 25 -61q17 -7 34 1t25 25q4 7 4 19l53 4q0 -21 -9 -43q-17 -38 -52.5 -53.5t-73.5 0.5q-39 16 -54 52.5t2 76.5zM64 641q0 21 15 34.5t36 13.5t36 -13.5t15 -34.5t-15 -34.5t-36 -13.5t-36 13.5t-15 34.5z"/>
            <glyph glyph-name="Idotaccent" unicode="&#x130;" horiz-adv-x="266"
                   d="M166 689v-689h-66v689h66zM82 863q0 21 15 34.5t36 13.5t36 -13.5t15 -34.5t-15 -34.5t-36 -13.5t-36 13.5t-15 34.5z"/>
            <glyph glyph-name="dotlessi" unicode="&#x131;" horiz-adv-x="228"
                   d="M147 467v-467h-66v467h66z"/>
            <glyph glyph-name="IJ" unicode="&#x132;" horiz-adv-x="532"
                   d="M166 689v-689h-66v689h66zM165 -250l6 65q21 -7 56 -7q71 0 105 42.5t34 110.5v728h66v-728q0 -97 -50 -158t-155 -61q-28 0 -62 8z"/>
            <glyph glyph-name="ij" unicode="&#x133;" horiz-adv-x="457"
                   d="M147 467v-467h-66v467h66zM64 641q0 21 15 34.5t36 13.5t36 -13.5t15 -34.5t-15 -34.5t-36 -13.5t-36 13.5t-15 34.5zM292 641q0 21 15 34.5t36 13.5t36 -13.5t15 -34.5t-15 -34.5t-36 -13.5t-36 13.5t-15 34.5zM163 -226v63h50q26 0 44.5 8.5t28 21t15 32t7 36t1.5 38.5
v494h67v-494q0 -199 -163 -199h-50z"/>
            <glyph glyph-name="Jcircumflex" unicode="&#x134;" horiz-adv-x="266"
                   d="M-101 -250l6 65q21 -7 56 -7q71 0 105 42.5t34 110.5v728h66v-728q0 -97 -50 -158t-155 -61q-28 0 -62 8zM193 777l-71 86l-70 -86h-68l95 134h87l95 -134h-68z"/>
            <glyph glyph-name="jcircumflex" unicode="&#x135;" horiz-adv-x="229"
                   d="M-65 -226v63h50q26 0 44.5 8.5t28 21t15 32t7 36t1.5 38.5v494h67v-494q0 -199 -163 -199h-50zM186 555l-71 86l-70 -86h-68l95 134h87l95 -134h-68z"/>
            <glyph glyph-name="Kcommaaccent" unicode="&#x136;"
                   d="M236 344l326 -344h-89l-307 324v-324h-66v689h66v-335l260 335h78zM291 -247l-48 13q57 82 43 170h76q1 -122 -71 -183z"/>
            <glyph glyph-name="kcommaaccent" unicode="&#x137;" horiz-adv-x="485"
                   d="M147 255v-255h-66v720h66v-438l185 185h94l-200 -200l253 -267h-91zM232 -247l-48 13q57 82 43 170h76q1 -122 -71 -183z"/>
            <glyph glyph-name="kgreenlandic" unicode="&#x138;" horiz-adv-x="479"
                   d="M147 219v-219h-66v467h66v-220l210 220h87l-218 -231l238 -236h-92z"/>
            <glyph glyph-name="Lacute" unicode="&#x139;" horiz-adv-x="487"
                   d="M100 689h66v-623h292v-66h-358v689zM252 911l-84 -134h-68l70 134h82z"/>
            <glyph glyph-name="lacute" unicode="&#x13a;" horiz-adv-x="228"
                   d="M147 720v-720h-66v720h66zM235 911l-84 -134h-68l70 134h82z"/>
            <glyph glyph-name="Lcommaaccent" unicode="&#x13b;" horiz-adv-x="487"
                   d="M100 689h66v-623h292v-66h-358v689zM237 -247l-48 13q57 82 43 170h76q1 -122 -71 -183z"/>
            <glyph glyph-name="lcommaaccent" unicode="&#x13c;" horiz-adv-x="228"
                   d="M147 720v-720h-66v720h66zM83 -247l-48 13q57 82 43 170h76q1 -122 -71 -183z"/>
            <glyph glyph-name="Lcaron" unicode="&#x13d;" horiz-adv-x="487"
                   d="M100 689h66v-623h292v-66h-358v689zM295 476l-48 13q59 85 58 200h76q-6 -74 -30.5 -130.5t-55.5 -82.5z"/>
            <glyph glyph-name="lcaron" unicode="&#x13e;" horiz-adv-x="228"
                   d="M147 720v-720h-66v720h66zM239 484l-48 13q59 85 58 200h76q-6 -74 -30.5 -130.5t-55.5 -82.5z"/>
            <glyph glyph-name="Ldot" unicode="&#x13f;" horiz-adv-x="487"
                   d="M100 689h66v-623h292v-66h-358v689zM260 263q0 23 15.5 37.5t39.5 14.5t39.5 -14.5t15.5 -37.5t-15.5 -37.5t-39.5 -14.5t-39.5 14.5t-15.5 37.5z"/>
            <glyph glyph-name="ldot" unicode="&#x140;" horiz-adv-x="314"
                   d="M147 720v-720h-66v720h66zM203 263q0 23 15.5 37.5t39.5 14.5t39.5 -14.5t15.5 -37.5t-15.5 -37.5t-39.5 -14.5t-39.5 14.5t-15.5 37.5z"/>
            <glyph glyph-name="Lslash" unicode="&#x141;" horiz-adv-x="493"
                   d="M172 437l108 68v-59l-108 -68v-312h292v-66h-358v336l-68 -42v59l68 42v294h66v-252z"/>
            <glyph glyph-name="lslash" unicode="&#x142;" horiz-adv-x="241"
                   d="M156 433l82 53v-59l-82 -53v-374h-66v332l-72 -46v59l72 46v329h66v-287z"/>
            <glyph glyph-name="Nacute" unicode="&#x143;" horiz-adv-x="685"
                   d="M585 0h-68l-351 577v-577h-66v689h71l348 -573v573h66v-689zM461 911l-84 -134h-68l70 134h82z"/>
            <glyph glyph-name="nacute" unicode="&#x144;"
                   d="M148 255v-255h-67v467h67v-77q20 43 65 65t90 22q86 0 133.5 -54.5t46.5 -150.5v-272h-67v272q0 66 -29.5 102.5t-83.5 36.5q-63 0 -109 -38.5t-46 -117.5zM385 689l-84 -134h-68l70 134h82z"/>
            <glyph glyph-name="Ncommaaccent" unicode="&#x145;" horiz-adv-x="685"
                   d="M585 0h-68l-351 577v-577h-66v689h71l348 -573v573h66v-689zM312 -247l-48 13q57 82 43 170h76q1 -122 -71 -183z"/>
            <glyph glyph-name="ncommaaccent" unicode="&#x146;"
                   d="M148 255v-255h-67v467h67v-77q20 43 65 65t90 22q86 0 133.5 -54.5t46.5 -150.5v-272h-67v272q0 66 -29.5 102.5t-83.5 36.5q-63 0 -109 -38.5t-46 -117.5zM249 -247l-48 13q57 82 43 170h76q1 -122 -71 -183z"/>
            <glyph glyph-name="Ncaron" unicode="&#x147;" horiz-adv-x="685"
                   d="M585 0h-68l-351 577v-577h-66v689h71l348 -573v573h66v-689zM272 911l71 -86l70 86h68l-95 -134h-87l-95 134h68z"/>
            <glyph glyph-name="ncaron" unicode="&#x148;"
                   d="M148 255v-255h-67v467h67v-77q20 43 65 65t90 22q86 0 133.5 -54.5t46.5 -150.5v-272h-67v272q0 66 -29.5 102.5t-83.5 36.5q-63 0 -109 -38.5t-46 -117.5zM209 689l71 -86l70 86h68l-95 -134h-87l-95 134h68z"/>
            <glyph glyph-name="napostrophe" unicode="&#x149;"
                   d="M148 255v-255h-67v467h67v-77q20 43 65 65t90 22q86 0 133.5 -54.5t46.5 -150.5v-272h-67v272q0 66 -29.5 102.5t-83.5 36.5q-63 0 -109 -38.5t-46 -117.5zM21 485l-48 13q56 80 43 160h76q0 -117 -71 -173z"/>
            <glyph glyph-name="Eng" unicode="&#x14a;" horiz-adv-x="685"
                   d="M519 -39v39l-353 577v-577h-66v689h71l348 -578v578h66v-689v-39q0 -97 -50 -158t-155 -61q-28 0 -62 8l6 65q21 -7 56 -7q71 0 105 42.5t34 110.5z"/>
            <glyph glyph-name="eng" unicode="&#x14b;"
                   d="M416 -14v286q0 66 -29.5 102.5t-83.5 36.5q-63 0 -109 -38.5t-46 -117.5v-255h-67v467h67v-77q20 43 65 65t90 22q86 0 133.5 -54.5t46.5 -150.5v-247v-39q0 -97 -50 -158t-155 -61q-28 0 -62 8l6 65q21 -7 56 -7q72 0 105 42t33 111z"/>
            <glyph glyph-name="Omacron" unicode="&#x14c;" horiz-adv-x="801"
                   d="M54 343q0 147 100 250.5t246 103.5t246.5 -103.5t100.5 -250.5q0 -148 -100.5 -250.5t-246.5 -102.5t-246 102.5t-100 250.5zM120 343q0 -120 80.5 -203.5t199.5 -83.5t200 83.5t81 203.5q0 121 -81 204.5t-200 83.5t-199.5 -83.5t-80.5 -204.5zM281 891h238v-63h-238v63
z"/>
            <glyph glyph-name="omacron" unicode="&#x14d;" horiz-adv-x="586"
                   d="M293 -10q-102 0 -173 68t-71 177q0 108 70.5 175t173.5 67t173.5 -67t70.5 -175q0 -109 -71 -177t-173 -68zM293 56q75 0 126.5 50t51.5 129t-51.5 127.5t-126.5 48.5t-126.5 -48.5t-51.5 -127.5t51.5 -129t126.5 -50zM174 669h238v-63h-238v63z"/>
            <glyph glyph-name="Obreve" unicode="&#x14e;" horiz-adv-x="801"
                   d="M54 343q0 147 100 250.5t246 103.5t246.5 -103.5t100.5 -250.5q0 -148 -100.5 -250.5t-246.5 -102.5t-246 102.5t-100 250.5zM120 343q0 -120 80.5 -203.5t199.5 -83.5t200 83.5t81 203.5q0 121 -81 204.5t-200 83.5t-199.5 -83.5t-80.5 -204.5zM276 911h52
q6 -31 24.5 -50t47.5 -19q34 0 51.5 20t20.5 49h52q0 -57 -33.5 -91t-90.5 -34q-62 0 -93 36t-31 89z"/>
            <glyph glyph-name="obreve" unicode="&#x14f;" horiz-adv-x="586"
                   d="M293 -10q-102 0 -173 68t-71 177q0 108 70.5 175t173.5 67t173.5 -67t70.5 -175q0 -109 -71 -177t-173 -68zM293 56q75 0 126.5 50t51.5 129t-51.5 127.5t-126.5 48.5t-126.5 -48.5t-51.5 -127.5t51.5 -129t126.5 -50zM169 689h52q6 -31 24.5 -50t47.5 -19q34 0 51.5 20
t20.5 49h52q0 -57 -33.5 -91t-90.5 -34q-62 0 -93 36t-31 89z"/>
            <glyph glyph-name="Ohungarumlaut" unicode="&#x150;" horiz-adv-x="801"
                   d="M54 343q0 147 100 250.5t246 103.5t246.5 -103.5t100.5 -250.5q0 -148 -100.5 -250.5t-246.5 -102.5t-246 102.5t-100 250.5zM120 343q0 -120 80.5 -203.5t199.5 -83.5t200 83.5t81 203.5q0 121 -81 204.5t-200 83.5t-199.5 -83.5t-80.5 -204.5zM566 911l-84 -134h-68
l70 134h82zM436 911l-70 -134h-72l68 134h74z"/>
            <glyph glyph-name="ohungarumlaut" unicode="&#x151;" horiz-adv-x="586"
                   d="M293 -10q-102 0 -173 68t-71 177q0 108 70.5 175t173.5 67t173.5 -67t70.5 -175q0 -109 -71 -177t-173 -68zM293 56q75 0 126.5 50t51.5 129t-51.5 127.5t-126.5 48.5t-126.5 -48.5t-51.5 -127.5t51.5 -129t126.5 -50zM453 689l-84 -134h-68l70 134h82zM323 689l-70 -134
h-72l68 134h74z"/>
            <glyph glyph-name="OE" unicode="&#x152;" horiz-adv-x="1140"
                   d="M681 689h393v-66h-327v-252h286v-66h-286v-239h338v-66h-404v134q-49 -67 -122 -105.5t-159 -38.5q-146 0 -246 102.5t-100 250.5q0 147 100 250.5t246 103.5q86 0 159 -38.5t122 -105.5v136zM120 343q0 -120 80.5 -203.5t199.5 -83.5q116 0 196.5 79.5t84.5 195.5v24
q-4 116 -84.5 196t-196.5 80q-119 0 -199.5 -83.5t-80.5 -204.5z"/>
            <glyph glyph-name="oe" unicode="&#x153;" horiz-adv-x="979"
                   d="M707 -10q-67 0 -120.5 30.5t-83.5 84.5q-32 -54 -88 -84.5t-122 -30.5q-102 0 -173 68t-71 177q0 108 70.5 175t173.5 67q67 0 122.5 -29.5t87.5 -83.5q30 54 83.5 83.5t120.5 29.5q101 0 165 -66t64 -176q0 -22 -1 -31h-396q8 -67 55 -107.5t113 -40.5q100 0 146 81
q11 -3 34.5 -8t32.5 -7q-29 -63 -85 -97.5t-128 -34.5zM293 56q73 0 123.5 47t54.5 124v8q0 79 -51.5 127.5t-126.5 48.5t-126.5 -48.5t-51.5 -127.5t51.5 -129t126.5 -50zM539 266h329q-10 67 -53 106t-108 39q-66 0 -112 -39.5t-56 -105.5z"/>
            <glyph glyph-name="Racute" unicode="&#x154;" horiz-adv-x="608"
                   d="M364 269l190 -269h-81l-190 269h-116v-269h-67v689h256q98 0 144.5 -60.5t46.5 -150.5q0 -86 -45 -146.5t-138 -62.5zM356 623h-189v-288h184q68 0 99 41t31 102t-30.5 103t-94.5 42zM381 911l-84 -134h-68l70 134h82z"/>
            <glyph glyph-name="racute" unicode="&#x155;" horiz-adv-x="377"
                   d="M358 459l-8 -65q-33 16 -68 16q-67 0 -100.5 -67.5t-33.5 -168.5v-174h-67v467h67v-106q33 116 134 116q23 0 46 -6t30 -12zM239 689l-84 -134h-68l70 134h82z"/>
            <glyph glyph-name="Rcommaaccent" unicode="&#x156;" horiz-adv-x="608"
                   d="M364 269l190 -269h-81l-190 269h-116v-269h-67v689h256q98 0 144.5 -60.5t46.5 -150.5q0 -86 -45 -146.5t-138 -62.5zM356 623h-189v-288h184q68 0 99 41t31 102t-30.5 103t-94.5 42zM293 -247l-48 13q57 82 43 170h76q1 -122 -71 -183z"/>
            <glyph glyph-name="rcommaaccent" unicode="&#x157;" horiz-adv-x="377"
                   d="M358 459l-8 -65q-33 16 -68 16q-67 0 -100.5 -67.5t-33.5 -168.5v-174h-67v467h67v-106q33 116 134 116q23 0 46 -6t30 -12zM84 -247l-48 13q57 82 43 170h76q1 -122 -71 -183z"/>
            <glyph glyph-name="Rcaron" unicode="&#x158;" horiz-adv-x="608"
                   d="M364 269l190 -269h-81l-190 269h-116v-269h-67v689h256q98 0 144.5 -60.5t46.5 -150.5q0 -86 -45 -146.5t-138 -62.5zM356 623h-189v-288h184q68 0 99 41t31 102t-30.5 103t-94.5 42zM234 911l71 -86l70 86h68l-95 -134h-87l-95 134h68z"/>
            <glyph glyph-name="rcaron" unicode="&#x159;" horiz-adv-x="377"
                   d="M358 459l-8 -65q-33 16 -68 16q-67 0 -100.5 -67.5t-33.5 -168.5v-174h-67v467h67v-106q33 116 134 116q23 0 46 -6t30 -12zM128 689l71 -86l70 86h68l-95 -134h-87l-95 134h68z"/>
            <glyph glyph-name="Sacute" unicode="&#x15a;" horiz-adv-x="568"
                   d="M57 198h66q0 -55 44 -98.5t113 -43.5q72 0 116 34t53 79q9 59 -28.5 94.5t-102.5 51.5l-93 21q-162 36 -162 173q0 81 65.5 134.5t150.5 53.5q94 0 155 -54t61 -143h-66q0 59 -42.5 95t-107.5 36q-60 0 -105 -35t-45 -87q0 -84 110 -109l94 -21q92 -20 143 -75t38 -147
q-13 -67 -74.5 -117t-159.5 -50q-97 0 -160 64t-63 144zM386 911l-84 -134h-68l70 134h82z"/>
            <glyph glyph-name="sacute" unicode="&#x15b;" horiz-adv-x="424"
                   d="M44 134h59q18 -81 110 -81q45 0 72 20.5t27 53.5q0 56 -67 72l-65 15q-133 30 -118 152q8 50 51 80.5t101 30.5t98 -30t49 -91h-65q-6 26 -28.5 41.5t-53.5 15.5q-34 0 -58.5 -16t-28.5 -41q-12 -58 69 -78l64 -15q118 -28 118 -136q0 -60 -49 -98.5t-122 -38.5
q-63 0 -112 39t-51 105zM313 689l-84 -134h-68l70 134h82z"/>
            <glyph glyph-name="Scircumflex" unicode="&#x15c;" horiz-adv-x="568"
                   d="M57 198h66q0 -55 44 -98.5t113 -43.5q72 0 116 34t53 79q9 59 -28.5 94.5t-102.5 51.5l-93 21q-162 36 -162 173q0 81 65.5 134.5t150.5 53.5q94 0 155 -54t61 -143h-66q0 59 -42.5 95t-107.5 36q-60 0 -105 -35t-45 -87q0 -84 110 -109l94 -21q92 -20 143 -75t38 -147
q-13 -67 -74.5 -117t-159.5 -50q-97 0 -160 64t-63 144zM357 777l-71 86l-70 -86h-68l95 134h87l95 -134h-68z"/>
            <glyph glyph-name="scircumflex" unicode="&#x15d;" horiz-adv-x="424"
                   d="M44 134h59q18 -81 110 -81q45 0 72 20.5t27 53.5q0 56 -67 72l-65 15q-133 30 -118 152q8 50 51 80.5t101 30.5t98 -30t49 -91h-65q-6 26 -28.5 41.5t-53.5 15.5q-34 0 -58.5 -16t-28.5 -41q-12 -58 69 -78l64 -15q118 -28 118 -136q0 -60 -49 -98.5t-122 -38.5
q-63 0 -112 39t-51 105zM283 555l-71 86l-70 -86h-68l95 134h87l95 -134h-68z"/>
            <glyph glyph-name="Scedilla" unicode="&#x15e;" horiz-adv-x="569"
                   d="M57 198h66q0 -55 44 -98.5t113 -43.5q72 0 116 34t53 79q9 59 -28.5 94.5t-102.5 51.5l-93 21q-162 36 -162 173q0 81 65.5 134.5t150.5 53.5q94 0 155 -54t61 -143h-66q0 59 -42.5 95t-107.5 36q-60 0 -105 -35t-45 -87q0 -84 110 -109l94 -21q92 -20 143 -75t38 -147
q-11 -56 -56 -102t-118 -59l29 -64q17 -40 2 -76.5t-54 -52.5q-38 -16 -73.5 -0.5t-52.5 53.5q-9 23 -9 43l53 -4q0 -12 4 -19q8 -17 25 -25t34 -1q18 8 25.5 26t-0.5 35l-30 79h-13q-97 0 -160 64t-63 144z"/>
            <glyph glyph-name="scedilla" unicode="&#x15f;" horiz-adv-x="425"
                   d="M250 -89l-27 80q-3 -1 -15 -1q-63 0 -112 39t-51 105h59q18 -81 110 -81q45 0 72 20.5t27 53.5q0 56 -67 72l-65 15q-133 30 -118 152q8 50 51 80.5t101 30.5t98 -30t49 -91h-65q-6 26 -28.5 41.5t-53.5 15.5q-34 0 -58.5 -16t-28.5 -41q-12 -58 69 -78l64 -15
q118 -28 118 -136q0 -47 -31 -82t-83 -48l31 -65q18 -40 3 -76t-55 -53q-38 -16 -73.5 -0.5t-52.5 53.5q-9 22 -9 43l53 -4q0 -12 4 -19q8 -17 25 -25t34 -1q18 8 24.5 25.5t0.5 35.5z"/>
            <glyph glyph-name="Scaron" unicode="&#x160;" horiz-adv-x="568"
                   d="M57 198h66q0 -55 44 -98.5t113 -43.5q72 0 116 34t53 79q9 59 -28.5 94.5t-102.5 51.5l-93 21q-162 36 -162 173q0 81 65.5 134.5t150.5 53.5q94 0 155 -54t61 -143h-66q0 59 -42.5 95t-107.5 36q-60 0 -105 -35t-45 -87q0 -84 110 -109l94 -21q92 -20 143 -75t38 -147
q-13 -67 -74.5 -117t-159.5 -50q-97 0 -160 64t-63 144zM216 911l71 -86l70 86h68l-95 -134h-87l-95 134h68z"/>
            <glyph glyph-name="scaron" unicode="&#x161;" horiz-adv-x="424"
                   d="M44 134h59q18 -81 110 -81q45 0 72 20.5t27 53.5q0 56 -67 72l-65 15q-133 30 -118 152q8 50 51 80.5t101 30.5t98 -30t49 -91h-65q-6 26 -28.5 41.5t-53.5 15.5q-34 0 -58.5 -16t-28.5 -41q-12 -58 69 -78l64 -15q118 -28 118 -136q0 -60 -49 -98.5t-122 -38.5
q-63 0 -112 39t-51 105zM142 689l71 -86l70 86h68l-95 -134h-87l-95 134h68z"/>
            <glyph glyph-name="Tcommaaccent" unicode="&#x162;" horiz-adv-x="566"
                   d="M29 689h508v-66h-221v-623h-66v623h-221v66zM253 -247l-48 13q57 82 43 170h76q1 -122 -71 -183z"/>
            <glyph glyph-name="tcommaaccent" unicode="&#x163;" horiz-adv-x="308"
                   d="M179 0h-67v407h-84v60h84v175h67v-175h99v-60h-99v-407zM115 -247l-48 13q57 82 43 170h76q1 -122 -71 -183z"/>
            <glyph glyph-name="Tcaron" unicode="&#x164;" horiz-adv-x="566"
                   d="M29 689h508v-66h-221v-623h-66v623h-221v66zM212 911l71 -86l70 86h68l-95 -134h-87l-95 134h68z"/>
            <glyph glyph-name="tcaron" unicode="&#x165;" horiz-adv-x="308"
                   d="M179 0h-67v407h-84v60h84v175h67v-175h99v-60h-99v-407zM261 524l-48 13q56 80 43 160h76q0 -117 -71 -173z"/>
            <glyph glyph-name="Tbar" unicode="&#x166;" horiz-adv-x="566"
                   d="M316 403h139v-53h-139v-350h-66v350h-138v53h138v220h-221v66h508v-66h-221v-220z"/>
            <glyph glyph-name="tbar" unicode="&#x167;" horiz-adv-x="312"
                   d="M181 282h81v-46h-81v-236h-67v236h-73v46h73v125h-84v60h84v175h67v-175h99v-60h-99v-125z"/>
            <glyph glyph-name="Utilde" unicode="&#x168;" horiz-adv-x="674"
                   d="M337 56q75 0 126.5 49t51.5 128v456h66v-456q0 -108 -70.5 -175.5t-173.5 -67.5t-173.5 67.5t-70.5 175.5v456h66v-456q0 -79 51.5 -128t126.5 -49zM291 848q-12 0 -22.5 -11.5t-11.5 -33.5h-51q3 57 27.5 82.5t57.5 25.5q24 0 51 -21t40 -21q12 0 22.5 10t11.5 32h51
q-3 -56 -28 -80.5t-57 -24.5q-24 0 -51 21t-40 21z"/>
            <glyph glyph-name="utilde" unicode="&#x169;"
                   d="M410 212v255h67v-467h-67v77q-20 -43 -65 -65t-90 -22q-86 0 -133.5 54.5t-46.5 150.5v272h67v-272q0 -66 29.5 -102.5t83.5 -36.5q63 0 109 38.5t46 117.5zM240 626q-12 0 -22.5 -11.5t-11.5 -33.5h-51q3 57 27.5 82.5t57.5 25.5q24 0 51 -21t40 -21q12 0 22.5 10
t11.5 32h51q-3 -56 -28 -80.5t-57 -24.5q-24 0 -51 21t-40 21z"/>
            <glyph glyph-name="Umacron" unicode="&#x16a;" horiz-adv-x="674"
                   d="M337 56q75 0 126.5 49t51.5 128v456h66v-456q0 -108 -70.5 -175.5t-173.5 -67.5t-173.5 67.5t-70.5 175.5v456h66v-456q0 -79 51.5 -128t126.5 -49zM218 891h238v-63h-238v63z"/>
            <glyph glyph-name="umacron" unicode="&#x16b;"
                   d="M410 212v255h67v-467h-67v77q-20 -43 -65 -65t-90 -22q-86 0 -133.5 54.5t-46.5 150.5v272h67v-272q0 -66 29.5 -102.5t83.5 -36.5q63 0 109 38.5t46 117.5zM166 669h238v-63h-238v63z"/>
            <glyph glyph-name="Ubreve" unicode="&#x16c;" horiz-adv-x="674"
                   d="M337 56q75 0 126.5 49t51.5 128v456h66v-456q0 -108 -70.5 -175.5t-173.5 -67.5t-173.5 67.5t-70.5 175.5v456h66v-456q0 -79 51.5 -128t126.5 -49zM213 911h52q6 -31 24.5 -50t47.5 -19q34 0 51.5 20t20.5 49h52q0 -57 -33.5 -91t-90.5 -34q-62 0 -93 36t-31 89z"/>
            <glyph glyph-name="ubreve" unicode="&#x16d;"
                   d="M410 212v255h67v-467h-67v77q-20 -43 -65 -65t-90 -22q-86 0 -133.5 54.5t-46.5 150.5v272h67v-272q0 -66 29.5 -102.5t83.5 -36.5q63 0 109 38.5t46 117.5zM161 689h52q6 -31 24.5 -50t47.5 -19q34 0 51.5 20t20.5 49h52q0 -57 -33.5 -91t-90.5 -34q-62 0 -93 36t-31 89
z"/>
            <glyph glyph-name="Uring" unicode="&#x16e;" horiz-adv-x="674"
                   d="M337 56q75 0 126.5 49t51.5 128v456h66v-456q0 -108 -70.5 -175.5t-173.5 -67.5t-173.5 67.5t-70.5 175.5v456h66v-456q0 -79 51.5 -128t126.5 -49zM240 873q0 42 27.5 70t68.5 28q42 0 70 -28t28 -70q0 -41 -28 -68.5t-70 -27.5q-41 0 -68.5 27.5t-27.5 68.5zM292 874
q0 -20 12.5 -32.5t32.5 -12.5q19 0 32 12.5t13 32.5q0 19 -13 32t-32 13q-20 0 -32.5 -13t-12.5 -32z"/>
            <glyph glyph-name="uring" unicode="&#x16f;"
                   d="M410 212v255h67v-467h-67v77q-20 -43 -65 -65t-90 -22q-86 0 -133.5 54.5t-46.5 150.5v272h67v-272q0 -66 29.5 -102.5t83.5 -36.5q63 0 109 38.5t46 117.5zM188 651q0 42 27.5 70t68.5 28q42 0 70 -28t28 -70q0 -41 -28 -68.5t-70 -27.5q-41 0 -68.5 27.5t-27.5 68.5z
M240 652q0 -20 12.5 -32.5t32.5 -12.5q19 0 32 12.5t13 32.5q0 19 -13 32t-32 13q-20 0 -32.5 -13t-12.5 -32z"/>
            <glyph glyph-name="Uhungarumlaut" unicode="&#x170;" horiz-adv-x="674"
                   d="M337 56q75 0 126.5 49t51.5 128v456h66v-456q0 -108 -70.5 -175.5t-173.5 -67.5t-173.5 67.5t-70.5 175.5v456h66v-456q0 -79 51.5 -128t126.5 -49zM495 911l-84 -134h-68l70 134h82zM365 911l-70 -134h-72l68 134h74z"/>
            <glyph glyph-name="uhungarumlaut" unicode="&#x171;"
                   d="M410 212v255h67v-467h-67v77q-20 -43 -65 -65t-90 -22q-86 0 -133.5 54.5t-46.5 150.5v272h67v-272q0 -66 29.5 -102.5t83.5 -36.5q63 0 109 38.5t46 117.5zM421 689l-84 -134h-68l70 134h82zM291 689l-70 -134h-72l68 134h74z"/>
            <glyph glyph-name="Uogonek" unicode="&#x172;" horiz-adv-x="674"
                   d="M337 56q75 0 126.5 49t51.5 128v456h66v-456q0 -98 -58.5 -163t-148.5 -77l-32 -82q-8 -17 -0.5 -35t25.5 -26q17 -7 34 1t25 25q2 4 2 9.5t2 9.5l53 4q0 -21 -9 -43q-17 -38 -52.5 -53.5t-73.5 0.5q-40 16 -55.5 53.5t3.5 75.5l29 58q-99 4 -165.5 70.5t-66.5 172.5v456
h66v-456q0 -79 51.5 -128t126.5 -49z"/>
            <glyph glyph-name="uogonek" unicode="&#x173;"
                   d="M410 212v255h67v-467h-21l-31 -89q-8 -17 -0.5 -35t25.5 -26q17 -7 34 1t25 25q4 7 4 19l53 4q0 -21 -9 -43q-17 -38 -52.5 -53.5t-73.5 0.5q-39 16 -54 52.5t2 76.5l31 68v77q-20 -43 -65 -65t-90 -22q-86 0 -133.5 54.5t-46.5 150.5v272h67v-272q0 -66 29.5 -102.5
t83.5 -36.5q63 0 109 38.5t46 117.5z"/>
            <glyph glyph-name="Wcircumflex" unicode="&#x174;" horiz-adv-x="908"
                   d="M815 689h70l-233 -689h-63l-135 462l-135 -462h-63l-233 689h70l193 -585l143 494h50l143 -494zM524 777l-71 86l-70 -86h-68l95 134h87l95 -134h-68z"/>
            <glyph glyph-name="wcircumflex" unicode="&#x175;" horiz-adv-x="804"
                   d="M602 0h-56l-145 375l-140 -375h-56l-180 467h71l135 -361l134 361h72l135 -361l134 361h71zM471 555l-71 86l-70 -86h-68l95 134h87l95 -134h-68z"/>
            <glyph glyph-name="Ycircumflex" unicode="&#x176;" horiz-adv-x="615"
                   d="M341 320v-320h-68v320l-259 369h79l214 -297l216 297h80zM379 777l-71 86l-70 -86h-68l95 134h87l95 -134h-68z"/>
            <glyph glyph-name="ycircumflex" unicode="&#x177;" horiz-adv-x="505"
                   d="M192 -226h-69l93 227l-192 466h70l158 -380l159 380h71zM326 555l-71 86l-70 -86h-68l95 134h87l95 -134h-68z"/>
            <glyph glyph-name="Ydieresis" unicode="&#x178;" horiz-adv-x="615"
                   d="M341 320v-320h-68v320l-259 369h79l214 -297l216 297h80zM169 841q0 21 15 34.5t36 13.5t36 -13.5t15 -34.5t-15 -34.5t-36 -13.5t-36 13.5t-15 34.5zM346 841q0 21 15 34.5t36 13.5t36 -13.5t15 -34.5t-15 -34.5t-36 -13.5t-36 13.5t-15 34.5z"/>
            <glyph glyph-name="Zacute" unicode="&#x179;" horiz-adv-x="560"
                   d="M42 66l389 556h-375v67h456v-66l-390 -556h390v-67h-470v66zM373 911l-84 -134h-68l70 134h82z"/>
            <glyph glyph-name="zacute" unicode="&#x17a;" horiz-adv-x="495"
                   d="M446 467v-60l-315 -341h315v-66h-405v61l310 340h-293v66h388zM338 689l-84 -134h-68l70 134h82z"/>
            <glyph glyph-name="Zdotaccent" unicode="&#x17b;" horiz-adv-x="560"
                   d="M42 66l389 556h-375v67h456v-66l-390 -556h390v-67h-470v66zM226 863q0 21 15 34.5t36 13.5t36 -13.5t15 -34.5t-15 -34.5t-36 -13.5t-36 13.5t-15 34.5z"/>
            <glyph glyph-name="zdotaccent" unicode="&#x17c;" horiz-adv-x="495"
                   d="M446 467v-60l-315 -341h315v-66h-405v61l310 340h-293v66h388zM193 641q0 21 15 34.5t36 13.5t36 -13.5t15 -34.5t-15 -34.5t-36 -13.5t-36 13.5t-15 34.5z"/>
            <glyph glyph-name="Zcaron" unicode="&#x17d;" horiz-adv-x="560"
                   d="M42 66l389 556h-375v67h456v-66l-390 -556h390v-67h-470v66zM206 889l71 -86l70 86h68l-95 -134h-87l-95 134h68z"/>
            <glyph glyph-name="zcaron" unicode="&#x17e;" horiz-adv-x="495"
                   d="M446 467v-60l-315 -341h315v-66h-405v61l310 340h-293v66h388zM173 689l71 -86l70 86h68l-95 -134h-87l-95 134h68z"/>
            <glyph glyph-name="longs" unicode="&#x17f;" horiz-adv-x="288"
                   d="M333 720v-63h-50q-32 0 -52.5 -11.5t-29.5 -34t-11.5 -42t-2.5 -48.5v-521h-67v407h-91v60h91v54q0 199 163 199h50z"/>
            <glyph glyph-name="florin" unicode="&#x192;" horiz-adv-x="620"
                   d="M219 0l89 407h-91l13 60h91l12 54q43 199 206 199h50l-14 -63h-50q-101 0 -125 -136l-12 -54h115l-13 -60h-115l-89 -407q-43 -199 -206 -199h-50l14 63h50q26 0 46 8.5t32.5 21t22 32.5t14.5 35.5t10 38.5z"/>
            <glyph glyph-name="Aringacute" unicode="&#x1fa;" horiz-adv-x="638"
                   d="M90 0h-71l265 689h70l265 -689h-71l-70 181h-319zM455 243l-136 354l-136 -354h272zM431 1085l-77 -122q62 -25 62 -91q0 -41 -28 -68.5t-70 -27.5q-41 0 -68.5 27.5t-27.5 68.5q0 32 17.5 57t46.5 35l63 121h82zM274 873q0 -20 12.5 -32.5t32.5 -12.5q19 0 32 12.5
t13 32.5q0 19 -13 32t-32 13q-20 0 -32.5 -13t-12.5 -32z"/>
            <glyph glyph-name="aringacute" unicode="&#x1fb;" horiz-adv-x="612"
                   d="M417 864l-77 -122q62 -25 62 -91q0 -41 -28 -68.5t-70 -27.5q-41 0 -68.5 27.5t-27.5 68.5q0 32 17.5 57t46.5 35l63 121h82zM260 652q0 -20 12.5 -32.5t32.5 -12.5q19 0 32 12.5t13 32.5q0 19 -13 32t-32 13q-20 0 -32.5 -13t-12.5 -32zM531 467v-467h-67v80
q-25 -43 -74 -66.5t-102 -23.5q-102 0 -170.5 68t-68.5 177t68.5 175.5t170.5 66.5q54 0 102.5 -22.5t73.5 -64.5v77h67zM116 235q0 -77 49.5 -127.5t122.5 -50.5q75 0 125.5 47t50.5 131q0 82 -53.5 128.5t-122.5 46.5q-74 0 -123 -48t-49 -127z"/>
            <glyph glyph-name="AEacute" unicode="&#x1fc;" horiz-adv-x="942"
                   d="M203 181l-115 -181h-78l435 689h431v-66h-327v-252h286v-66h-286v-239h338v-66h-404v181h-280zM242 243h241v380zM600 911l-84 -134h-68l70 134h82z"/>
            <glyph glyph-name="aeacute" unicode="&#x1fd;" horiz-adv-x="973"
                   d="M531 59v-59h-67v80q-25 -43 -74 -66.5t-102 -23.5q-102 0 -170.5 68t-68.5 177t68.5 175.5t170.5 66.5q54 0 102.5 -22.5t73.5 -64.5v77h67v-58q66 68 170 68q101 0 165 -66t64 -176q0 -22 -1 -31h-396q8 -67 55 -107.5t113 -40.5q100 0 146 81q11 -3 34.5 -8t32.5 -7
q-29 -63 -85 -97.5t-128 -34.5q-103 0 -170 69zM116 235q0 -77 49.5 -127.5t122.5 -50.5q75 0 125.5 47t50.5 131q0 82 -53.5 128.5t-122.5 46.5q-74 0 -123 -48t-49 -127zM533 266h329q-10 67 -53 106t-108 39q-66 0 -112 -39.5t-56 -105.5zM601 689l-84 -134h-68l70 134
h82z"/>
            <glyph glyph-name="Oslashacute" unicode="&#x1fe;" horiz-adv-x="799"
                   d="M502 911l-84 -134h-68l70 134h82zM175 72l-80 -83l-37 37l80 83q-85 101 -85 234q0 147 100 250.5t246 103.5q131 0 228 -86l87 89l37 -37l-87 -90q82 -101 82 -230q0 -148 -100.5 -250.5t-246.5 -102.5q-128 0 -224 82zM119 343q0 -106 65 -187l397 407q-77 68 -182 68
q-119 0 -199.5 -83.5t-80.5 -204.5zM399 56q119 0 200 83.5t81 203.5q0 103 -63 183l-396 -407q78 -63 178 -63z"/>
            <glyph glyph-name="oslashacute" unicode="&#x1ff;" horiz-adv-x="584"
                   d="M395 689l-84 -134h-68l70 134h82zM137 42l-51 -53l-37 37l51 53q-52 67 -52 156q0 108 70.5 175t173.5 67q86 0 150 -48l50 52l37 -37l-49 -50q56 -66 56 -159q0 -109 -71 -177t-173 -68q-90 0 -155 52zM292 56q75 0 126.5 50t51.5 129q0 64 -37 111l-249 -256
q46 -34 108 -34zM292 411q-75 0 -126.5 -48.5t-51.5 -127.5q0 -62 33 -108l248 254q-43 30 -103 30z"/>
            <glyph glyph-name="Scommaaccent" unicode="&#x218;" horiz-adv-x="568"
                   d="M57 198h66q0 -55 44 -98.5t113 -43.5q72 0 116 34t53 79q9 59 -28.5 94.5t-102.5 51.5l-93 21q-162 36 -162 173q0 81 65.5 134.5t150.5 53.5q94 0 155 -54t61 -143h-66q0 59 -42.5 95t-107.5 36q-60 0 -105 -35t-45 -87q0 -84 110 -109l94 -21q92 -20 143 -75t38 -147
q-13 -67 -74.5 -117t-159.5 -50q-97 0 -160 64t-63 144zM242 -247l-48 13q57 82 43 170h76q1 -122 -71 -183z"/>
            <glyph glyph-name="scommaaccent" unicode="&#x219;" horiz-adv-x="424"
                   d="M44 134h59q18 -81 110 -81q45 0 72 20.5t27 53.5q0 56 -67 72l-65 15q-133 30 -118 152q8 50 51 80.5t101 30.5t98 -30t49 -91h-65q-6 26 -28.5 41.5t-53.5 15.5q-34 0 -58.5 -16t-28.5 -41q-12 -58 69 -78l64 -15q118 -28 118 -136q0 -60 -49 -98.5t-122 -38.5
q-63 0 -112 39t-51 105zM187 -247l-48 13q57 82 43 170h76q1 -122 -71 -183z"/>
            <glyph glyph-name="circumflex" unicode="&#x2c6;" horiz-adv-x="487"
                   d="M314 555l-71 86l-70 -86h-68l95 134h87l95 -134h-68z"/>
            <glyph glyph-name="caron" unicode="&#x2c7;" horiz-adv-x="497"
                   d="M178 689l71 -86l70 86h68l-95 -134h-87l-95 134h68z"/>
            <glyph glyph-name="breve" unicode="&#x2d8;" horiz-adv-x="468"
                   d="M110 689h52q6 -31 24.5 -50t47.5 -19q34 0 51.5 20t20.5 49h52q0 -57 -33.5 -91t-90.5 -34q-62 0 -93 36t-31 89z"/>
            <glyph glyph-name="dotaccent" unicode="&#x2d9;" horiz-adv-x="502"
                   d="M200 641q0 21 15 34.5t36 13.5t36 -13.5t15 -34.5t-15 -34.5t-36 -13.5t-36 13.5t-15 34.5z"/>
            <glyph glyph-name="ring" unicode="&#x2da;" horiz-adv-x="514"
                   d="M160 651q0 42 27.5 70t68.5 28q42 0 70 -28t28 -70q0 -41 -28 -68.5t-70 -27.5q-41 0 -68.5 27.5t-27.5 68.5zM212 652q0 -20 12.5 -32.5t32.5 -12.5q19 0 32 12.5t13 32.5q0 19 -13 32t-32 13q-20 0 -32.5 -13t-12.5 -32z"/>
            <glyph glyph-name="ogonek" unicode="&#x2db;" horiz-adv-x="516"
                   d="M264 26l-49 -115q-8 -17 -0.5 -35t25.5 -26q17 -7 34 1t25 25q2 5 4 19l53 4q0 -21 -9 -43q-17 -38 -52.5 -53.5t-73.5 0.5q-39 16 -54 52.5t2 76.5l39 94h56z"/>
            <glyph glyph-name="tilde" unicode="&#x2dc;" horiz-adv-x="421"
                   d="M165 626q-12 0 -22.5 -11.5t-11.5 -33.5h-51q3 57 27.5 82.5t57.5 25.5q24 0 51 -21t40 -21q12 0 22.5 10t11.5 32h51q-3 -56 -28 -80.5t-57 -24.5q-24 0 -51 21t-40 21z"/>
            <glyph glyph-name="hungarumlaut" unicode="&#x2dd;" horiz-adv-x="432"
                   d="M352 689l-84 -134h-68l70 134h82zM222 689l-70 -134h-72l68 134h74z"/>
            <glyph glyph-name="Wgrave" unicode="&#x1e80;" horiz-adv-x="908"
                   d="M815 689h70l-233 -689h-63l-135 462l-135 -462h-63l-233 689h70l193 -585l143 494h50l143 -494zM412 777l-84 134h82l70 -134h-68z"/>
            <glyph glyph-name="wgrave" unicode="&#x1e81;" horiz-adv-x="804"
                   d="M602 0h-56l-145 375l-140 -375h-56l-180 467h71l135 -361l134 361h72l135 -361l134 361h71zM372 555l-84 134h82l70 -134h-68z"/>
            <glyph glyph-name="Wacute" unicode="&#x1e82;" horiz-adv-x="908"
                   d="M815 689h70l-233 -689h-63l-135 462l-135 -462h-63l-233 689h70l193 -585l143 494h50l143 -494zM583 911l-84 -134h-68l70 134h82z"/>
            <glyph glyph-name="wacute" unicode="&#x1e83;" horiz-adv-x="804"
                   d="M602 0h-56l-145 375l-140 -375h-56l-180 467h71l135 -361l134 361h72l135 -361l134 361h71zM516 689l-84 -134h-68l70 134h82z"/>
            <glyph glyph-name="Wdieresis" unicode="&#x1e84;" horiz-adv-x="908"
                   d="M815 689h70l-233 -689h-63l-135 462l-135 -462h-63l-233 689h70l193 -585l143 494h50l143 -494zM314 863q0 21 15 34.5t36 13.5t36 -13.5t15 -34.5t-15 -34.5t-36 -13.5t-36 13.5t-15 34.5zM491 863q0 21 15 34.5t36 13.5t36 -13.5t15 -34.5t-15 -34.5t-36 -13.5
t-36 13.5t-15 34.5z"/>
            <glyph glyph-name="wdieresis" unicode="&#x1e85;" horiz-adv-x="804"
                   d="M602 0h-56l-145 375l-140 -375h-56l-180 467h71l135 -361l134 361h72l135 -361l134 361h71zM261 641q0 21 15 34.5t36 13.5t36 -13.5t15 -34.5t-15 -34.5t-36 -13.5t-36 13.5t-15 34.5zM438 641q0 21 15 34.5t36 13.5t36 -13.5t15 -34.5t-15 -34.5t-36 -13.5t-36 13.5
t-15 34.5z"/>
            <glyph glyph-name="Ygrave" unicode="&#x1ef2;" horiz-adv-x="615"
                   d="M341 320v-320h-68v320l-259 369h79l214 -297l216 297h80zM286 777l-84 134h82l70 -134h-68z"/>
            <glyph glyph-name="ygrave" unicode="&#x1ef3;" horiz-adv-x="505"
                   d="M192 -226h-69l93 227l-192 466h70l158 -380l159 380h71zM229 555l-84 134h82l70 -134h-68z"/>
            <glyph glyph-name="thinspace" unicode="&#x2009;" horiz-adv-x="14"
            />
            <glyph glyph-name="endash" unicode="&#x2013;" horiz-adv-x="597"
                   d="M73 261h451v-59h-451v59z"/>
            <glyph glyph-name="emdash" unicode="&#x2014;" horiz-adv-x="813"
                   d="M73 261h667v-59h-667v59z"/>
            <glyph glyph-name="quoteleft" unicode="&#x2018;" horiz-adv-x="237"
                   d="M152 697l38 -13q-59 -85 -58 -200h-66q6 74 30.5 130.5t55.5 82.5z"/>
            <glyph glyph-name="quoteright" unicode="&#x2019;" horiz-adv-x="235"
                   d="M95 484l-38 13q59 85 58 200h66q-6 -74 -30.5 -130.5t-55.5 -82.5z"/>
            <glyph glyph-name="quotesinglbase" unicode="&#x201a;" horiz-adv-x="233"
                   d="M72 -67l-38 13q59 85 58 200h66q-6 -74 -30.5 -130.5t-55.5 -82.5z"/>
            <glyph glyph-name="quotedblleft" unicode="&#x201c;" horiz-adv-x="353"
                   d="M268 697l38 -13q-59 -85 -58 -200h-66q6 74 30.5 130.5t55.5 82.5zM152 697l38 -13q-59 -85 -58 -200h-66q6 74 30.5 130.5t55.5 82.5z"/>
            <glyph glyph-name="quotedblright" unicode="&#x201d;" horiz-adv-x="351"
                   d="M95 484l-38 13q59 85 58 200h66q-6 -74 -30.5 -130.5t-55.5 -82.5zM211 484l-38 13q59 85 58 200h66q-6 -74 -30.5 -130.5t-55.5 -82.5z"/>
            <glyph glyph-name="quotedblbase" unicode="&#x201e;" horiz-adv-x="349"
                   d="M72 -67l-38 13q59 85 58 200h66q-6 -74 -30.5 -130.5t-55.5 -82.5zM188 -67l-38 13q59 85 58 200h66q-6 -74 -30.5 -130.5t-55.5 -82.5z"/>
            <glyph glyph-name="dagger" unicode="&#x2020;" horiz-adv-x="411"
                   d="M238 499h128v-66h-128v-561h-66v561h-127v66h127v190h66v-190z"/>
            <glyph glyph-name="daggerdbl" unicode="&#x2021;" horiz-adv-x="441"
                   d="M253 499h128v-66h-128v-279h128v-66h-128v-216h-66v216h-127v66h127v279h-127v66h127v190h66v-190z"/>
            <glyph glyph-name="bullet" unicode="&#x2022;" horiz-adv-x="458"
                   d="M85 239q0 59 42 98t102 39t102 -39t42 -98t-42 -98t-102 -39t-102 39t-42 98z"/>
            <glyph glyph-name="ellipsis" unicode="&#x2026;" horiz-adv-x="734"
                   d="M72 42q0 23 15.5 37.5t39.5 14.5t39.5 -14.5t15.5 -37.5t-15.5 -37.5t-39.5 -14.5t-39.5 14.5t-15.5 37.5zM312 42q0 23 15.5 37.5t39.5 14.5t39.5 -14.5t15.5 -37.5t-15.5 -37.5t-39.5 -14.5t-39.5 14.5t-15.5 37.5zM552 42q0 23 15.5 37.5t39.5 14.5t39.5 -14.5
t15.5 -37.5t-15.5 -37.5t-39.5 -14.5t-39.5 14.5t-15.5 37.5z"/>
            <glyph glyph-name="perthousand" unicode="&#x2030;" horiz-adv-x="967"
                   d="M516 673l-329 -673h-47l329 673h47zM41 539q0 57 38 95.5t95 38.5q56 0 95 -39t39 -95q0 -57 -38.5 -95t-95.5 -38t-95 38t-38 95zM98 539q0 -32 22 -54t54 -22t54.5 22t22.5 54t-22.5 54.5t-54.5 22.5t-54 -22.5t-22 -54.5zM351 123q0 57 38 95.5t95 38.5q56 0 95 -39
t39 -95q0 -57 -38.5 -95t-95.5 -38t-95 38t-38 95zM408 123q0 -32 22 -54t54 -22t54.5 22t22.5 54t-22.5 54.5t-54.5 22.5t-54 -22.5t-22 -54.5zM664 123q0 57 38 95.5t95 38.5q56 0 95 -39t39 -95q0 -57 -38.5 -95t-95.5 -38t-95 38t-38 95zM721 123q0 -32 22 -54t54 -22
t54.5 22t22.5 54t-22.5 54.5t-54.5 22.5t-54 -22.5t-22 -54.5z"/>
            <glyph glyph-name="guilsinglleft" unicode="&#x2039;" horiz-adv-x="303"
                   d="M50 232l138 207h62l-138 -207l138 -207h-62z"/>
            <glyph glyph-name="guilsinglright" unicode="&#x203a;" horiz-adv-x="303"
                   d="M253 232l-138 -207h-62l138 207l-138 207h62z"/>
            <glyph glyph-name="fraction" unicode="&#x2044;" horiz-adv-x="180"
                   d="M344 673l-448 -683h-66l448 683h66z"/>
            <glyph glyph-name="zerosuperior" unicode="&#x2070;" horiz-adv-x="364"
                   d="M91 665q0 -150 91 -150t91 150q0 151 -91 151t-91 -151zM42 665q0 45 6.5 79t21.5 62.5t43.5 43.5t68.5 15q78 0 109 -53t31 -147q0 -92 -31 -145t-109 -53q-140 0 -140 198z"/>
            <glyph glyph-name="foursuperior" unicode="&#x2074;" horiz-adv-x="362"
                   d="M223 766l-113 -165h113v165zM333 551h-57v-81h-53v81h-204l217 311h40v-261h57v-50z"/>
            <glyph glyph-name="fivesuperior" unicode="&#x2075;" horiz-adv-x="341"
                   d="M30 553l43 31q11 -30 35 -48.5t52 -18.5q42 0 68.5 22.5t26.5 56.5t-24 52.5t-55 18.5q-30 0 -53 -7t-68 -29l-11 12l39 219h199v-51h-155l-20 -107q33 16 69 16q56 0 93.5 -32.5t37.5 -91.5t-41.5 -95.5t-105.5 -36.5q-41 0 -75 24.5t-55 64.5z"/>
            <glyph glyph-name="sixsuperior" unicode="&#x2076;" horiz-adv-x="338"
                   d="M297 794l-47 -20q-23 45 -67 45q-42 0 -67.5 -41t-17.5 -103q15 50 81 50q53 0 88 -40t33 -94t-40 -90t-91 -34t-86.5 37.5t-38.5 96.5q0 32 -1.5 67.5t6.5 71.5t21.5 64.5t43 46.5t71.5 18q39 -3 66 -18.5t46 -56.5zM98 599q0 -32 21.5 -54.5t52.5 -24.5q32 -2 53 19
t23 54q1 32 -19 54.5t-51 24.5q-32 2 -55 -19t-25 -54z"/>
            <glyph glyph-name="sevensuperior" unicode="&#x2077;" horiz-adv-x="322"
                   d="M39 862h270l-215 -392h-62l187 339h-180v53z"/>
            <glyph glyph-name="eightsuperior" unicode="&#x2078;" horiz-adv-x="346"
                   d="M121 767q0 -21 15 -37t38 -15q21 0 36 15.5t15 36.5q0 20 -14.5 33.5t-37.5 13.5q-22 0 -37 -13.5t-15 -33.5zM91 592q0 -31 23.5 -53t58.5 -22t58.5 22t23.5 53t-23.5 54t-58.5 23t-58.5 -23t-23.5 -54zM69 767q0 42 29.5 71t74.5 29t75 -29t30 -71q0 -44 -30 -69
q60 -37 60 -106q0 -53 -39 -90t-96 -37t-96 37t-39 90q0 68 60 106q-29 26 -29 69z"/>
            <glyph glyph-name="ninesuperior" unicode="&#x2079;" horiz-adv-x="338"
                   d="M41 539l47 20q23 -45 67 -45q42 0 67.5 41t17.5 103q-15 -50 -81 -50q-53 0 -88 40t-33 94t40 90t91 34t86.5 -37.5t38.5 -96.5q5 -39 0.5 -86t-14.5 -87.5t-42.5 -67.5t-84.5 -27q-81 2 -112 75zM240 734q0 32 -21.5 54.5t-52.5 24.5q-32 2 -53 -19t-23 -54
q-2 -32 18 -55t52 -24q32 -2 55 19t25 54z"/>
            <glyph glyph-name="zeroinferior" unicode="&#x2080;" horiz-adv-x="365"
                   d="M91 40q0 -150 91 -150t91 150q0 151 -91 151t-91 -151zM42 40q0 45 6.5 79t21.5 62.5t43.5 43.5t68.5 15q78 0 109 -53t31 -147q0 -92 -31 -145t-109 -53q-140 0 -140 198z"/>
            <glyph glyph-name="oneinferior" unicode="&#x2081;" horiz-adv-x="201"
                   d="M144 -155h-53v325l-64 -23v51l117 43v-396z"/>
            <glyph glyph-name="twoinferior" unicode="&#x2082;" horiz-adv-x="325"
                   d="M40 -155v24l159 192q29 36 29 65t-20 46t-50 17q-28 0 -49 -17t-25 -45l-49 12q8 47 42 75t81 28q52 0 87.5 -32.5t35.5 -83.5t-43 -101q-22 -26 -36 -42.5t-32.5 -38.5t-38.5 -46h150v-53h-241z"/>
            <glyph glyph-name="threeinferior" unicode="&#x2083;" horiz-adv-x="326"
                   d="M50 185q16 28 46.5 44t66.5 14q48 -4 78 -35t30 -74q-2 -51 -47 -78q30 -11 48 -41.5t15 -63.5q-4 -50 -46.5 -82.5t-97.5 -28.5q-38 3 -69.5 25t-46.5 56l44 25q21 -46 76 -53q33 -2 58.5 17t27.5 48q2 28 -21.5 49.5t-55.5 21.5h-44v51h44q22 0 37 13t18 33
q4 26 -11 43t-42 20q-44 4 -70 -35q-5 4 -18 14.5t-20 16.5z"/>
            <glyph glyph-name="fourinferior" unicode="&#x2084;" horiz-adv-x="362"
                   d="M223 141l-113 -165h113v165zM333 -74h-57v-81h-53v81h-204l217 311h40v-261h57v-50z"/>
            <glyph glyph-name="fiveinferior" unicode="&#x2085;" horiz-adv-x="340"
                   d="M30 -72l43 31q11 -30 35 -48.5t52 -18.5q42 0 68.5 22.5t26.5 56.5t-24 52.5t-55 18.5q-30 0 -53 -7t-68 -29l-11 12l39 219h199v-51h-155l-20 -107q33 16 69 16q56 0 93.5 -32.5t37.5 -91.5t-41.5 -95.5t-105.5 -36.5q-41 0 -75 24.5t-55 64.5z"/>
            <glyph glyph-name="sixinferior" unicode="&#x2086;" horiz-adv-x="338"
                   d="M297 169l-47 -20q-23 45 -67 45q-42 0 -67.5 -41t-17.5 -103q15 50 81 50q53 0 88 -40t33 -94t-40 -90t-91 -34t-86.5 37.5t-38.5 96.5q0 32 -1.5 67.5t6.5 71.5t21.5 64.5t43 46.5t71.5 18q39 -3 66 -18.5t46 -56.5zM98 -26q0 -32 21.5 -54.5t52.5 -24.5q32 -2 53 19
t23 54q1 32 -19 54.5t-51 24.5q-32 2 -55 -19t-25 -54z"/>
            <glyph glyph-name="seveninferior" unicode="&#x2087;" horiz-adv-x="319"
                   d="M40 237h270l-215 -392h-62l187 339h-180v53z"/>
            <glyph glyph-name="eightinferior" unicode="&#x2088;" horiz-adv-x="344"
                   d="M120 142q0 -21 15 -37t38 -15q21 0 36 15.5t15 36.5q0 20 -14.5 33.5t-37.5 13.5q-22 0 -37 -13.5t-15 -33.5zM90 -33q0 -31 23.5 -53t58.5 -22t58.5 22t23.5 53t-23.5 54t-58.5 23t-58.5 -23t-23.5 -54zM68 142q0 42 29.5 71t74.5 29t75 -29t30 -71q0 -44 -30 -69
q60 -37 60 -106q0 -53 -39 -90t-96 -37t-96 37t-39 90q0 68 60 106q-29 24 -29 69z"/>
            <glyph glyph-name="nineinferior" unicode="&#x2089;" horiz-adv-x="338"
                   d="M41 -86l47 20q23 -45 67 -45q42 0 67.5 41t17.5 103q-15 -50 -81 -50q-53 0 -88 40t-33 94t40 90t91 34t86.5 -37.5t38.5 -96.5q5 -39 0.5 -86t-14.5 -87.5t-42.5 -67.5t-84.5 -27q-81 2 -112 75zM240 109q0 32 -21.5 54.5t-52.5 24.5q-32 2 -53 -19t-23 -54
q-2 -32 18 -55t52 -24q32 -2 55 19t25 54z"/>
            <glyph glyph-name="colonmonetary" unicode="&#x20a1;" horiz-adv-x="680"
                   d="M311 -2l-38 -107l-47 17l37 104q-41 17 -76 43l-45 -127l-47 16l52 147q-95 101 -95 252q0 143 87.5 243t223.5 110l39 109l47 -17l-33 -92q41 -4 84 -19l33 91l47 -16l-34 -95q44 -22 85 -63l-46 -46q-27 26 -61 46l-191 -533q28 -5 53 -5q118 0 200 84l46 -47
q-101 -103 -246 -103q-35 0 -75 8zM393 631l-182 -510q33 -29 75 -46l192 540q-35 14 -85 16zM118 343q0 -103 55 -180l165 463q-99 -18 -159.5 -96.5t-60.5 -186.5z"/>
            <glyph glyph-name="lira" unicode="&#x20a4;" horiz-adv-x="643"
                   d="M151 198h-81v57h81v68h-81v57h81v129q0 86 60 139.5t143 53.5q82 0 138.5 -53.5t56.5 -139.5h-66q0 56 -38 91.5t-91 35.5q-55 0 -96 -35.5t-41 -91.5v-129h162v-57h-162v-68h162v-57h-162v-132h285q21 0 21 25v59h66v-59q0 -39 -25.5 -65t-61.5 -26h-449v66h98v132z"/>
            <glyph glyph-name="uni20A6" unicode="&#x20a6;" horiz-adv-x="724"
                   d="M121 392h-60v50h60v247h71l150 -247h198v247h66v-247h57v-50h-57v-92h57v-50h-57v-250h-68l-152 250h-199v-250h-66v250h-60v50h60v92zM187 392v-92h168l-56 92h-112zM372 392l56 -92h112v92h-168zM187 577v-135h82zM459 250l81 -134v134h-81z"/>
            <glyph glyph-name="peseta" unicode="&#x20a7;" horiz-adv-x="706"
                   d="M134 394h-77v50h77v59h-77v50h77v136h271q75 0 120.5 -37t63.5 -99h70v-50h-61q0 -4 0.5 -12.5t0.5 -12.5q0 -12 -2 -34h62v-50h-73q-18 -57 -63.5 -91t-117.5 -34h-204v-269h-67v394zM405 623h-204v-70h317q-33 70 -113 70zM533 478q0 7 -2 25h-330v-59h329q3 17 3 34z
M201 335h199q79 0 113 59h-312v-59z"/>
            <glyph glyph-name="rupee" unicode="&#x20a8;" horiz-adv-x="691"
                   d="M73 335h217q68 0 99 41t31 102q0 12 -1 19h-346v46h337q-28 80 -115 80h-222v66h569v-46h-217q40 -38 54 -100h163v-46h-157q1 -7 1 -19q0 -86 -45 -146.5t-138 -62.5l190 -269h-81l-190 269h-149v66z"/>
            <glyph glyph-name="uni20A9" unicode="&#x20a9;" horiz-adv-x="983"
                   d="M855 488h67v-50h-84l-31 -92h115v-50h-132l-100 -296h-63l-87 296h-97l-86 -296h-63l-100 296h-134v50h117l-31 92h-86v50h69l-68 201h70l66 -201h238l32 110h50l32 -110h238l66 201h70zM563 438l27 -92h150l30 92h-207zM214 438l30 -92h150l26 92h-206zM604 296l56 -192
l63 192h-119zM261 296l63 -192l55 192h-118zM485 438l-27 -92h68l-27 92h-14z"/>
            <glyph glyph-name="afii57636" unicode="&#x20aa;" horiz-adv-x="732"
                   d="M484 338v-162h-66v162q0 59 -40 99t-104 40h-107v-477h-66v543h173q93 0 151.5 -59t58.5 -146zM248 205v162h66v-162q0 -59 40 -99t104 -40h107v477h66v-543h-173q-94 0 -152 58.5t-58 146.5z"/>
            <glyph glyph-name="Euro" unicode="&#x20ac;" horiz-adv-x="797"
                   d="M521 374h-467v47h105q25 120 114 198t213 78q144 0 245 -103l-46 -46q-83 83 -199 83q-97 0 -167 -58.5t-92 -151.5h294v-47zM54 308h467v-47h-293q22 -91 92 -148t166 -57q118 0 200 84l46 -47q-101 -103 -246 -103q-123 0 -212.5 76t-113.5 195h-106v47z"/>
            <glyph glyph-name="uni2113" unicode="&#x2113;" horiz-adv-x="386"
                   d="M208 56h100v-66h-100q-131 0 -131 155v398q0 155 131 155q128 0 128 -155v-188q0 -155 -128 -155h-65v-55q0 -89 65 -89zM143 266h65q62 0 62 89v188q0 89 -62 89q-65 0 -65 -89v-277z"/>
            <glyph glyph-name="afii61352" unicode="&#x2116;" horiz-adv-x="948"
                   d="M586 0h-68l-351 577v-577h-66v689h71l348 -573v573h66v-689zM646 572q0 51 37 88t88 37t88 -37t37 -88t-37 -88t-88 -37t-88 37t-37 88zM697 572q0 -31 21.5 -52.5t52.5 -21.5t52.5 21.5t21.5 52.5t-21.5 52.5t-52.5 21.5t-52.5 -21.5t-21.5 -52.5zM651 363v36h240v-36
h-240z"/>
            <glyph glyph-name="trademark" unicode="&#x2122;" horiz-adv-x="819"
                   d="M303 318l39 320h-109v-320h-51v320h-114v51h328l128 -279l128 279h48l44 -371h-50l-34 279l-113 -247h-45l-115 245l-33 -277h-51z"/>
            <glyph glyph-name="estimated" unicode="&#x212e;" horiz-adv-x="665"
                   d="M614 279h-429v-193q68 -63 152 -63q76 0 123 33t87 94l31 -19q-46 -69 -100 -105t-141 -36q-119 0 -195 84.5t-76 205.5q0 123 75 206.5t200 83.5q124 0 198.5 -84.5t74.5 -206.5zM494 312v163q-68 62 -153 62q-96 0 -156 -62v-163h309z"/>
            <glyph glyph-name="minus" unicode="&#x2212;" horiz-adv-x="580"
                   d="M77 295h426v-63h-426v63z"/>
            <glyph glyph-name="notequal" unicode="&#x2260;" horiz-adv-x="603"
                   d="M297 180h234v-63h-265l-57 -117h-52l57 117h-142v63h173l69 142h-242v63h273l57 117h52l-57 -117h134v-63h-165z"/>
            <glyph glyph-name="lessequal" unicode="&#x2264;" horiz-adv-x="671"
                   d="M584 182l-509 195v72l509 195v-72l-432 -159l432 -160v-71zM81 63h499v-63h-499v63z"/>
            <glyph glyph-name="greaterequal" unicode="&#x2265;" horiz-adv-x="671"
                   d="M596 377l-509 -195v71l432 160l-432 159v72l509 -195v-72zM91 63h499v-63h-499v63z"/>
            <glyph glyph-name="commaaccent" unicode="&#xf6c3;" horiz-adv-x="260"
                   d="M118 -247l-48 13q57 82 43 170h76q1 -122 -71 -183z"/>
            <glyph glyph-name="rupiah" unicode="&#xf6dd;" horiz-adv-x="1154"
                   d="M340 269l190 -269h-81l-190 269h-116v-269h-67v689h256q98 0 144.5 -60.5t46.5 -150.5q0 -86 -45 -146.5t-138 -62.5zM332 623h-189v-288h184q68 0 99 41t31 102t-30.5 103t-94.5 42zM636 -226v693h66l1 -81q25 43 74 67t102 24q102 0 170.5 -68.5t68.5 -177.5
t-68.5 -175t-170.5 -66q-55 0 -103 21.5t-73 64.5v-302h-67zM1051 231q0 77 -49.5 128t-122.5 51q-75 0 -125.5 -48t-50.5 -131q0 -81 53.5 -127.5t122.5 -46.5q75 0 123.5 47.5t48.5 126.5z"/>
            <glyph glyph-name="apple" unicode="&#xf8ff;" horiz-adv-x="847"
                   d="M767 0h-687v687h687v-687zM164 595v-377h81l-74 75v178l255 -253l256 253v-178l-74 -75h84v377l-266 -263zM179 132h-15v-53h9v37l13 -37h10l11 37v-37h9v53h-14l-9 -36zM248 132q-25 0 -25 -27q0 -11 6.5 -18.5t18.5 -7.5q11 0 17 8t6 18q0 27 -23 27zM248 89
q-8 0 -12.5 5t-4.5 11t4.5 11.5t12.5 5.5q12 0 12 -17q0 -16 -12 -16zM284 99h-13q0 -20 22 -20t22 17q0 11 -15 14q-16 4 -16 6q0 6 9 6q10 0 10 -6h9q0 16 -19 16t-19 -16q0 -8 16 -15q13 0 13 -5q0 -7 -10 -7q-9 0 -9 10zM315 122h17v-43h8v43h15v10h-40v-10zM377 132h-9
l-22 -53h12l4 13h22l3 -13h11zM374 119l7 -18h-16l6 18h3zM426 132h-28v-53h9v22h13q9 0 9 -9v-13h13q-3 3 -3 13q0 9 -7 13q7 3 7 11q0 16 -13 16zM420 108h-13v14h13q9 0 9 -6q0 -8 -9 -8zM466 132h-20v-53h20q25 0 25 29q0 24 -25 24zM466 89h-8v33h4q17 0 17 -17
q0 -16 -13 -16zM531 132h-37v-53h40v10h-28v12h25v9h-25v12h25v10zM543 99h-9q0 -20 22 -20t22 17q0 11 -15 14q-17 4 -17 6q0 6 7 6q12 0 12 -6h10q0 16 -19 16q-22 0 -22 -16q0 -8 19 -15q12 0 12 -5q0 -7 -9 -7q-13 0 -13 10zM589 132h-7v-53h7v53zM633 86l4 -7h6v29h-22
v-9h12q-4 -10 -12 -10q-16 0 -16 16q0 17 16 17q9 0 9 -10h13q-4 20 -22 20q-25 0 -25 -27q0 -10 7 -18t18 -8q9 0 12 7zM657 132h-8v-53h8v33l22 -33h13v53h-13v-33z"/>
            <glyph glyph-name="CR" horiz-adv-x="266"
            />
            <glyph glyph-name="published" horiz-adv-x="815"
                   d="M447 290h-41h-37v-127h-55v350h133q54 0 82 -33t28 -79q0 -42 -28.5 -76.5t-81.5 -34.5zM447 458h-78v-114h76q26 0 42 17t16 40t-15.5 40t-40.5 17zM58 343q0 147 101.5 250.5t247.5 103.5t248 -103.5t102 -250.5t-102 -250t-248 -103t-247.5 103t-101.5 250zM114 343
q0 -123 85 -209.5t208 -86.5t208 86.5t85 209.5t-85 210t-208 87t-208 -87t-85 -210z"/>
            <glyph glyph-name="frenchfranc" horiz-adv-x="726"
                   d="M687 397l-8 -65q-33 16 -68 16q-66 0 -100 -76t-34 -180v-92h-67v339h-243v-339h-66v689h387v-66h-321v-218h310v-106q33 116 134 116q23 0 46 -6t30 -12z"/>
            <glyph glyph-name="parenleft.case" horiz-adv-x="361"
                   d="M320 -62v-66q-121 0 -193.5 124t-72.5 341q0 220 72 342.5t194 122.5v-66q-91 0 -145.5 -105.5t-54.5 -293.5q0 -187 54.5 -293t145.5 -106z"/>
            <glyph glyph-name="parenright.case" horiz-adv-x="361"
                   d="M41 -128v66q91 0 145.5 106t54.5 293q0 188 -54.5 293.5t-145.5 105.5v66q122 0 194 -122.5t72 -342.5q0 -217 -72.5 -341t-193.5 -124z"/>
            <glyph glyph-name="hyphen.case" horiz-adv-x="485"
                   d="M72 370h341v-63h-341v63z"/>
            <glyph glyph-name="at.case" horiz-adv-x="987"
                   d="M617 362v1q0 58 -40.5 98t-97.5 40t-97.5 -40t-40.5 -98q0 -57 40.5 -97.5t97.5 -40.5q54 0 96 42v-71q-45 -32 -96 -32q-83 0 -141 58t-58 141t58 141t141 58q81 0 138 -55q56 -55 61 -135v-149q0 -74 80 -74q37 0 63.5 22.5t39 59.5t18 72.5t5.5 71.5q0 156 -116.5 261
t-278.5 105q-158 0 -267 -112t-109 -272q0 -159 108.5 -269.5t267.5 -110.5h18v-61h-18q-184 0 -310.5 128.5t-126.5 312.5q0 121 57.5 223t158 162t221.5 60q122 0 226.5 -54.5t167.5 -153.5t63 -219q0 -47 -10 -94.5t-30.5 -91.5t-59 -71.5t-88.5 -27.5q-61 0 -101 32.5
t-40 107.5v132z"/>
            <glyph glyph-name="bracketleft.case" horiz-adv-x="299"
                   d="M89 -121v915h164v-67h-97v-780h97v-68h-164z"/>
            <glyph glyph-name="bracketright.case" horiz-adv-x="299"
                   d="M210 794v-915h-164v68h97v780h-97v67h164z"/>
            <glyph glyph-name="braceleft.case" horiz-adv-x="396"
                   d="M172 242v-170q0 -57 38 -94.5t91 -37.5h54v-61h-54q-82 0 -138.5 53.5t-56.5 139.5v170q0 27 -19 48t-45 21v57q26 0 45 21t19 48v172q0 86 56.5 139.5t138.5 53.5h54v-61h-54q-53 0 -91 -37.5t-38 -94.5v-172q0 -31 -15.5 -59t-43.5 -39q26 -9 42.5 -38t16.5 -59z"/>
            <glyph glyph-name="braceright.case" horiz-adv-x="396"
                   d="M224 72v170q0 30 16.5 59t42.5 38q-28 11 -43.5 39t-15.5 59v172q0 57 -38 94.5t-91 37.5h-54v61h54q82 0 138.5 -53.5t56.5 -139.5v-172q0 -27 19 -48t45 -21v-57q-26 0 -45 -21t-19 -48v-170q0 -86 -56.5 -139.5t-138.5 -53.5h-54v61h54q53 0 91 37.5t38 94.5z"/>
            <glyph glyph-name="exclamdown.case" horiz-adv-x="256"
                   d="M183 641q0 -23 -15.5 -37.5t-39.5 -14.5t-39.5 14.5t-15.5 37.5t15.5 37.5t39.5 14.5t39.5 -14.5t15.5 -37.5zM95 0l6 498h54l6 -498h-66z"/>
            <glyph glyph-name="guillemotleft.case" horiz-adv-x="479"
                   d="M60 337l138 207h62l-138 -207l138 -207h-62zM210 337l138 207h62l-138 -207l138 -207h-62z"/>
            <glyph glyph-name="periodcentered.case" horiz-adv-x="254"
                   d="M72 368q0 23 15.5 37.5t39.5 14.5t39.5 -14.5t15.5 -37.5t-15.5 -37.5t-39.5 -14.5t-39.5 14.5t-15.5 37.5z"/>
            <glyph glyph-name="guillemotright.case" horiz-adv-x="479"
                   d="M419 337l-138 -207h-62l138 207l-138 207h62zM269 337l-138 -207h-62l138 207l-138 207h62z"/>
            <glyph glyph-name="questiondown.case" horiz-adv-x="487"
                   d="M374 184h66q0 -86 -56.5 -139.5t-138.5 -53.5q-83 0 -143 53.5t-60 139.5q0 69 40.5 118.5t102.5 68.5q86 25 86 102v29h66v-29q0 -123 -132 -165q-41 -13 -69 -46t-28 -78q0 -56 41 -91.5t96 -35.5q53 0 91 35.5t38 91.5zM359 645q0 -23 -15.5 -37.5t-39.5 -14.5
t-39.5 14.5t-15.5 37.5t15.5 37.5t39.5 14.5t39.5 -14.5t15.5 -37.5z"/>
            <glyph glyph-name="endash.case" horiz-adv-x="597"
                   d="M73 366h451v-59h-451v59z"/>
            <glyph glyph-name="emdash.case" horiz-adv-x="813"
                   d="M73 366h667v-59h-667v59z"/>
            <glyph glyph-name="bullet.case" horiz-adv-x="458"
                   d="M85 344q0 59 42 98t102 39t102 -39t42 -98t-42 -98t-102 -39t-102 39t-42 98z"/>
            <glyph glyph-name="guilsinglleft.case" horiz-adv-x="329"
                   d="M60 337l138 207h62l-138 -207l138 -207h-62z"/>
            <glyph glyph-name="guilsinglright.case" horiz-adv-x="329"
                   d="M269 337l-138 -207h-62l138 207l-138 207h62z"/>
            <glyph glyph-name="cent.case" horiz-adv-x="523"
                   d="M305 694v-106q94 -5 158 -63l-47 -47q-50 44 -121 44q-75 0 -126.5 -48.5t-51.5 -127.5t51.5 -129t126.5 -50q71 0 121 45l48 -47q-65 -59 -159 -64v-112h-50v115q-89 12 -146.5 78.5t-57.5 163.5t57.5 162t146.5 77v109h50z"/>
            <glyph glyph-name="zero.tnum" horiz-adv-x="580"
                   d="M54 331q0 75 11 133.5t36.5 107.5t73.5 75t116 26t115.5 -26t73 -75t36.5 -107.5t11 -133.5t-11 -133t-36.5 -107t-73 -75t-115.5 -26t-116 26t-73.5 75t-36.5 107t-11 133zM120 331q0 -128 38 -201.5t133 -73.5q49 0 83.5 21t53 60t26 86t7.5 108t-7.5 108t-26 86.5
t-53 60.5t-83.5 21q-95 0 -133 -73.5t-38 -202.5z"/>
            <glyph glyph-name="one.tnum" horiz-adv-x="580"
                   d="M284 0v579l-113 -39v60l179 65v-665h-66z"/>
            <glyph glyph-name="two.tnum" horiz-adv-x="580"
                   d="M88 23l278 337q54 64 54 123q0 56 -39.5 90t-98.5 34q-55 0 -94 -28.5t-46 -78.5l-61 16q12 72 67.5 114.5t133.5 42.5q86 0 145 -53.5t59 -136.5q0 -90 -72 -170l-209 -247h282v-66h-399v23z"/>
            <glyph glyph-name="three.tnum" horiz-adv-x="580"
                   d="M157 547l-53 33q27 46 77.5 72t109.5 22q90 -6 138 -60.5t40 -128.5q-3 -40 -28.5 -75t-65.5 -52q56 -14 90.5 -69t30.5 -115q-8 -82 -77.5 -135.5t-160.5 -47.5q-65 5 -114.5 38t-73.5 85l60 27q15 -34 51 -57t82 -27h-1q64 -4 113.5 33t53.5 94q2 56 -42.5 98
t-106.5 42h-64v63h64q50 0 85 31t37 77q2 47 -27.5 77.5t-87.5 34.5q-42 2 -77.5 -14.5t-52.5 -45.5z"/>
            <glyph glyph-name="four.tnum" horiz-adv-x="580"
                   d="M440 142v-142h-66v142h-348l365 523h49v-462h100v-61h-100zM147 203h227v330z"/>
            <glyph glyph-name="five.tnum" horiz-adv-x="580"
                   d="M57 130l57 41q18 -48 66 -80t100 -32q78 0 122.5 42.5t44.5 107.5q0 66 -46 104t-104 38q-49 0 -86 -10.5t-97 -41.5l-26 35l58 331h326v-67h-269l-40 -220q82 41 134 41q92 0 155.5 -56.5t63.5 -153.5q0 -100 -64.5 -159.5t-171.5 -59.5q-69 0 -131 39t-92 101z"/>
            <glyph glyph-name="six.tnum" horiz-adv-x="580"
                   d="M493 561l-58 -25q-33 66 -118 71q-62 2 -101.5 -37.5t-53.5 -98.5t-11 -134q17 42 63 63t95 19q89 -4 147 -69.5t54 -153.5q-4 -90 -66.5 -150t-151.5 -56q-88 4 -143.5 63.5t-63.5 160.5q-8 156 11 260q14 91 75 146t149 53q128 -5 173 -112zM152 211q0 -65 41 -108.5
t102 -45.5q62 -2 103.5 38.5t45.5 103.5q2 63 -36.5 107t-100.5 46t-107.5 -38.5t-47.5 -102.5z"/>
            <glyph glyph-name="seven.tnum" horiz-adv-x="580"
                   d="M503 614l-339 -614h-78l331 599h-328v66h441z"/>
            <glyph glyph-name="eight.tnum" horiz-adv-x="580"
                   d="M119 510q0 68 49 115.5t121 47.5q73 0 123 -47.5t50 -115.5q0 -76 -61 -124q52 -28 82.5 -77t30.5 -107q0 -89 -65 -150.5t-160 -61.5t-159.5 61.5t-64.5 150.5q0 58 30 107t82 77q-58 47 -58 124zM131 202q0 -61 45 -103.5t113 -42.5t113.5 42.5t45.5 103.5t-46 105
t-113 44h-7q-64 -2 -107.5 -46t-43.5 -103zM185 510q0 -40 28 -68.5t71 -30.5h9q44 2 73.5 30.5t29.5 68.5q0 41 -30.5 69t-76.5 28q-45 0 -74.5 -28t-29.5 -69z"/>
            <glyph glyph-name="nine.tnum" horiz-adv-x="580"
                   d="M82 101l58 25q33 -65 124 -71q47 -2 81 20t52.5 61.5t26 86.5t6.5 102q-16 -41 -63 -62.5t-95 -19.5q-89 4 -147 69.5t-54 153.5q4 90 66.5 150t151.5 56q87 -4 143 -63.5t64 -160.5q7 -146 -11 -260q-15 -90 -76 -146.5t-148 -52.5q-134 6 -179 112zM429 451
q0 65 -41 108.5t-102 45.5t-104 -39t-45 -103q-2 -63 36.5 -107t100.5 -46t107.5 38.5t47.5 102.5z"/>
            <glyph glyph-name="zero.taboldstyle" horiz-adv-x="580"
                   d="M289 -10q-101 0 -172 72.5t-71 187.5q0 116 70.5 187t172.5 71t173 -71t71 -187q0 -115 -71 -187.5t-173 -72.5zM289 56q74 0 126 54.5t52 139.5t-52 138.5t-126 53.5t-125.5 -53.5t-51.5 -138.5t52 -139.5t125 -54.5z"/>
            <glyph glyph-name="one.taboldstyle" horiz-adv-x="580"
                   d="M376 512v-512h-66v413l-155 -59v65z"/>
            <glyph glyph-name="two.taboldstyle" horiz-adv-x="580"
                   d="M103 23l246 266q42 40 42 80q0 35 -28.5 57.5t-73.5 22.5q-43 0 -71 -20t-31 -55l-32 6q-4 1 -11.5 3t-10.5 2l-10 2q6 58 55 93.5t115 35.5q72 0 120 -42t48 -105q0 -68 -61 -127l-169 -176h231v-33v-33h-359v23z"/>
            <glyph glyph-name="six.taboldstyle" horiz-adv-x="580"
                   d="M493 561l-58 -25q-33 66 -118 71q-62 2 -101.5 -37.5t-53.5 -98.5t-11 -134q17 42 63 63t95 19q89 -4 147 -69.5t54 -153.5q-4 -90 -66.5 -150t-151.5 -56q-88 4 -143.5 63.5t-63.5 160.5q-8 156 11 260q14 91 75 146t149 53q128 -5 173 -112zM152 211q0 -65 41 -108.5
t102 -45.5q62 -2 103.5 38.5t45.5 103.5q2 63 -36.5 107t-100.5 46t-107.5 -38.5t-47.5 -102.5z"/>
            <glyph glyph-name="eight.taboldstyle" horiz-adv-x="580"
                   d="M119 510q0 68 49 115.5t121 47.5q73 0 123 -47.5t50 -115.5q0 -76 -61 -124q52 -28 82.5 -77t30.5 -107q0 -89 -65 -150.5t-160 -61.5t-159.5 61.5t-64.5 150.5q0 58 30 107t82 77q-58 47 -58 124zM131 202q0 -61 45 -103.5t113 -42.5t113.5 42.5t45.5 103.5t-46 105
t-113 44h-7q-64 -2 -107.5 -46t-43.5 -103zM185 510q0 -40 28 -68.5t71 -30.5h9q44 2 73.5 30.5t29.5 68.5q0 41 -30.5 69t-76.5 28q-45 0 -74.5 -28t-29.5 -69z"/>
            <glyph glyph-name="three.taboldstyle" horiz-adv-x="580"
                   d="M159 346l-53 33q27 46 77.5 72t109.5 22q90 -6 138 -60.5t40 -128.5q-3 -40 -28.5 -75t-65.5 -52q56 -14 90.5 -69t30.5 -115q-8 -82 -77.5 -135.5t-160.5 -47.5q-65 5 -114.5 38t-73.5 85l60 27q15 -34 51 -57t82 -27h-1q64 -4 113.5 33t53.5 94q2 56 -42.5 98
t-106.5 42h-64v63h64q50 0 85 31t37 77q2 47 -27.5 77.5t-87.5 34.5q-42 2 -77.5 -14.5t-52.5 -45.5z"/>
            <glyph glyph-name="four.taboldstyle" horiz-adv-x="580"
                   d="M440 -58v-142h-66v142h-348l365 523h49v-462h100v-61h-100zM147 3h227v330z"/>
            <glyph glyph-name="five.taboldstyle" horiz-adv-x="580"
                   d="M57 -68l57 41q18 -48 66 -80t100 -32q78 0 122.5 42.5t44.5 107.5q0 66 -46 104t-104 38q-49 0 -86 -10.5t-97 -41.5l-26 35l58 331h326v-67h-269l-40 -220q82 41 134 41q92 0 155.5 -56.5t63.5 -153.5q0 -100 -64.5 -159.5t-171.5 -59.5q-69 0 -131 39t-92 101z"/>
            <glyph glyph-name="seven.taboldstyle" horiz-adv-x="580"
                   d="M530 465l-366 -665h-78l331 599h-328v66h441z"/>
            <glyph glyph-name="nine.taboldstyle" horiz-adv-x="580"
                   d="M85 -99l58 25q33 -65 124 -71q47 -2 81 20t52.5 61.5t26 86.5t6.5 102q-16 -41 -63 -62.5t-95 -19.5q-89 4 -147 69.5t-54 153.5q4 90 66.5 150t151.5 56q87 -4 143 -63.5t64 -160.5q7 -146 -11 -260q-15 -90 -76 -146.5t-148 -52.5q-134 6 -179 112zM432 251
q0 65 -41 108.5t-102 45.5t-104 -39t-45 -103q-2 -63 36.5 -107t100.5 -46t107.5 38.5t47.5 102.5z"/>
            <glyph glyph-name="zero.oldstyle" horiz-adv-x="599"
                   d="M299 -10q-101 0 -172 72.5t-71 187.5q0 116 70.5 187t172.5 71t173 -71t71 -187q0 -115 -71 -187.5t-173 -72.5zM299 56q74 0 126 54.5t52 139.5t-52 138.5t-126 53.5t-125.5 -53.5t-51.5 -138.5t52 -139.5t125 -54.5z"/>
            <glyph glyph-name="one.oldstyle" horiz-adv-x="354"
                   d="M263 512v-512h-66v413l-155 -59v65z"/>
            <glyph glyph-name="two.oldstyle" horiz-adv-x="470"
                   d="M48 23l246 266q42 40 42 80q0 35 -28.5 57.5t-73.5 22.5q-43 0 -71 -20t-31 -55l-32 6q-4 1 -11.5 3t-10.5 2l-10 2q6 58 55 93.5t115 35.5q72 0 120 -42t48 -105q0 -68 -61 -127l-169 -176h231v-33v-33h-359v23z"/>
            <glyph glyph-name="three.oldstyle" horiz-adv-x="515"
                   d="M127 346l-53 33q27 46 77.5 72t109.5 22q90 -6 138 -60.5t40 -128.5q-3 -40 -28.5 -75t-65.5 -52q56 -14 90.5 -69t30.5 -115q-8 -82 -77.5 -135.5t-160.5 -47.5q-65 5 -114.5 38t-73.5 85l60 27q15 -34 51 -57t82 -27h-1q64 -4 113.5 33t53.5 94q2 56 -42.5 98
t-106.5 42h-64v63h64q50 0 85 31t37 77q2 47 -27.5 77.5t-87.5 34.5q-42 2 -77.5 -14.5t-52.5 -45.5z"/>
            <glyph glyph-name="four.oldstyle" horiz-adv-x="575"
                   d="M438 -58v-142h-66v142h-348l365 523h49v-462h100v-61h-100zM145 3h227v330z"/>
            <glyph glyph-name="five.oldstyle" horiz-adv-x="545"
                   d="M40 -68l57 41q18 -48 66.5 -80t99.5 -32q78 0 122.5 42.5t44.5 107.5q0 66 -46 104t-104 38q-49 0 -86 -10.5t-97 -41.5l-26 35l58 331h326v-67h-269l-40 -220q82 41 134 41q92 0 155.5 -56.5t63.5 -153.5q0 -100 -64.5 -159.5t-171.5 -59.5q-69 0 -131 39t-92 101z"/>
            <glyph glyph-name="six.oldstyle" horiz-adv-x="556"
                   d="M481 561l-58 -25q-33 66 -118 71q-62 2 -101.5 -37.5t-53.5 -98.5t-11 -134q17 42 63 63t95 19q89 -4 147 -69.5t54 -153.5q-4 -90 -66.5 -150t-151.5 -56q-88 4 -143.5 63.5t-63.5 160.5q-8 156 11 260q14 91 75 146t149 53q128 -5 173 -112zM140 211q0 -65 41 -108.5
t102 -45.5q62 -2 103.5 38.5t45.5 103.5q2 63 -36.5 107t-100.5 46t-107.5 -38.5t-47.5 -102.5z"/>
            <glyph glyph-name="seven.oldstyle" horiz-adv-x="499"
                   d="M490 465l-366 -665h-78l331 599h-328v66h441z"/>
            <glyph glyph-name="eight.oldstyle" horiz-adv-x="565"
                   d="M112 510q0 68 49 115.5t121 47.5q73 0 123 -47.5t50 -115.5q0 -76 -61 -124q52 -28 82.5 -77t30.5 -107q0 -89 -65 -150.5t-160 -61.5t-159.5 61.5t-64.5 150.5q0 58 30 107t82 77q-58 47 -58 124zM124 202q0 -61 45 -103.5t113 -42.5t113.5 42.5t45.5 103.5t-46 105
t-113 44h-7q-64 -2 -107.5 -46t-43.5 -103zM178 510q0 -40 28 -68.5t71 -30.5h9q44 2 73.5 30.5t29.5 68.5q0 41 -30.5 69t-76.5 28q-45 0 -74.5 -28t-29.5 -69z"/>
            <glyph glyph-name="nine.oldstyle" horiz-adv-x="535"
                   d="M63 -99l58 25q33 -65 124 -71q47 -2 81 20t52.5 61.5t26 86.5t6.5 102q-16 -41 -63 -62.5t-95 -19.5q-89 4 -147 69.5t-54 153.5q4 90 66.5 150t151.5 56q87 -4 143 -63.5t64 -160.5q7 -146 -11 -260q-15 -90 -76 -146.5t-148 -52.5q-134 6 -179 112zM410 251
q0 65 -41 108.5t-102 45.5t-104 -39t-45 -103q-2 -63 36.5 -107t100.5 -46t107.5 38.5t47.5 102.5z"/>
            <glyph glyph-name="Lslash.sc" horiz-adv-x="434"
                   d="M159 586v-212l91 57v-51l-91 -58v-262h247v-60h-307v284l-57 -35v51l57 36v250h60z"/>
            <glyph glyph-name="Zcaron.sc" horiz-adv-x="498"
                   d="M46 58l327 468h-315v60h389v-59l-328 -467h328v-60h-401v58zM186 762l60 -74l61 74h60l-83 -117h-75l-83 117h60z"/>
            <glyph glyph-name="exclam.sc" horiz-adv-x="254"
                   d="M97 586h60l-6 -429h-48zM176 38q0 -20 -14 -33t-35 -13q-20 0 -34 13t-14 33t13.5 32.5t34.5 12.5t35 -12.5t14 -32.5z"/>
            <glyph glyph-name="ampersand.sc" horiz-adv-x="585"
                   d="M253 361h130v75h58v-76h77v-52h-77v-129q0 -63 19 -97t74 -34v-56q-49 0 -83.5 20.5t-46.5 55.5q-20 -35 -62.5 -55.5t-90.5 -20.5q-84 0 -137.5 53.5t-53.5 133.5q0 51 26 93t71 67q-50 40 -50 109q0 60 43 101.5t107 41.5q90 0 135 -75l-50 -31q-29 47 -85 47
q-40 0 -65.5 -24t-25.5 -60q0 -37 24.5 -62t62.5 -25zM383 308h-132q-55 0 -93.5 -38.5t-38.5 -90.5q0 -55 37 -91.5t95 -36.5q56 0 93 35t39 87v135z"/>
            <glyph glyph-name="question.sc" horiz-adv-x="431"
                   d="M108 425h-60q0 74 48.5 120.5t117.5 46.5q70 0 121.5 -46t51.5 -119q0 -58 -35 -101.5t-87 -57.5q-36 -11 -53.5 -26t-17.5 -49v-36h-59v36q0 56 28.5 85t83.5 47q34 10 57 37.5t23 64.5q0 46 -34 75.5t-79 29.5q-46 0 -76 -29t-30 -78zM116 37q0 20 14 33t34 13
q21 0 35 -13t14 -33t-14 -32.5t-35 -12.5t-34.5 12.5t-13.5 32.5z"/>
            <glyph glyph-name="A.sc" horiz-adv-x="567"
                   d="M171 209h225l-112 294zM150 153l-59 -153h-64l225 586h64l224 -586h-64l-59 153h-267z"/>
            <glyph glyph-name="B.sc" horiz-adv-x="549"
                   d="M462 439q0 -100 -72 -127q44 -9 73.5 -53t29.5 -94q0 -69 -44.5 -117t-120.5 -48h-234v586h215q72 0 112.5 -39.5t40.5 -107.5zM155 338h159q43 0 65.5 29t22.5 72q0 42 -27 65t-73 23h-147v-189zM324 282h-169v-223h172q47 0 76.5 31t29.5 75q0 42 -31 79.5t-78 37.5z
"/>
            <glyph glyph-name="C.sc" horiz-adv-x="586"
                   d="M510 123l42 -42q-84 -90 -211 -90q-122 0 -204 87.5t-82 213.5t81.5 213t204.5 87q127 0 210 -89l-42 -41q-71 71 -168 71q-98 0 -162 -70t-64 -171t64 -171t162 -70q99 0 169 72z"/>
            <glyph glyph-name="D.sc" horiz-adv-x="632"
                   d="M154 526v-466h160q97 0 148.5 64t51.5 168q0 103 -52 168.5t-148 65.5h-160zM314 0h-220v586h220q121 0 190.5 -83t69.5 -211q0 -127 -69.5 -209.5t-190.5 -82.5z"/>
            <glyph glyph-name="E.sc" horiz-adv-x="496"
                   d="M94 0v586h336v-59h-276v-210h242v-59h-242v-199h285v-59h-345z"/>
            <glyph glyph-name="F.sc" horiz-adv-x="462"
                   d="M94 0v586h331v-59h-271v-210h215v-59h-215v-258h-60z"/>
            <glyph glyph-name="G.sc" horiz-adv-x="662"
                   d="M385 233v55h237q0 -147 -72 -222t-201 -75q-124 0 -209 88t-85 213t85 212.5t209 87.5q107 0 189 -69l-43 -42q-63 52 -146 52q-99 0 -166.5 -70.5t-67.5 -170.5t67.5 -170.5t166.5 -70.5q92 0 146.5 48.5t59.5 133.5h-170z"/>
            <glyph glyph-name="H.sc" horiz-adv-x="623"
                   d="M469 586h60v-586h-60v263h-315v-263h-60v586h60v-267h315v267z"/>
            <glyph glyph-name="I.sc" horiz-adv-x="248"
                   d="M94 586h60v-586h-60v586z"/>
            <glyph glyph-name="J.sc" horiz-adv-x="248"
                   d="M-76 -211l6 59q21 -7 49 -7q59 0 87 36t28 92v617h60v-617q0 -83 -42.5 -135t-132.5 -52q-29 0 -55 7z"/>
            <glyph glyph-name="K.sc" horiz-adv-x="497"
                   d="M214 293l277 -293h-81l-256 271v-271h-60v586h60v-280l216 280h71z"/>
            <glyph glyph-name="L.sc" horiz-adv-x="429"
                   d="M94 0v586h60v-527h247v-59h-307z"/>
            <glyph glyph-name="M.sc" horiz-adv-x="820"
                   d="M410 134l219 452h59l72 -586h-59l-59 478l-202 -414h-59l-203 414l-59 -478h-59l71 586h59z"/>
            <glyph glyph-name="N.sc" horiz-adv-x="602"
                   d="M508 586v-586h-61l-293 482v-482h-60v586h63l291 -479v479h60z"/>
            <glyph glyph-name="O.sc" horiz-adv-x="700"
                   d="M115 292q0 -100 67.5 -170.5t166.5 -70.5q100 0 168 70.5t68 170.5t-68 170.5t-168 70.5q-99 0 -166.5 -70.5t-67.5 -170.5zM55 292q0 125 85 212.5t209 87.5q125 0 210.5 -87.5t85.5 -212.5t-85.5 -213t-210.5 -88q-124 0 -209 88t-85 213z"/>
            <glyph glyph-name="P.sc" horiz-adv-x="532"
                   d="M325 527h-170v-241h166q56 0 83 34.5t27 85.5q0 50 -26.5 85.5t-79.5 35.5zM94 0v586h231q84 0 125 -52.5t41 -127.5q0 -76 -41 -127.5t-125 -51.5h-170v-227h-61z"/>
            <glyph glyph-name="Q.sc" horiz-adv-x="700"
                   d="M501 33l63 -98l-49 -32l-67 105q-49 -17 -99 -17q-124 0 -209 88t-85 213t85 212.5t209 87.5q125 0 210.5 -87.5t85.5 -212.5q0 -82 -39 -150.5t-105 -108.5zM398 197l71 -114q54 33 85 87.5t31 121.5q0 100 -68 170.5t-168 70.5q-99 0 -166.5 -70.5t-67.5 -170.5
t67 -170t165 -70q40 0 67 7l-65 106z"/>
            <glyph glyph-name="R.sc" horiz-adv-x="538"
                   d="M312 527h-157v-241h153q56 0 82.5 34.5t26.5 85.5t-25.5 86t-79.5 35zM322 227l161 -227h-74l-160 227h-94v-227h-61v586h219q83 0 123.5 -52.5t40.5 -127.5q0 -74 -38 -124.5t-117 -54.5z"/>
            <glyph glyph-name="S.sc" horiz-adv-x="504"
                   d="M58 168h60q0 -46 37.5 -83.5t94.5 -37.5q59 0 95.5 30t43.5 68q14 90 -109 121l-78 18q-139 31 -139 148q0 70 55.5 115t129.5 45q80 0 132 -46t52 -122h-60q0 50 -35 79.5t-89 29.5q-50 0 -87.5 -28.5t-37.5 -72.5q0 -69 92 -91l80 -18q79 -18 121.5 -64t31.5 -124
q-12 -59 -63 -101.5t-135 -42.5q-83 0 -137.5 54.5t-54.5 122.5z"/>
            <glyph glyph-name="T.sc" horiz-adv-x="488"
                   d="M28 526v60h432v-60h-186v-526h-60v526h-186z"/>
            <glyph glyph-name="U.sc" horiz-adv-x="593"
                   d="M297 51q62 0 105 41t43 107v387h60v-387q0 -92 -60.5 -150t-147.5 -58q-88 0 -148.5 58t-60.5 150v387h60v-387q0 -66 43.5 -107t105.5 -41z"/>
            <glyph glyph-name="V.sc" horiz-adv-x="489"
                   d="M38 586h62l145 -487l144 487h62l-175 -586h-62z"/>
            <glyph glyph-name="W.sc" horiz-adv-x="794"
                   d="M539 95l161 491h64l-198 -586h-56l-113 388l-113 -388h-56l-198 586h64l161 -491l119 413h46z"/>
            <glyph glyph-name="X.sc" horiz-adv-x="526"
                   d="M481 586l-182 -271l206 -315h-73l-169 265l-169 -265h-72l205 315l-182 271h73l145 -220l146 220h72z"/>
            <glyph glyph-name="Y.sc" horiz-adv-x="546"
                   d="M304 272v-272h-62v272l-220 314h72l179 -250l182 250h72z"/>
            <glyph glyph-name="Z.sc" horiz-adv-x="498"
                   d="M46 58l327 468h-315v60h389v-59l-328 -467h328v-60h-401v58z"/>
            <glyph glyph-name="Scaron.sc" horiz-adv-x="504"
                   d="M193 777l60 -73l61 73h59l-82 -117h-75l-83 117h60zM58 168h60q0 -46 37.5 -83.5t94.5 -37.5q59 0 95.5 30t43.5 68q14 90 -109 121l-78 18q-139 31 -139 148q0 70 55.5 115t129.5 45q80 0 132 -46t52 -122h-60q0 50 -35 79.5t-89 29.5q-50 0 -87.5 -28.5t-37.5 -72.5
q0 -69 92 -91l80 -18q79 -18 121.5 -64t31.5 -124q-12 -59 -63 -101.5t-135 -42.5q-83 0 -137.5 54.5t-54.5 122.5z"/>
            <glyph glyph-name="OE.sc" horiz-adv-x="986"
                   d="M115 292q0 -100 68 -170t166 -70q97 0 164 66t71 163v21q-4 96 -71 163t-164 67q-98 0 -166 -70t-68 -170zM584 474v112h336v-60h-276v-209h241v-60h-241v-197h285v-60h-345v110q-88 -119 -235 -119q-124 0 -209 88t-85 213t85 212.5t209 87.5q148 0 235 -118z"/>
            <glyph glyph-name="Ydieresis.sc" horiz-adv-x="546"
                   d="M304 272v-272h-62v272l-220 314h72l179 -250l182 250h72zM155 716q0 19 13 31t32 12t32 -12t13 -31q0 -18 -13 -30t-32 -12t-32 12t-13 30zM304 716q0 18 13.5 30.5t31.5 12.5q19 0 32 -12t13 -31q0 -18 -13 -30t-32 -12q-18 0 -31.5 12t-13.5 30z"/>
            <glyph glyph-name="exclamdown.sc" horiz-adv-x="253"
                   d="M156 0h-60l6 429h48zM175 548q0 -20 -14 -32.5t-35 -12.5t-34.5 12.5t-13.5 32.5t14 33t34 13q21 0 35 -13t14 -33z"/>
            <glyph glyph-name="questiondown.sc" horiz-adv-x="425"
                   d="M332 -29h60q0 -74 -48 -120t-118 -46q-71 0 -122 45.5t-51 118.5q0 59 34.5 100.5t87.5 58.5q34 10 52.5 28.5t18.5 54.5v29h59v-29q0 -105 -112 -139q-34 -10 -57.5 -38t-23.5 -65q0 -46 34 -75.5t80 -29.5t76 29t30 78zM324 360q0 -20 -14 -33t-35 -13q-20 0 -34 13
t-14 33t13.5 32.5t34.5 12.5t35 -12.5t14 -32.5z"/>
            <glyph glyph-name="Agrave.sc" horiz-adv-x="567"
                   d="M315 645h-61l-76 117h73zM171 209h225l-112 294zM150 153l-59 -153h-64l225 586h64l224 -586h-64l-59 153h-267z"/>
            <glyph glyph-name="Aacute.sc" horiz-adv-x="567"
                   d="M387 762l-76 -117h-61l64 117h73zM171 209h225l-112 294zM150 153l-59 -153h-64l225 586h64l224 -586h-64l-59 153h-267z"/>
            <glyph glyph-name="Acircumflex.sc" horiz-adv-x="567"
                   d="M404 645h-60l-61 73l-60 -73h-60l83 117h75zM171 209h225l-112 294zM150 153l-59 -153h-64l225 586h64l224 -586h-64l-59 153h-267z"/>
            <glyph glyph-name="Atilde.sc" horiz-adv-x="567"
                   d="M245 703q-10 0 -18.5 -9.5t-9.5 -28.5h-45q2 49 23.5 71t49.5 22q21 0 43 -18t34 -18q10 0 18.5 8.5t9.5 27.5h45q-3 -49 -24 -70t-49 -21q-22 0 -44.5 18t-32.5 18zM171 209h225l-112 294zM150 153l-59 -153h-64l225 586h64l224 -586h-64l-59 153h-267z"/>
            <glyph glyph-name="Adieresis.sc" horiz-adv-x="567"
                   d="M163 716q0 19 13 31t32 12t32 -12t13 -31q0 -18 -13 -30t-32 -12t-32 12t-13 30zM312 716q0 18 13.5 30.5t31.5 12.5q19 0 32 -12t13 -31q0 -18 -13 -30t-32 -12q-18 0 -31.5 12t-13.5 30zM171 209h225l-112 294zM150 153l-59 -153h-64l225 586h64l224 -586h-64l-59 153
h-267z"/>
            <glyph glyph-name="Aring.sc" horiz-adv-x="567"
                   d="M199 726q0 35 24 59.5t59 24.5q36 0 60.5 -24.5t24.5 -59.5t-24.5 -59t-60.5 -24q-35 0 -59 24t-24 59zM244 726q0 -17 11 -28t28 -11t28 11t11 28t-11 28.5t-28 11.5t-28 -11.5t-11 -28.5zM171 209h225l-112 294zM150 153l-59 -153h-64l225 586h64l224 -586h-64l-59 153
h-267z"/>
            <glyph glyph-name="AE.sc" horiz-adv-x="823"
                   d="M421 520l-198 -311h198v311zM421 153h-233l-97 -153h-71l370 586h367v-60h-276v-209h241v-60h-241v-197h285v-60h-345v153z"/>
            <glyph glyph-name="Ccedilla.sc" horiz-adv-x="588"
                   d="M511 123l42 -42q-81 -85 -200 -89l21 -49q9 -20 7 -43q-4 -32 -30 -54.5t-62 -18.5q-30 3 -52.5 28t-22.5 61l47 -4q0 -21 16.5 -33.5t35.5 -4.5q15 6 20.5 21.5t-0.5 29.5l-29 69q-110 14 -179 98t-69 200q0 126 81.5 213t204.5 87q127 0 210 -89l-42 -41
q-71 71 -168 71q-98 0 -162 -70t-64 -171t64 -171t162 -70q99 0 169 72z"/>
            <glyph glyph-name="Egrave.sc" horiz-adv-x="496"
                   d="M303 645h-61l-76 117h74zM94 0v586h336v-59h-276v-210h242v-59h-242v-199h285v-59h-345z"/>
            <glyph glyph-name="Eacute.sc" horiz-adv-x="496"
                   d="M345 762l-76 -117h-61l64 117h73zM94 0v586h336v-59h-276v-210h242v-59h-242v-199h285v-59h-345z"/>
            <glyph glyph-name="Ecircumflex.sc" horiz-adv-x="496"
                   d="M370 645h-60l-60 73l-61 -73h-59l83 117h74zM94 0v586h336v-59h-276v-210h242v-59h-242v-199h285v-59h-345z"/>
            <glyph glyph-name="Edieresis.sc" horiz-adv-x="496"
                   d="M130 716q0 19 13 31t32 12q18 0 31.5 -12.5t13.5 -30.5t-13.5 -30t-31.5 -12q-19 0 -32 12t-13 30zM279 716q0 19 13 31t32 12t32 -12t13 -31q0 -18 -13 -30t-32 -12t-32 12t-13 30zM94 0v586h336v-59h-276v-210h242v-59h-242v-199h285v-59h-345z"/>
            <glyph glyph-name="Igrave.sc" horiz-adv-x="248"
                   d="M154 645h-61l-76 117h74zM94 586h60v-586h-60v586z"/>
            <glyph glyph-name="Iacute.sc" horiz-adv-x="248"
                   d="M230 762l-76 -117h-61l63 117h74zM94 586h60v-586h-60v586z"/>
            <glyph glyph-name="Icircumflex.sc" horiz-adv-x="248"
                   d="M245 645h-60l-61 73l-60 -73h-60l83 117h75zM94 586h60v-586h-60v586z"/>
            <glyph glyph-name="Idieresis.sc" horiz-adv-x="248"
                   d="M5 716q0 19 13 31t32 12q18 0 31.5 -12.5t13.5 -30.5t-13.5 -30t-31.5 -12q-19 0 -32 12t-13 30zM154 716q0 18 13.5 30.5t31.5 12.5q19 0 32 -12t13 -31q0 -18 -13 -30t-32 -12q-18 0 -31.5 12t-13.5 30zM94 586h60v-586h-60v586z"/>
            <glyph glyph-name="Eth.sc" horiz-adv-x="636"
                   d="M158 526v-207h145v-53h-145v-206h160q97 0 148.5 64t51.5 168q0 103 -52 168.5t-148 65.5h-160zM318 0h-220v266h-83v53h83v267h220q121 0 190.5 -83t69.5 -211q0 -127 -69.5 -209.5t-190.5 -82.5z"/>
            <glyph glyph-name="Ntilde.sc" horiz-adv-x="602"
                   d="M262 703q-10 0 -18.5 -9.5t-9.5 -28.5h-44q2 48 23.5 70.5t48.5 22.5q21 0 43.5 -18t33.5 -18q10 0 19 8.5t9 27.5h45q-6 -91 -73 -91q-21 0 -44 18t-33 18zM508 586v-586h-61l-293 482v-482h-60v586h63l291 -479v479h60z"/>
            <glyph glyph-name="Ograve.sc" horiz-adv-x="700"
                   d="M386 645h-60l-77 117h74zM115 292q0 -100 67.5 -170.5t166.5 -70.5q100 0 168 70.5t68 170.5t-68 170.5t-168 70.5q-99 0 -166.5 -70.5t-67.5 -170.5zM55 292q0 125 85 212.5t209 87.5q125 0 210.5 -87.5t85.5 -212.5t-85.5 -213t-210.5 -88q-124 0 -209 88t-85 213z"/>
            <glyph glyph-name="Oacute.sc" horiz-adv-x="700"
                   d="M445 762l-76 -117h-61l64 117h73zM115 292q0 -100 67.5 -170.5t166.5 -70.5q100 0 168 70.5t68 170.5t-68 170.5t-168 70.5q-99 0 -166.5 -70.5t-67.5 -170.5zM55 292q0 125 85 212.5t209 87.5q125 0 210.5 -87.5t85.5 -212.5t-85.5 -213t-210.5 -88q-124 0 -209 88
t-85 213z"/>
            <glyph glyph-name="Ocircumflex.sc" horiz-adv-x="700"
                   d="M470 645h-60l-61 73l-60 -73h-60l83 117h75zM115 292q0 -100 67.5 -170.5t166.5 -70.5q100 0 168 70.5t68 170.5t-68 170.5t-168 70.5q-99 0 -166.5 -70.5t-67.5 -170.5zM55 292q0 125 85 212.5t209 87.5q125 0 210.5 -87.5t85.5 -212.5t-85.5 -213t-210.5 -88
q-124 0 -209 88t-85 213z"/>
            <glyph glyph-name="Otilde.sc" horiz-adv-x="700"
                   d="M311 703q-10 0 -18.5 -9.5t-9.5 -28.5h-44q2 48 23.5 70.5t48.5 22.5q21 0 43.5 -18t33.5 -18q10 0 19 8.5t9 27.5h45q-6 -91 -73 -91q-21 0 -44 18t-33 18zM115 292q0 -100 67.5 -170.5t166.5 -70.5q100 0 168 70.5t68 170.5t-68 170.5t-168 70.5q-99 0 -166.5 -70.5
t-67.5 -170.5zM55 292q0 125 85 212.5t209 87.5q125 0 210.5 -87.5t85.5 -212.5t-85.5 -213t-210.5 -88q-124 0 -209 88t-85 213z"/>
            <glyph glyph-name="Odieresis.sc" horiz-adv-x="700"
                   d="M231 716q0 19 13 31t32 12q18 0 31.5 -12.5t13.5 -30.5t-13.5 -30t-31.5 -12q-19 0 -32 12t-13 30zM380 716q0 19 13 31t32 12t32 -12t13 -31q0 -18 -13 -30t-32 -12t-32 12t-13 30zM115 292q0 -100 67.5 -170.5t166.5 -70.5q100 0 168 70.5t68 170.5t-68 170.5
t-168 70.5q-99 0 -166.5 -70.5t-67.5 -170.5zM55 292q0 125 85 212.5t209 87.5q125 0 210.5 -87.5t85.5 -212.5t-85.5 -213t-210.5 -88q-124 0 -209 88t-85 213z"/>
            <glyph glyph-name="Oslash.sc" horiz-adv-x="699"
                   d="M348 51q100 0 168 70.5t68 170.5q0 84 -52 152l-331 -341q63 -52 147 -52zM114 292q0 -90 54 -156l332 341q-66 56 -152 56q-99 0 -166.5 -70.5t-67.5 -170.5zM159 60l-68 -70l-33 33l68 70q-72 85 -72 199q0 125 85 212.5t209 87.5q112 0 194 -72l72 75l33 -33l-73 -76
q70 -83 70 -194q0 -125 -85.5 -213t-210.5 -88q-107 0 -189 69z"/>
            <glyph glyph-name="Ugrave.sc" horiz-adv-x="593"
                   d="M297 51q62 0 105 41t43 107v387h60v-387q0 -92 -60.5 -150t-147.5 -58q-88 0 -148.5 58t-60.5 150v387h60v-387q0 -66 43.5 -107t105.5 -41zM285 645l-77 117h74l63 -117h-60z"/>
            <glyph glyph-name="Uacute.sc" horiz-adv-x="593"
                   d="M297 51q62 0 105 41t43 107v387h60v-387q0 -92 -60.5 -150t-147.5 -58q-88 0 -148.5 58t-60.5 150v387h60v-387q0 -66 43.5 -107t105.5 -41zM393 762l-77 -117h-60l63 117h74z"/>
            <glyph glyph-name="Ucircumflex.sc" horiz-adv-x="593"
                   d="M297 51q62 0 105 41t43 107v387h60v-387q0 -92 -60.5 -150t-147.5 -58q-88 0 -148.5 58t-60.5 150v387h60v-387q0 -66 43.5 -107t105.5 -41zM419 645h-60l-61 73l-60 -73h-60l83 117h75z"/>
            <glyph glyph-name="Udieresis.sc" horiz-adv-x="593"
                   d="M297 51q62 0 105 41t43 107v387h60v-387q0 -92 -60.5 -150t-147.5 -58q-88 0 -148.5 58t-60.5 150v387h60v-387q0 -66 43.5 -107t105.5 -41zM177 716q0 18 13 30.5t31 12.5q19 0 32 -12t13 -31q0 -18 -13 -30t-32 -12q-18 0 -31 12t-13 30zM326 716q0 19 13 31t32 12
q18 0 31.5 -12.5t13.5 -30.5t-13.5 -30t-31.5 -12q-19 0 -32 12t-13 30z"/>
            <glyph glyph-name="Yacute.sc" horiz-adv-x="546"
                   d="M304 272v-272h-62v272l-220 314h72l179 -250l182 250h72zM375 762l-76 -117h-61l64 117h73z"/>
            <glyph glyph-name="Thorn.sc" horiz-adv-x="506"
                   d="M155 181h134q49 0 82 33.5t33 86.5t-33.5 85t-82.5 32h-133v-237zM289 122h-134v-122h-61v586h61v-108h134q75 0 125 -49t50 -128q0 -80 -49.5 -129.5t-125.5 -49.5z"/>
            <glyph glyph-name="Amacron.sc" horiz-adv-x="567"
                   d="M181 700v56h205v-56h-205zM171 209h225l-112 294zM150 153l-59 -153h-64l225 586h64l224 -586h-64l-59 153h-267z"/>
            <glyph glyph-name="Abreve.sc" horiz-adv-x="567"
                   d="M177 773h47q3 -25 18.5 -41t40.5 -16q27 0 41.5 16.5t17.5 40.5h47q0 -48 -29 -77t-77 -29q-53 0 -79.5 31t-26.5 75zM171 209h225l-112 294zM150 153l-59 -153h-64l225 586h64l224 -586h-64l-59 153h-267z"/>
            <glyph glyph-name="Cacute.sc" horiz-adv-x="586"
                   d="M419 777l-77 -117h-60l63 117h74zM510 123l42 -42q-84 -90 -211 -90q-122 0 -204 87.5t-82 213.5t81.5 213t204.5 87q127 0 210 -89l-42 -41q-71 71 -168 71q-98 0 -162 -70t-64 -171t64 -171t162 -70q99 0 169 72z"/>
            <glyph glyph-name="Ccircumflex.sc" horiz-adv-x="586"
                   d="M455 660h-60l-61 74l-60 -74h-59l82 117h75zM510 123l42 -42q-84 -90 -211 -90q-122 0 -204 87.5t-82 213.5t81.5 213t204.5 87q127 0 210 -89l-42 -41q-71 71 -168 71q-98 0 -162 -70t-64 -171t64 -171t162 -70q99 0 169 72z"/>
            <glyph glyph-name="Cdotaccent.sc" horiz-adv-x="586"
                   d="M279 733q0 18 13.5 30.5t31.5 12.5q19 0 32 -12t13 -31q0 -18 -13 -30t-32 -12q-18 0 -31.5 12t-13.5 30zM510 123l42 -42q-84 -90 -211 -90q-122 0 -204 87.5t-82 213.5t81.5 213t204.5 87q127 0 210 -89l-42 -41q-71 71 -168 71q-98 0 -162 -70t-64 -171t64 -171
t162 -70q99 0 169 72z"/>
            <glyph glyph-name="Ccaron.sc" horiz-adv-x="586"
                   d="M267 777l61 -73l60 73h60l-83 -117h-75l-83 117h60zM510 123l42 -42q-84 -90 -211 -90q-122 0 -204 87.5t-82 213.5t81.5 213t204.5 87q127 0 210 -89l-42 -41q-71 71 -168 71q-98 0 -162 -70t-64 -171t64 -171t162 -70q99 0 169 72z"/>
            <glyph glyph-name="Dcaron.sc" horiz-adv-x="632"
                   d="M242 777l61 -73l60 73h60l-83 -117h-75l-83 117h60zM154 526v-466h160q97 0 148.5 64t51.5 168q0 103 -52 168.5t-148 65.5h-160zM314 0h-220v586h220q121 0 190.5 -83t69.5 -211q0 -127 -69.5 -209.5t-190.5 -82.5z"/>
            <glyph glyph-name="Aogonek.sc" horiz-adv-x="567"
                   d="M396 209l-112 294l-113 -294h225zM451 -63q9 26 25 63l-59 153h-267l-59 -153h-64l225 586h64l224 -586h-25l-22 -75q-6 -15 -0.5 -30t20.5 -21q19 -8 35.5 4.5t16.5 33.5l47 4q0 -36 -22 -61.5t-52 -28.5q-50 -6 -75.5 32t-11.5 79z"/>
            <glyph glyph-name="Emacron.sc" horiz-adv-x="496"
                   d="M150 700v56h204v-56h-204zM94 0v586h336v-59h-276v-210h242v-59h-242v-199h285v-59h-345z"/>
            <glyph glyph-name="Ebreve.sc" horiz-adv-x="496"
                   d="M143 773h47q3 -25 18.5 -41t40.5 -16q27 0 41.5 16.5t17.5 40.5h48q0 -48 -29.5 -77t-77.5 -29q-53 0 -79.5 31t-26.5 75zM94 0v586h336v-59h-276v-210h242v-59h-242v-199h285v-59h-345z"/>
            <glyph glyph-name="Edotaccent.sc" horiz-adv-x="496"
                   d="M221 733q0 18 13.5 30.5t32.5 12.5q18 0 31.5 -12.5t13.5 -30.5t-13.5 -30t-31.5 -12q-19 0 -32.5 12t-13.5 30zM94 0v586h336v-59h-276v-210h242v-59h-242v-199h285v-59h-345z"/>
            <glyph glyph-name="Ecaron.sc" horiz-adv-x="496"
                   d="M200 777l61 -73l60 73h60l-83 -117h-75l-82 117h59zM94 0v586h336v-59h-276v-210h242v-59h-242v-199h285v-59h-345z"/>
            <glyph glyph-name="Gcircumflex.sc" horiz-adv-x="662"
                   d="M455 660h-60l-61 74l-60 -74h-60l83 117h75zM385 233v55h237q0 -147 -72 -222t-201 -75q-124 0 -209 88t-85 213t85 212.5t209 87.5q107 0 189 -69l-43 -42q-63 52 -146 52q-99 0 -166.5 -70.5t-67.5 -170.5t67.5 -170.5t166.5 -70.5q92 0 146.5 48.5t59.5 133.5h-170z
"/>
            <glyph glyph-name="Gbreve.sc" horiz-adv-x="662"
                   d="M229 773h48q3 -25 18.5 -41t40.5 -16q27 0 41 16.5t17 40.5h48q0 -48 -29 -77t-77 -29q-53 0 -80 31t-27 75zM385 233v55h237q0 -147 -72 -222t-201 -75q-124 0 -209 88t-85 213t85 212.5t209 87.5q107 0 189 -69l-43 -42q-63 52 -146 52q-99 0 -166.5 -70.5
t-67.5 -170.5t67.5 -170.5t166.5 -70.5q92 0 146.5 48.5t59.5 133.5h-170z"/>
            <glyph glyph-name="Eogonek.sc" horiz-adv-x="496"
                   d="M398 0h-304v586h336v-59h-276v-210h242v-59h-242v-199h285v-59l-31 -74q-6 -14 0 -29t21 -21q18 -8 35 4.5t17 33.5l46 3q0 -35 -22 -60.5t-52 -28.5q-34 -4 -63.5 20t-31.5 55q-2 23 9 42z"/>
            <glyph glyph-name="Dcroat.sc" horiz-adv-x="636"
                   d="M158 526v-207h145v-53h-145v-206h160q97 0 148.5 64t51.5 168q0 103 -52 168.5t-148 65.5h-160zM318 0h-220v266h-83v53h83v267h220q121 0 190.5 -83t69.5 -211q0 -127 -69.5 -209.5t-190.5 -82.5z"/>
            <glyph glyph-name="Gdotaccent.sc" horiz-adv-x="662"
                   d="M292 733q0 18 13.5 30.5t32.5 12.5q18 0 31.5 -12.5t13.5 -30.5t-13.5 -30t-31.5 -12q-19 0 -32.5 12t-13.5 30zM385 233v55h237q0 -147 -72 -222t-201 -75q-124 0 -209 88t-85 213t85 212.5t209 87.5q107 0 189 -69l-43 -42q-63 52 -146 52q-99 0 -166.5 -70.5
t-67.5 -170.5t67.5 -170.5t166.5 -70.5q92 0 146.5 48.5t59.5 133.5h-170z"/>
            <glyph glyph-name="Hcircumflex.sc" horiz-adv-x="623"
                   d="M431 660h-59l-61 74l-60 -74h-60l83 117h74zM469 586h60v-586h-60v263h-315v-263h-60v586h60v-267h315v267z"/>
            <glyph glyph-name="Hbar.sc" horiz-adv-x="632"
                   d="M159 440v-121h314v121h-314zM533 586v-104h62v-42h-62v-440h-60v262h-314v-262h-60v440h-61v42h61v104h60v-104h314v104h60z"/>
            <glyph glyph-name="Itilde.sc" horiz-adv-x="248"
                   d="M86 718q-10 0 -18.5 -9.5t-9.5 -28.5h-45q2 49 23.5 71t49.5 22q21 0 43 -17.5t34 -17.5q10 0 18.5 8.5t9.5 26.5h45q-3 -48 -24 -69t-49 -21q-22 0 -44.5 17.5t-32.5 17.5zM94 586h60v-586h-60v586z"/>
            <glyph glyph-name="Imacron.sc" horiz-adv-x="248"
                   d="M22 700v56h204v-56h-204zM94 586h60v-586h-60v586z"/>
            <glyph glyph-name="Iogonek.sc" horiz-adv-x="248"
                   d="M94 0v586h60v-586h-28l-16 -75q-8 -40 21 -51q18 -8 35 4.5t17 33.5l46 4q0 -36 -22 -61.5t-52 -28.5q-50 -6 -76 31.5t-11 79.5q3 10 13 32t13 31z"/>
            <glyph glyph-name="IJ.sc" horiz-adv-x="496"
                   d="M94 586h60v-586h-60v586zM172 -211l6 59q21 -7 49 -7q59 0 87 36t28 92v617h60v-617q0 -83 -42.5 -135t-132.5 -52q-29 0 -55 7z"/>
            <glyph glyph-name="Jcircumflex.sc" horiz-adv-x="248"
                   d="M-76 -211l6 59q21 -7 49 -7q59 0 87 36t28 92v617h60v-617q0 -83 -42.5 -135t-132.5 -52q-29 0 -55 7zM243 660h-59l-61 74l-60 -74h-60l83 117h74z"/>
            <glyph glyph-name="Lacute.sc" horiz-adv-x="429"
                   d="M232 776l-76 -117h-61l63 117h74zM94 0v586h60v-527h247v-59h-307z"/>
            <glyph glyph-name="Lcaron.sc" horiz-adv-x="429"
                   d="M94 0v586h60v-527h247v-59h-307zM263 405l-37 11q50 70 49 170h61q-11 -136 -73 -181z"/>
            <glyph glyph-name="Ldot.sc" horiz-adv-x="429"
                   d="M94 0v586h60v-527h247v-59h-307zM229 242q0 19 13 31t32 12q18 0 31.5 -12.5t13.5 -30.5t-13.5 -30t-31.5 -12q-19 0 -32 12t-13 30z"/>
            <glyph glyph-name="Nacute.sc" horiz-adv-x="602"
                   d="M403 777l-76 -117h-61l64 117h73zM508 586v-586h-61l-293 482v-482h-60v586h63l291 -479v479h60z"/>
            <glyph glyph-name="Ncaron.sc" horiz-adv-x="602"
                   d="M240 777l61 -73l60 73h60l-83 -117h-75l-83 117h60zM508 586v-586h-61l-293 482v-482h-60v586h63l291 -479v479h60z"/>
            <glyph glyph-name="Omacron.sc" horiz-adv-x="700"
                   d="M247 700v56h205v-56h-205zM115 292q0 -100 67.5 -170.5t166.5 -70.5q100 0 168 70.5t68 170.5t-68 170.5t-168 70.5q-99 0 -166.5 -70.5t-67.5 -170.5zM55 292q0 125 85 212.5t209 87.5q125 0 210.5 -87.5t85.5 -212.5t-85.5 -213t-210.5 -88q-124 0 -209 88t-85 213z
"/>
            <glyph glyph-name="Obreve.sc" horiz-adv-x="700"
                   d="M244 773h47q3 -25 18.5 -41t40.5 -16q27 0 41.5 16.5t17.5 40.5h47q0 -48 -29 -77t-77 -29q-53 0 -79.5 31t-26.5 75zM115 292q0 -100 67.5 -170.5t166.5 -70.5q100 0 168 70.5t68 170.5t-68 170.5t-168 70.5q-99 0 -166.5 -70.5t-67.5 -170.5zM55 292q0 125 85 212.5
t209 87.5q125 0 210.5 -87.5t85.5 -212.5t-85.5 -213t-210.5 -88q-124 0 -209 88t-85 213z"/>
            <glyph glyph-name="Ohungarumlaut.sc" horiz-adv-x="700"
                   d="M496 777l-74 -117h-60l63 117h71zM383 777l-62 -117h-63l60 117h65zM115 292q0 -100 67.5 -170.5t166.5 -70.5q100 0 168 70.5t68 170.5t-68 170.5t-168 70.5q-99 0 -166.5 -70.5t-67.5 -170.5zM55 292q0 125 85 212.5t209 87.5q125 0 210.5 -87.5t85.5 -212.5
t-85.5 -213t-210.5 -88q-124 0 -209 88t-85 213z"/>
            <glyph glyph-name="Racute.sc" horiz-adv-x="538"
                   d="M338 777l-76 -117h-61l64 117h73zM312 527h-157v-241h153q56 0 82.5 34.5t26.5 85.5t-25.5 86t-79.5 35zM322 227l161 -227h-74l-160 227h-94v-227h-61v586h219q83 0 123.5 -52.5t40.5 -127.5q0 -74 -38 -124.5t-117 -54.5z"/>
            <glyph glyph-name="Rcaron.sc" horiz-adv-x="538"
                   d="M209 777l61 -73l60 73h60l-83 -117h-75l-83 117h60zM312 527h-157v-241h153q56 0 82.5 34.5t26.5 85.5t-25.5 86t-79.5 35zM322 227l161 -227h-74l-160 227h-94v-227h-61v586h219q83 0 123.5 -52.5t40.5 -127.5q0 -74 -38 -124.5t-117 -54.5z"/>
            <glyph glyph-name="Sacute.sc" horiz-adv-x="504"
                   d="M342 777l-77 -117h-60l63 117h74zM58 168h60q0 -45 37.5 -81t94.5 -36q60 0 96 28t43 66q14 90 -109 121l-78 18q-139 31 -139 148q0 70 55.5 115t129.5 45q80 0 132 -46t52 -122h-60q0 50 -35 79.5t-89 29.5q-50 0 -87.5 -28.5t-37.5 -72.5q0 -69 92 -91l80 -18
q79 -18 121.5 -64t31.5 -124q-12 -59 -63 -101.5t-135 -42.5q-83 0 -137.5 54.5t-54.5 122.5z"/>
            <glyph glyph-name="Scircumflex.sc" horiz-adv-x="504"
                   d="M373 660h-60l-61 74l-60 -74h-60l83 117h75zM58 168h60q0 -45 37.5 -81t94.5 -36q60 0 96 28t43 66q14 90 -109 121l-78 18q-139 31 -139 148q0 70 55.5 115t129.5 45q80 0 132 -46t52 -122h-60q0 50 -35 79.5t-89 29.5q-50 0 -87.5 -28.5t-37.5 -72.5q0 -69 92 -91
l80 -18q79 -18 121.5 -64t31.5 -124q-12 -59 -63 -101.5t-135 -42.5q-83 0 -137.5 54.5t-54.5 122.5z"/>
            <glyph glyph-name="Scedilla.sc" horiz-adv-x="506"
                   d="M59 168h60q0 -45 37.5 -81t94.5 -36q60 0 96 28t43 66q14 90 -109 121l-79 18q-138 31 -138 148q0 70 55.5 115t129.5 45q80 0 132 -46t52 -122h-60q0 50 -35 79.5t-89 29.5q-50 0 -87.5 -28.5t-37.5 -72.5q0 -69 92 -91l80 -18q79 -18 121.5 -64t31.5 -124
q-9 -49 -47 -88t-100 -50l25 -54q1 -1 1 -6q11 -33 -3.5 -64t-48.5 -42q-40 -13 -74.5 12t-34.5 73l46 -4q0 -21 16.5 -33.5t35.5 -4.5q15 6 20.5 21t0.5 30l-25 66h-6q-86 0 -141 53.5t-55 123.5z"/>
            <glyph glyph-name="Utilde.sc" horiz-adv-x="593"
                   d="M297 51q62 0 105 41t43 107v387h60v-387q0 -92 -60.5 -150t-147.5 -58q-88 0 -148.5 58t-60.5 150v387h60v-387q0 -66 43.5 -107t105.5 -41zM256 703q-10 0 -18.5 -9.5t-9.5 -28.5h-45q2 49 23.5 71t49.5 22q21 0 43 -18t34 -18q10 0 18.5 8.5t9.5 27.5h45
q-3 -49 -24 -70t-49 -21q-22 0 -44.5 18t-32.5 18z"/>
            <glyph glyph-name="Umacron.sc" horiz-adv-x="593"
                   d="M297 51q62 0 105 41t43 107v387h60v-387q0 -92 -60.5 -150t-147.5 -58q-88 0 -148.5 58t-60.5 150v387h60v-387q0 -66 43.5 -107t105.5 -41zM198 700v56h205v-56h-205z"/>
            <glyph glyph-name="Ubreve.sc" horiz-adv-x="593"
                   d="M297 51q62 0 105 41t43 107v387h60v-387q0 -92 -60.5 -150t-147.5 -58q-88 0 -148.5 58t-60.5 150v387h60v-387q0 -66 43.5 -107t105.5 -41zM190 773h48q3 -25 18 -41t40 -16q27 0 41.5 16.5t17.5 40.5h48q0 -48 -29 -77t-78 -29q-53 0 -79.5 31t-26.5 75z"/>
            <glyph glyph-name="Uring.sc" horiz-adv-x="593"
                   d="M297 51q62 0 105 41t43 107v387h60v-387q0 -92 -60.5 -150t-147.5 -58q-88 0 -148.5 58t-60.5 150v387h60v-387q0 -66 43.5 -107t105.5 -41zM213 741q0 36 24 60.5t59 24.5t59.5 -24.5t24.5 -60.5q0 -35 -24.5 -59t-59.5 -24t-59 24t-24 59zM257 742q0 -17 11 -28t28 -11
t28.5 11t11.5 28t-11.5 28t-28.5 11t-28 -11t-11 -28z"/>
            <glyph glyph-name="Uhungarumlaut.sc" horiz-adv-x="593"
                   d="M297 51q62 0 105 41t43 107v387h60v-387q0 -92 -60.5 -150t-147.5 -58q-88 0 -148.5 58t-60.5 150v387h60v-387q0 -66 43.5 -107t105.5 -41zM435 777l-74 -117h-60l62 117h72zM322 777l-62 -117h-63l60 117h65z"/>
            <glyph glyph-name="Uogonek.sc" horiz-adv-x="593"
                   d="M297 51q62 0 105 41t43 107v387h60v-387q0 -84 -50 -139.5t-127 -65.5l-27 -69q-6 -14 -0.5 -29.5t20.5 -21.5q20 -8 34 4t18 34l47 4q0 -36 -22 -61t-52 -28q-35 -4 -63.5 19t-30.5 55q-2 24 8 42l25 49q-84 4 -140.5 61t-56.5 146v387h60v-387q0 -66 43.5 -107
t105.5 -41z"/>
            <glyph glyph-name="Wcircumflex.sc" horiz-adv-x="794"
                   d="M517 660h-60l-61 74l-60 -74h-60l83 117h75zM539 95l161 491h64l-198 -586h-56l-113 388l-113 -388h-56l-198 586h64l161 -491l119 413h46z"/>
            <glyph glyph-name="Ycircumflex.sc" horiz-adv-x="546"
                   d="M304 272v-272h-62v272l-220 314h72l179 -250l182 250h72zM394 660h-60l-61 74l-60 -74h-60l83 117h75z"/>
            <glyph glyph-name="Tcaron.sc" horiz-adv-x="489"
                   d="M183 777l61 -73l60 73h60l-83 -117h-75l-83 117h60zM274 526v-526h-60v526h-186v60h433v-60h-187z"/>
            <glyph glyph-name="Tbar.sc" horiz-adv-x="488"
                   d="M274 526v-182h113v-41h-113v-303h-60v303h-111v41h111v182h-186v60h433v-60h-187z"/>
            <glyph glyph-name="Zacute.sc" horiz-adv-x="498"
                   d="M46 58l327 468h-315v60h389v-59l-328 -467h328v-60h-401v58zM335 777l-77 -117h-60l63 117h74z"/>
            <glyph glyph-name="Zdotaccent.sc" horiz-adv-x="498"
                   d="M46 58l327 468h-315v60h389v-59l-328 -467h328v-60h-401v58zM202 733q0 19 13 31t32 12q18 0 31.5 -12.5t13.5 -30.5t-13.5 -30t-31.5 -12q-19 0 -32 12t-13 30z"/>
            <glyph glyph-name="Wgrave.sc" horiz-adv-x="794"
                   d="M422 660h-61l-76 117h74zM539 95l161 491h64l-198 -586h-56l-113 388l-113 -388h-56l-198 586h64l161 -491l119 413h46z"/>
            <glyph glyph-name="Wacute.sc" horiz-adv-x="794"
                   d="M511 777l-77 -117h-60l63 117h74zM539 95l161 491h64l-198 -586h-56l-113 388l-113 -388h-56l-198 586h64l161 -491l119 413h46z"/>
            <glyph glyph-name="Wdieresis.sc" horiz-adv-x="794"
                   d="M277 732q0 18 13 30t32 12q18 0 31 -12t13 -30t-13 -30t-31 -12q-19 0 -32 12t-13 30zM426 732q0 18 13 30t32 12t32 -12t13 -30t-13 -30t-32 -12t-32 12t-13 30zM539 95l161 491h64l-198 -586h-56l-113 388l-113 -388h-56l-198 586h64l161 -491l119 413h46z"/>
            <glyph glyph-name="Aringacute.sc" horiz-adv-x="567"
                   d="M384 923l-69 -105q25 -11 38 -34.5t11 -51.5q-2 -32 -25.5 -53t-56.5 -21q-35 0 -59 23.5t-24 58.5q0 29 15.5 50.5t40.5 29.5l56 103h73zM244 741q0 -17 11 -28t28 -11t28 11t11 28t-11 28.5t-28 11.5t-28 -11.5t-11 -28.5zM171 209h225l-112 294zM150 153l-59 -153h-64
l225 586h64l224 -586h-64l-59 153h-267z"/>
            <glyph glyph-name="AEacute.sc" horiz-adv-x="823"
                   d="M551 777l-76 -117h-61l64 117h73zM421 520l-198 -311h198v311zM421 153h-233l-97 -153h-71l370 586h367v-60h-276v-209h241v-60h-241v-197h285v-60h-345v153z"/>
            <glyph glyph-name="Oslashacute.sc" horiz-adv-x="699"
                   d="M444 777l-76 -117h-61l63 117h74zM348 51q100 0 168 70.5t68 170.5q0 84 -52 152l-331 -341q63 -52 147 -52zM114 292q0 -90 54 -156l332 341q-66 56 -152 56q-99 0 -166.5 -70.5t-67.5 -170.5zM159 60l-68 -70l-33 33l68 70q-72 85 -72 199q0 125 85 212.5t209 87.5
q112 0 194 -72l72 75l33 -33l-73 -76q70 -83 70 -194q0 -125 -85.5 -213t-210.5 -88q-107 0 -189 69z"/>
            <glyph glyph-name="Ibreve.sc" horiz-adv-x="248"
                   d="M18 773h47q9 -57 59 -57q27 0 41.5 16.5t17.5 40.5h48q0 -48 -29 -77t-78 -29q-53 0 -79.5 31t-26.5 75zM94 586h60v-586h-60v586z"/>
            <glyph glyph-name="Eng.sc" horiz-adv-x="602"
                   d="M448 -31v32l-294 480v-481h-60v586h63l291 -483v483h60v-585q0 -48 -7 -83.5t-25 -68t-54.5 -50t-89.5 -17.5q-24 0 -54 8l5 59q16 -6 48 -6q60 0 88.5 35t28.5 91z"/>
            <glyph glyph-name="Ygrave.sc" horiz-adv-x="546"
                   d="M304 272v-272h-62v272l-220 314h72l179 -250l182 250h72zM260 645l-76 117h73l64 -117h-61z"/>
            <glyph glyph-name="Gcommaaccent.sc" horiz-adv-x="662"
                   d="M385 233v55h237q0 -147 -72 -222t-201 -75q-124 0 -209 88t-85 213t85 212.5t209 87.5q107 0 189 -69l-43 -42q-63 52 -146 52q-99 0 -166.5 -70.5t-67.5 -170.5t67.5 -170.5t166.5 -70.5q92 0 146.5 48.5t59.5 133.5h-170zM314 -210l-43 12q49 66 37 145h67
q1 -104 -61 -157z"/>
            <glyph glyph-name="Kcommaaccent.sc" horiz-adv-x="497"
                   d="M214 293l277 -293h-81l-256 271v-271h-60v586h60v-280l216 280h71zM259 -210l-43 12q49 66 37 145h67q1 -104 -61 -157z"/>
            <glyph glyph-name="Lcommaaccent.sc" horiz-adv-x="429"
                   d="M94 0v586h60v-527h247v-59h-307zM218 -210l-43 12q49 66 37 145h67q1 -104 -61 -157z"/>
            <glyph glyph-name="Ncommaaccent.sc" horiz-adv-x="602"
                   d="M508 586v-586h-61l-293 482v-482h-60v586h63l291 -479v479h60zM283 -210l-43 12q49 66 37 145h67q1 -104 -61 -157z"/>
            <glyph glyph-name="Rcommaaccent.sc" horiz-adv-x="538"
                   d="M312 527h-157v-241h153q56 0 82.5 34.5t26.5 85.5t-25.5 86t-79.5 35zM322 227l161 -227h-74l-160 227h-94v-227h-61v586h219q83 0 123.5 -52.5t40.5 -127.5q0 -74 -38 -124.5t-117 -54.5zM250 -210l-43 12q49 66 37 145h67q1 -104 -61 -157z"/>
            <glyph glyph-name="Tcommaaccent.sc" horiz-adv-x="488"
                   d="M28 526v60h432v-60h-186v-526h-60v526h-186zM222 -210l-43 12q49 66 37 145h67q1 -104 -61 -157z"/>
            <glyph glyph-name="Scommaaccent.sc" horiz-adv-x="504"
                   d="M58 168h60q0 -46 37.5 -83.5t94.5 -37.5q59 0 95.5 30t43.5 68q14 90 -109 121l-78 18q-139 31 -139 148q0 70 55.5 115t129.5 45q80 0 132 -46t52 -122h-60q0 50 -35 79.5t-89 29.5q-50 0 -87.5 -28.5t-37.5 -72.5q0 -69 92 -91l80 -18q79 -18 121.5 -64t31.5 -124
q-12 -59 -63 -101.5t-135 -42.5q-83 0 -137.5 54.5t-54.5 122.5zM229 -210l-43 12q49 66 37 145h67q1 -104 -61 -157z"/>
            <glyph glyph-name="Idotaccent.sc" horiz-adv-x="248"
                   d="M79 733q0 19 13 31t32 12t32 -12t13 -31q0 -18 -13 -30t-32 -12t-32 12t-13 30zM94 586h60v-586h-60v586z"/>
            <glyph glyph-name="zero.numr" horiz-adv-x="365"
                   d="M91 468q0 -150 91 -150t91 150q0 151 -91 151t-91 -151zM42 468q0 45 6.5 79t21.5 62.5t43.5 43.5t68.5 15q78 0 109 -53t31 -147q0 -92 -31 -145t-109 -53q-140 0 -140 198z"/>
            <glyph glyph-name="one.numr" horiz-adv-x="201"
                   d="M144 273h-53v325l-64 -23v51l117 43v-396z"/>
            <glyph glyph-name="two.numr" horiz-adv-x="323"
                   d="M39 273v24l159 192q29 36 29 65t-20 46t-50 17q-28 0 -49 -17t-25 -45l-49 12q8 47 42 75t81 28q52 0 87.5 -32.5t35.5 -83.5t-43 -101q-22 -26 -36 -42.5t-32.5 -38.5t-38.5 -46h150v-53h-241z"/>
            <glyph glyph-name="three.numr" horiz-adv-x="326"
                   d="M50 613q16 28 46.5 44t66.5 14q48 -4 78 -35t30 -74q-2 -51 -47 -78q30 -11 48 -41.5t15 -63.5q-4 -50 -46.5 -82.5t-97.5 -28.5q-38 3 -69.5 25t-46.5 56l44 25q21 -46 76 -53q33 -2 58.5 17t27.5 48q2 28 -21.5 49.5t-55.5 21.5h-44v51h44q22 0 37 13t18 33
q4 26 -11 43t-42 20q-44 4 -70 -35q-5 4 -18 14.5t-20 16.5z"/>
            <glyph glyph-name="four.numr" horiz-adv-x="362"
                   d="M223 569l-113 -165h113v165zM333 354h-57v-81h-53v81h-204l217 311h40v-261h57v-50z"/>
            <glyph glyph-name="five.numr" horiz-adv-x="340"
                   d="M30 356l43 31q11 -30 35 -48.5t52 -18.5q42 0 68.5 22.5t26.5 56.5t-24 52.5t-55 18.5q-30 0 -53 -7t-68 -29l-11 12l39 219h199v-51h-155l-20 -107q33 16 69 16q56 0 93.5 -32.5t37.5 -91.5t-41.5 -95.5t-105.5 -36.5q-41 0 -75 24.5t-55 64.5z"/>
            <glyph glyph-name="six.numr" horiz-adv-x="338"
                   d="M297 597l-47 -20q-23 45 -67 45q-42 0 -67.5 -41t-17.5 -103q15 50 81 50q53 0 88 -40t33 -94t-40 -90t-91 -34t-86.5 37.5t-38.5 96.5q0 32 -1.5 67.5t6.5 71.5t21.5 64.5t43 46.5t71.5 18q39 -3 66 -18.5t46 -56.5zM98 402q0 -32 21.5 -54.5t52.5 -24.5q32 -2 53 19
t23 54q1 32 -19 54.5t-51 24.5q-32 2 -55 -19t-25 -54z"/>
            <glyph glyph-name="seven.numr" horiz-adv-x="318"
                   d="M39 665h270l-215 -392h-62l187 339h-180v53z"/>
            <glyph glyph-name="eight.numr" horiz-adv-x="344"
                   d="M120 570q0 -21 15 -37t38 -15q21 0 36 15.5t15 36.5q0 20 -14.5 33.5t-37.5 13.5q-22 0 -37 -13.5t-15 -33.5zM90 395q0 -31 23.5 -53t58.5 -22t58.5 22t23.5 53t-23.5 54t-58.5 23t-58.5 -23t-23.5 -54zM68 570q0 42 29.5 71t74.5 29t75 -29t30 -71q0 -44 -30 -69
q60 -37 60 -106q0 -53 -39 -90t-96 -37t-96 37t-39 90q0 68 60 106q-29 26 -29 69z"/>
            <glyph glyph-name="nine.numr" horiz-adv-x="338"
                   d="M41 342l47 20q23 -45 67 -45q42 0 67.5 41t17.5 103q-15 -50 -81 -50q-53 0 -88 40t-33 94t40 90t91 34t86.5 -37.5t38.5 -96.5q5 -39 0.5 -86t-14.5 -87.5t-42.5 -67.5t-84.5 -27q-81 2 -112 75zM240 537q0 32 -21.5 54.5t-52.5 24.5q-32 2 -53 -19t-23 -54
q-2 -32 18 -55t52 -24q32 -2 55 19t25 54z"/>
            <glyph glyph-name="zero.dnom" horiz-adv-x="364"
                   d="M91 195q0 -150 91 -150t91 150q0 151 -91 151t-91 -151zM42 195q0 45 6.5 79t21.5 62.5t43.5 43.5t68.5 15q78 0 109 -53t31 -147q0 -92 -31 -145t-109 -53q-140 0 -140 198z"/>
            <glyph glyph-name="one.dnom" horiz-adv-x="202"
                   d="M145 0h-53v325l-64 -23v51l117 43v-396z"/>
            <glyph glyph-name="two.dnom" horiz-adv-x="322"
                   d="M39 0v24l159 192q29 36 29 65t-20 46t-50 17q-28 0 -49 -17t-25 -45l-49 12q8 47 42 75t81 28q52 0 87.5 -32.5t35.5 -83.5t-43 -101q-22 -26 -36 -42.5t-32.5 -38.5t-38.5 -46h150v-53h-241z"/>
            <glyph glyph-name="three.dnom" horiz-adv-x="326"
                   d="M50 340q16 28 46.5 44t66.5 14q48 -4 78 -35t30 -74q-2 -51 -47 -78q30 -11 48 -41.5t15 -63.5q-4 -50 -46.5 -82.5t-97.5 -28.5q-38 3 -69.5 25t-46.5 56l44 25q21 -46 76 -53q33 -2 58.5 17t27.5 48q2 28 -21.5 49.5t-55.5 21.5h-44v51h44q22 0 37 13t18 33
q4 26 -11 43t-42 20q-44 4 -70 -35q-5 4 -18 14.5t-20 16.5z"/>
            <glyph glyph-name="four.dnom" horiz-adv-x="357"
                   d="M219 296l-113 -165h113v165zM329 81h-57v-81h-53v81h-204l217 311h40v-261h57v-50z"/>
            <glyph glyph-name="five.dnom" horiz-adv-x="341"
                   d="M30 83l43 31q11 -30 35 -48.5t52 -18.5q42 0 68.5 22.5t26.5 56.5t-24 52.5t-55 18.5q-30 0 -53 -7t-68 -29l-11 12l39 219h199v-51h-155l-20 -107q33 16 69 16q56 0 93.5 -32.5t37.5 -91.5t-41.5 -95.5t-105.5 -36.5q-41 0 -75 24.5t-55 64.5z"/>
            <glyph glyph-name="six.dnom" horiz-adv-x="338"
                   d="M297 324l-47 -20q-23 45 -67 45q-42 0 -67.5 -41t-17.5 -103q15 50 81 50q53 0 88 -40t33 -94t-40 -90t-91 -34t-86.5 37.5t-38.5 96.5q0 32 -1.5 67.5t6.5 71.5t21.5 64.5t43 46.5t71.5 18q39 -3 66 -18.5t46 -56.5zM98 129q0 -32 21.5 -54.5t52.5 -24.5q32 -2 53 19
t23 54q1 32 -19 54.5t-51 24.5q-32 2 -55 -19t-25 -54z"/>
            <glyph glyph-name="seven.dnom" horiz-adv-x="320"
                   d="M38 392h270l-215 -392h-62l187 339h-180v53z"/>
            <glyph glyph-name="eight.dnom" horiz-adv-x="344"
                   d="M120 297q0 -21 15 -37t38 -15q21 0 36 15.5t15 36.5q0 20 -14.5 33.5t-37.5 13.5q-22 0 -37 -13.5t-15 -33.5zM90 122q0 -31 23.5 -53t58.5 -22t58.5 22t23.5 53t-23.5 54t-58.5 23t-58.5 -23t-23.5 -54zM68 297q0 42 29.5 71t74.5 29t75 -29t30 -71q0 -44 -30 -69
q60 -37 60 -106q0 -53 -39 -90t-96 -37t-96 37t-39 90q0 68 60 106q-29 26 -29 69z"/>
            <glyph glyph-name="nine.dnom" horiz-adv-x="338"
                   d="M41 69l47 20q23 -45 67 -45q42 0 67.5 41t17.5 103q-15 -50 -81 -50q-53 0 -88 40t-33 94t40 90t91 34t86.5 -37.5t38.5 -96.5q5 -39 0.5 -86t-14.5 -87.5t-42.5 -67.5t-84.5 -27q-81 2 -112 75zM240 264q0 32 -21.5 54.5t-52.5 24.5q-32 2 -53 -19t-23 -54
q-2 -32 18 -55t52 -24q32 -2 55 19t25 54z"/>
            <glyph glyph-name="l.alt1" horiz-adv-x="269"
                   d="M278 63v-63h-40q-163 0 -163 199v521h67v-521q0 -29 2.5 -48.5t11.5 -42t29.5 -34t52.5 -11.5h40z"/>
            <glyph glyph-name="a.alt1" horiz-adv-x="540"
                   d="M218 55q46 0 99.5 23t79.5 65v40q-90 29 -156 29q-129 0 -129 -81q0 -34 27 -55t79 -21zM252 411q-36 0 -73.5 -16t-63.5 -44l-45 46q61 80 189 80q100 0 153 -49t53 -145v-283h-67v65q-30 -36 -82.5 -55.5t-99.5 -19.5q-79 0 -126 37.5t-47 103.5q0 63 48 103t150 40
q58 0 157 -31v40q0 59 -38.5 93.5t-107.5 34.5z"/>
            <glyph glyph-name="y.alt1" horiz-adv-x="508"
                   d="M195 -56l22 56l-194 467h71l159 -384l160 384h71l-227 -548q-35 -81 -76.5 -116t-111.5 -35q-25 0 -45 6v59q32 -5 43 -5q50 0 75.5 26.5t52.5 89.5z"/>
            <glyph glyph-name="lslash.alt1" horiz-adv-x="278"
                   d="M286 63v-63h-40q-163 0 -163 199v131l-69 -44v59l69 44v331h67v-288l84 54v-59l-84 -54v-174q0 -29 2.5 -48.5t11.5 -42t29.5 -34t52.5 -11.5h40z"/>
            <glyph glyph-name="lacute.alt1" horiz-adv-x="269"
                   d="M229 911l-84 -134h-68l70 134h82zM278 63v-63h-40q-163 0 -163 199v521h67v-521q0 -29 2.5 -48.5t11.5 -42t29.5 -34t52.5 -11.5h40z"/>
            <glyph glyph-name="lcommaaccent.alt1" horiz-adv-x="269"
                   d="M185 -247l-48 13q57 82 43 170h76q1 -122 -71 -183zM278 63v-63h-40q-163 0 -163 199v521h67v-521q0 -29 2.5 -48.5t11.5 -42t29.5 -34t52.5 -11.5h40z"/>
            <glyph glyph-name="lcaron.alt1" horiz-adv-x="269"
                   d="M236 484l-48 13q59 85 58 200h76q-6 -74 -30.5 -130.5t-55.5 -82.5zM278 63v-63h-40q-163 0 -163 199v521h67v-521q0 -29 2.5 -48.5t11.5 -42t29.5 -34t52.5 -11.5h40z"/>
            <glyph glyph-name="aacute.alt1" horiz-adv-x="540"
                   d="M384 689l-84 -134h-68l70 134h82zM218 55q46 0 99.5 23t79.5 65v40q-90 29 -156 29q-129 0 -129 -81q0 -34 27 -55t79 -21zM252 411q-36 0 -73.5 -16t-63.5 -44l-45 46q61 80 189 80q100 0 153 -49t53 -145v-283h-67v65q-30 -36 -82.5 -55.5t-99.5 -19.5q-79 0 -126 37.5
t-47 103.5q0 63 48 103t150 40q58 0 157 -31v40q0 59 -38.5 93.5t-107.5 34.5z"/>
            <glyph glyph-name="agrave.alt1" horiz-adv-x="540"
                   d="M236 555l-84 134h82l70 -134h-68zM218 55q46 0 99.5 23t79.5 65v40q-90 29 -156 29q-129 0 -129 -81q0 -34 27 -55t79 -21zM252 411q-36 0 -73.5 -16t-63.5 -44l-45 46q61 80 189 80q100 0 153 -49t53 -145v-283h-67v65q-30 -36 -82.5 -55.5t-99.5 -19.5q-79 0 -126 37.5
t-47 103.5q0 63 48 103t150 40q58 0 157 -31v40q0 59 -38.5 93.5t-107.5 34.5z"/>
            <glyph glyph-name="acircumflex.alt1" horiz-adv-x="540"
                   d="M333 555l-71 86l-70 -86h-68l95 134h87l95 -134h-68zM218 55q46 0 99.5 23t79.5 65v40q-90 29 -156 29q-129 0 -129 -81q0 -34 27 -55t79 -21zM252 411q-36 0 -73.5 -16t-63.5 -44l-45 46q61 80 189 80q100 0 153 -49t53 -145v-283h-67v65q-30 -36 -82.5 -55.5
t-99.5 -19.5q-79 0 -126 37.5t-47 103.5q0 63 48 103t150 40q58 0 157 -31v40q0 59 -38.5 93.5t-107.5 34.5z"/>
            <glyph glyph-name="adieresis.alt1" horiz-adv-x="540"
                   d="M121 641q0 21 15 34.5t36 13.5t36 -13.5t15 -34.5t-15 -34.5t-36 -13.5t-36 13.5t-15 34.5zM298 641q0 21 15 34.5t36 13.5t36 -13.5t15 -34.5t-15 -34.5t-36 -13.5t-36 13.5t-15 34.5zM218 55q46 0 99.5 23t79.5 65v40q-90 29 -156 29q-129 0 -129 -81q0 -34 27 -55
t79 -21zM252 411q-36 0 -73.5 -16t-63.5 -44l-45 46q61 80 189 80q100 0 153 -49t53 -145v-283h-67v65q-30 -36 -82.5 -55.5t-99.5 -19.5q-79 0 -126 37.5t-47 103.5q0 63 48 103t150 40q58 0 157 -31v40q0 59 -38.5 93.5t-107.5 34.5z"/>
            <glyph glyph-name="atilde.alt1" horiz-adv-x="539"
                   d="M225 626q-12 0 -22.5 -11.5t-11.5 -33.5h-51q3 57 27.5 82.5t57.5 25.5q24 0 51 -21t40 -21q12 0 22.5 10t11.5 32h51q-3 -56 -28 -80.5t-57 -24.5q-24 0 -51 21t-40 21zM217 55q46 0 99.5 23t79.5 65v40q-90 29 -156 29q-129 0 -129 -81q0 -34 27 -55t79 -21zM251 411
q-36 0 -73.5 -16t-63.5 -44l-45 46q61 80 189 80q100 0 153 -49t53 -145v-283h-67v65q-30 -36 -82.5 -55.5t-99.5 -19.5q-79 0 -126 37.5t-47 103.5q0 63 48 103t150 40q58 0 157 -31v40q0 59 -38.5 93.5t-107.5 34.5z"/>
            <glyph glyph-name="aring.alt1" horiz-adv-x="540"
                   d="M166 651q0 42 27.5 70t68.5 28q42 0 70 -28t28 -70q0 -41 -28 -68.5t-70 -27.5q-41 0 -68.5 27.5t-27.5 68.5zM218 652q0 -20 12.5 -32.5t32.5 -12.5q19 0 32 12.5t13 32.5q0 19 -13 32t-32 13q-20 0 -32.5 -13t-12.5 -32zM218 55q46 0 99.5 23t79.5 65v40
q-90 29 -156 29q-129 0 -129 -81q0 -34 27 -55t79 -21zM252 411q-36 0 -73.5 -16t-63.5 -44l-45 46q61 80 189 80q100 0 153 -49t53 -145v-283h-67v65q-30 -36 -82.5 -55.5t-99.5 -19.5q-79 0 -126 37.5t-47 103.5q0 63 48 103t150 40q58 0 157 -31v40q0 59 -38.5 93.5
t-107.5 34.5z"/>
            <glyph glyph-name="amacron.alt1" horiz-adv-x="539"
                   d="M142 669h238v-63h-238v63zM217 55q46 0 99.5 23t79.5 65v40q-90 29 -156 29q-129 0 -129 -81q0 -34 27 -55t79 -21zM251 411q-36 0 -73.5 -16t-63.5 -44l-45 46q61 80 189 80q100 0 153 -49t53 -145v-283h-67v65q-30 -36 -82.5 -55.5t-99.5 -19.5q-79 0 -126 37.5
t-47 103.5q0 63 48 103t150 40q58 0 157 -31v40q0 59 -38.5 93.5t-107.5 34.5z"/>
            <glyph glyph-name="abreve.alt1" horiz-adv-x="540"
                   d="M141 689h52q6 -31 24.5 -50t47.5 -19q34 0 51.5 20t20.5 49h52q0 -57 -33.5 -91t-90.5 -34q-62 0 -93 36t-31 89zM218 55q46 0 99.5 23t79.5 65v40q-90 29 -156 29q-129 0 -129 -81q0 -34 27 -55t79 -21zM252 411q-36 0 -73.5 -16t-63.5 -44l-45 46q61 80 189 80
q100 0 153 -49t53 -145v-283h-67v65q-30 -36 -82.5 -55.5t-99.5 -19.5q-79 0 -126 37.5t-47 103.5q0 63 48 103t150 40q58 0 157 -31v40q0 59 -38.5 93.5t-107.5 34.5z"/>
            <glyph glyph-name="aogonek.alt1" horiz-adv-x="539"
                   d="M251 411q-36 0 -73.5 -16t-63.5 -44l-45 46q61 80 189 80q100 0 153 -49t53 -145v-283h-23l-18 -89q-9 -45 25 -61q17 -7 34 1t25 25q4 7 4 19l53 4q0 -21 -9 -43q-17 -38 -52.5 -53.5t-73.5 0.5q-38 15 -51 51.5t-1 77.5l20 68v65q-30 -36 -82.5 -55.5t-99.5 -19.5
q-79 0 -126 37.5t-47 103.5q0 63 48 103t150 40q58 0 157 -31v40q0 59 -38.5 93.5t-107.5 34.5zM217 55q46 0 99.5 23t79.5 65v40q-90 29 -156 29q-129 0 -129 -81q0 -34 27 -55t79 -21z"/>
            <glyph glyph-name="yacute.alt1" horiz-adv-x="508"
                   d="M379 689l-84 -134h-68l70 134h82zM195 -56l22 56l-194 467h71l159 -384l160 384h71l-227 -548q-35 -81 -76.5 -116t-111.5 -35q-25 0 -45 6v59q32 -5 43 -5q50 0 75.5 26.5t52.5 89.5z"/>
            <glyph glyph-name="ydieresis.alt1" horiz-adv-x="508"
                   d="M121 641q0 21 15 34.5t36 13.5t36 -13.5t15 -34.5t-15 -34.5t-36 -13.5t-36 13.5t-15 34.5zM298 641q0 21 15 34.5t36 13.5t36 -13.5t15 -34.5t-15 -34.5t-36 -13.5t-36 13.5t-15 34.5zM195 -56l22 56l-194 467h71l159 -384l160 384h71l-227 -548q-35 -81 -76.5 -116
t-111.5 -35q-25 0 -45 6v59q32 -5 43 -5q50 0 75.5 26.5t52.5 89.5z"/>
            <glyph glyph-name="ae.alt1" horiz-adv-x="906"
                   d="M466 266h329q-10 67 -53 106t-108 39q-66 0 -112 -39.5t-56 -105.5zM218 55q46 0 99.5 23t79.5 65v40q-90 29 -156 29q-129 0 -129 -81q0 -34 27 -55t79 -21zM443 385q67 92 191 92q101 0 165 -66t64 -176q0 -22 -1 -31h-396q8 -67 55 -107.5t113 -40.5q100 0 146 81
q11 -3 34.5 -8t32.5 -7q-29 -63 -85 -97.5t-128 -34.5q-103 0 -169 68v-58h-67v65q-30 -36 -82.5 -55.5t-99.5 -19.5q-79 0 -126 37.5t-47 103.5q0 63 48 103t150 40q58 0 157 -31v40q0 59 -38.5 93.5t-107.5 34.5q-36 0 -73.5 -16t-63.5 -44l-45 46q61 80 189 80
q139 0 184 -92z"/>
            <glyph glyph-name="aeacute.alt1" horiz-adv-x="905"
                   d="M567 689l-84 -134h-68l70 134h82zM465 266h329q-10 67 -53 106t-108 39q-66 0 -112 -39.5t-56 -105.5zM217 55q46 0 99.5 23t79.5 65v40q-90 29 -156 29q-129 0 -129 -81q0 -34 27 -55t79 -21zM442 385q67 92 191 92q101 0 165 -66t64 -176q0 -22 -1 -31h-396
q8 -67 55 -107.5t113 -40.5q100 0 146 81q11 -3 34.5 -8t32.5 -7q-29 -63 -85 -97.5t-128 -34.5q-103 0 -169 68v-58h-67v65q-30 -36 -82.5 -55.5t-99.5 -19.5q-79 0 -126 37.5t-47 103.5q0 63 48 103t150 40q58 0 157 -31v40q0 59 -38.5 93.5t-107.5 34.5q-36 0 -73.5 -16
t-63.5 -44l-45 46q61 80 189 80q139 0 184 -92z"/>
            <glyph glyph-name="ycircumflex.alt1" horiz-adv-x="508"
                   d="M326 555l-71 86l-70 -86h-68l95 134h87l95 -134h-68zM195 -56l22 56l-194 467h71l159 -384l160 384h71l-227 -548q-35 -81 -76.5 -116t-111.5 -35q-25 0 -45 6v59q32 -5 43 -5q50 0 75.5 26.5t52.5 89.5z"/>
            <glyph glyph-name="ldot.alt1" horiz-adv-x="297"
                   d="M197 263q0 23 15.5 37.5t39.5 14.5t39.5 -14.5t15.5 -37.5t-15.5 -37.5t-39.5 -14.5t-39.5 14.5t-15.5 37.5zM278 63v-63h-40q-163 0 -163 199v521h67v-521q0 -29 2.5 -48.5t11.5 -42t29.5 -34t52.5 -11.5h40z"/>
            <glyph glyph-name="t.alt1" horiz-adv-x="329"
                   d="M299 63v-63h-20q-90 0 -126.5 41.5t-36.5 129.5v236h-84v60h84v125l67 19v-144h99v-60h-99v-236q0 -28 2.5 -44t11.5 -32.5t29 -24t53 -7.5h20z"/>
            <glyph glyph-name="tcaron.alt1" horiz-adv-x="329"
                   d="M265 524l-48 13q56 80 43 160h76q0 -117 -71 -173zM299 63v-63h-20q-90 0 -126.5 41.5t-36.5 129.5v236h-84v60h84v125l67 19v-144h99v-60h-99v-236q0 -28 2.5 -44t11.5 -32.5t29 -24t53 -7.5h20z"/>
            <glyph glyph-name="tbar.alt1" horiz-adv-x="331"
                   d="M301 63v-63h-20q-90 0 -126.5 41.5t-36.5 129.5v65h-73v46h73v125h-84v60h84v125l67 19v-144h99v-60h-99v-125h81v-46h-81v-65q0 -28 2.5 -44t11.5 -32.5t29 -24t53 -7.5h20z"/>
            <glyph glyph-name="tcommaaccent.alt1" horiz-adv-x="329"
                   d="M217 -247l-48 13q57 82 43 170h76q1 -122 -71 -183zM299 63v-63h-20q-90 0 -126.5 41.5t-36.5 129.5v236h-84v60h84v125l67 19v-144h99v-60h-99v-236q0 -28 2.5 -44t11.5 -32.5t29 -24t53 -7.5h20z"/>
            <glyph glyph-name="T.sc.alt1" horiz-adv-x="488"
                   d="M28 526v60h432v-60h-186v-526h-60v526h-186z"/>
            <glyph glyph-name="Tcaron.sc.alt1" horiz-adv-x="489"
                   d="M183 777l61 -73l60 73h60l-83 -117h-75l-83 117h60zM274 526v-526h-60v526h-186v60h433v-60h-187z"/>
            <glyph glyph-name="Tbar.sc.alt1" horiz-adv-x="488"
                   d="M274 526v-182h113v-41h-113v-303h-60v303h-111v41h111v182h-186v60h433v-60h-187z"/>
            <glyph glyph-name="Tcommaaccent.sc.alt1" horiz-adv-x="488"
                   d="M28 526v60h432v-60h-186v-526h-60v526h-186zM222 -210l-43 12q49 66 37 145h67q1 -104 -61 -157z"/>
            <glyph glyph-name="aringacute.alt1" horiz-adv-x="540"
                   d="M381 864l-77 -122q62 -25 62 -91q0 -41 -28 -68.5t-70 -27.5q-41 0 -68.5 27.5t-27.5 68.5q0 32 17.5 57t46.5 35l63 121h82zM224 652q0 -20 12.5 -32.5t32.5 -12.5q19 0 32 12.5t13 32.5q0 19 -13 32t-32 13q-20 0 -32.5 -13t-12.5 -32zM218 55q46 0 99.5 23t79.5 65v40
q-90 29 -156 29q-129 0 -129 -81q0 -34 27 -55t79 -21zM252 411q-36 0 -73.5 -16t-63.5 -44l-45 46q61 80 189 80q100 0 153 -49t53 -145v-283h-67v65q-30 -36 -82.5 -55.5t-99.5 -19.5q-79 0 -126 37.5t-47 103.5q0 63 48 103t150 40q58 0 157 -31v40q0 59 -38.5 93.5
t-107.5 34.5z"/>
            </font>
</defs>
</svg>
