<svg width="113" height="113" viewBox="0 0 113 113" fill="none" xmlns="http://www.w3.org/2000/svg">
<rect x="24" y="24" width="65" height="65" rx="32.5" fill="url(#paint0_angular_129_2759)" fill-opacity="0.25"/>
<g filter="url(#filter0_f_129_2759)">
<circle cx="56.5" cy="56.5" r="16.5" fill="#F2994A"/>
</g>
<circle cx="56.5" cy="56.5" r="37" stroke="url(#paint1_angular_129_2759)"/>
<path fill-rule="evenodd" clip-rule="evenodd" d="M44.7186 45.1399C43.5153 45.7415 43.1875 46.3703 43.1875 46.7396C43.1875 47.1089 43.5153 47.7377 44.7186 48.3393C45.8564 48.9082 47.5049 49.2917 49.3854 49.2917C51.266 49.2917 52.9144 48.9082 54.0523 48.3393C55.2555 47.7377 55.5833 47.1089 55.5833 46.7396C55.5833 46.3703 55.2555 45.7415 54.0523 45.1399C52.9144 44.5709 51.266 44.1875 49.3854 44.1875C47.5049 44.1875 45.8564 44.5709 44.7186 45.1399ZM43.7403 43.1833C45.2415 42.4327 47.2389 42 49.3854 42C51.5319 42 53.5293 42.4327 55.0305 43.1833C56.4663 43.9012 57.7708 45.0953 57.7708 46.7396C57.7708 48.3838 56.4663 49.578 55.0305 50.2959C53.5293 51.0465 51.5319 51.4792 49.3854 51.4792C47.2389 51.4792 45.2415 51.0465 43.7403 50.2959C42.3045 49.578 41 48.3838 41 46.7396C41 45.0953 42.3045 43.9012 43.7403 43.1833Z" fill="#F2994A"/>
<path fill-rule="evenodd" clip-rule="evenodd" d="M42.0937 45.6458C42.6978 45.6458 43.1875 46.1355 43.1875 46.7396H41C41 46.1355 41.4897 45.6458 42.0937 45.6458ZM57.7708 46.7396V51.8438C57.7708 53.488 56.4663 54.6821 55.0305 55.4C53.5293 56.1506 51.5319 56.5833 49.3854 56.5833C47.2389 56.5833 45.2415 56.1506 43.7403 55.4C42.3045 54.6821 41 53.488 41 51.8438V46.7396H43.1875V51.8438C43.1875 52.213 43.5153 52.8418 44.7186 53.4435C45.8564 54.0124 47.5049 54.3958 49.3854 54.3958C51.266 54.3958 52.9144 54.0124 54.0523 53.4435C55.2555 52.8418 55.5833 52.213 55.5833 51.8438V46.7396H57.7708ZM57.7708 46.7396C57.7708 46.1355 57.2811 45.6458 56.6771 45.6458C56.073 45.6458 55.5833 46.1355 55.5833 46.7396H57.7708Z" fill="#F2994A"/>
<path fill-rule="evenodd" clip-rule="evenodd" d="M42.0937 50.75C42.6978 50.75 43.1875 51.2397 43.1875 51.8438H41C41 51.2397 41.4897 50.75 42.0937 50.75ZM57.7708 51.8438V56.9479C57.7708 58.5922 56.4663 59.7863 55.0305 60.5042C53.5293 61.2548 51.5319 61.6875 49.3854 61.6875C47.2389 61.6875 45.2415 61.2548 43.7403 60.5042C42.3045 59.7863 41 58.5921 41 56.9479V51.8438H43.1875V56.9479C43.1875 57.3172 43.5153 57.946 44.7186 58.5476C45.8564 59.1165 47.5049 59.5 49.3854 59.5C51.266 59.5 52.9144 59.1165 54.0523 58.5476C55.2555 57.946 55.5833 57.3172 55.5833 56.9479V51.8438H57.7708ZM57.7708 51.8438C57.7708 51.2397 57.2811 50.75 56.6771 50.75C56.073 50.75 55.5833 51.2397 55.5833 51.8438H57.7708Z" fill="#F2994A"/>
<path fill-rule="evenodd" clip-rule="evenodd" d="M42.0937 55.8542C42.6978 55.8542 43.1875 56.3439 43.1875 56.9479H41C41 56.3439 41.4897 55.8542 42.0937 55.8542ZM57.7708 56.9479V62.0521C57.7708 63.6963 56.4663 64.8905 55.0305 65.6084C53.5293 66.359 51.5319 66.7917 49.3854 66.7917C47.2389 66.7917 45.2415 66.359 43.7403 65.6084C42.3045 64.8904 41 63.6963 41 62.0521V56.9479H43.1875V62.0521C43.1875 62.4214 43.5153 63.0502 44.7186 63.6518C45.8564 64.2207 47.5049 64.6042 49.3854 64.6042C51.266 64.6042 52.9144 64.2207 54.0523 63.6518C55.2555 63.0502 55.5833 62.4214 55.5833 62.0521V56.9479H57.7708ZM57.7708 56.9479C57.7708 56.3439 57.2811 55.8542 56.6771 55.8542C56.073 55.8542 55.5833 56.3439 55.5833 56.9479H57.7708Z" fill="#F2994A"/>
<path fill-rule="evenodd" clip-rule="evenodd" d="M42.0937 60.9583C42.6978 60.9583 43.1875 61.448 43.1875 62.0521H41C41 61.448 41.4897 60.9583 42.0937 60.9583ZM57.7708 62.0521V67.1563C57.7708 68.8005 56.4663 69.9946 55.0305 70.7125C53.5293 71.4631 51.5319 71.8958 49.3854 71.8958C47.2389 71.8958 45.2415 71.4631 43.7403 70.7125C42.3045 69.9946 41 68.8005 41 67.1563V62.0521H43.1875V67.1563C43.1875 67.5255 43.5153 68.1543 44.7186 68.756C45.8564 69.3249 47.5049 69.7083 49.3854 69.7083C51.266 69.7083 52.9144 69.3249 54.0523 68.756C55.2555 68.1543 55.5833 67.5255 55.5833 67.1563V62.0521H57.7708ZM57.7708 62.0521C57.7708 61.448 57.2811 60.9583 56.6771 60.9583C56.073 60.9583 55.5833 61.448 55.5833 62.0521H57.7708Z" fill="#F2994A"/>
<path fill-rule="evenodd" clip-rule="evenodd" d="M59.3019 55.3482C58.0986 55.9498 57.7708 56.5786 57.7708 56.9479C57.7708 57.3172 58.0986 57.946 59.3019 58.5476C60.4397 59.1166 62.0882 59.5 63.9687 59.5C65.8493 59.5 67.4978 59.1166 68.6356 58.5476C69.8389 57.946 70.1667 57.3172 70.1667 56.9479C70.1667 56.5786 69.8389 55.9498 68.6356 55.3482C67.4978 54.7793 65.8493 54.3958 63.9687 54.3958C62.0882 54.3958 60.4397 54.7793 59.3019 55.3482ZM58.3236 53.3916C59.8248 52.641 61.8222 52.2083 63.9687 52.2083C66.1153 52.2083 68.1127 52.641 69.6139 53.3916C71.0497 54.1095 72.3542 55.3037 72.3542 56.9479C72.3542 58.5922 71.0497 59.7863 69.6139 60.5042C68.1127 61.2548 66.1153 61.6875 63.9687 61.6875C61.8222 61.6875 59.8248 61.2548 58.3236 60.5042C56.8878 59.7863 55.5833 58.5922 55.5833 56.9479C55.5833 55.3037 56.8878 54.1095 58.3236 53.3916Z" fill="#F2994A"/>
<path fill-rule="evenodd" clip-rule="evenodd" d="M56.6771 55.8542C57.2811 55.8542 57.7708 56.3439 57.7708 56.9479H55.5833C55.5833 56.3439 56.073 55.8542 56.6771 55.8542ZM72.3542 56.9479V62.0521C72.3542 63.6963 71.0497 64.8905 69.6139 65.6084C68.1126 66.359 66.1153 66.7917 63.9687 66.7917C61.8222 66.7917 59.8249 66.359 58.3236 65.6084C56.8878 64.8905 55.5833 63.6963 55.5833 62.0521V56.9479H57.7708V62.0521C57.7708 62.4214 58.0986 63.0502 59.3019 63.6518C60.4398 64.2207 62.0882 64.6042 63.9687 64.6042C65.8493 64.6042 67.4977 64.2207 68.6356 63.6518C69.8389 63.0502 70.1667 62.4214 70.1667 62.0521V56.9479H72.3542ZM72.3542 56.9479C72.3542 56.3439 71.8645 55.8542 71.2604 55.8542C70.6564 55.8542 70.1667 56.3439 70.1667 56.9479H72.3542Z" fill="#F2994A"/>
<path fill-rule="evenodd" clip-rule="evenodd" d="M56.6771 60.9583C57.2811 60.9583 57.7708 61.448 57.7708 62.0521H55.5833C55.5833 61.448 56.073 60.9583 56.6771 60.9583ZM72.3542 62.0521V67.1563C72.3542 68.8005 71.0497 69.9946 69.6139 70.7125C68.1126 71.4631 66.1153 71.8958 63.9687 71.8958C61.8222 71.8958 59.8249 71.4631 58.3236 70.7125C56.8878 69.9946 55.5833 68.8005 55.5833 67.1563V62.0521H57.7708V67.1563C57.7708 67.5255 58.0986 68.1543 59.3019 68.756C60.4398 69.3249 62.0882 69.7083 63.9687 69.7083C65.8493 69.7083 67.4977 69.3249 68.6356 68.756C69.8389 68.1543 70.1667 67.5255 70.1667 67.1563V62.0521H72.3542ZM72.3542 62.0521C72.3542 61.448 71.8645 60.9583 71.2604 60.9583C70.6564 60.9583 70.1667 61.448 70.1667 62.0521H72.3542Z" fill="#F2994A"/>
<defs>
<filter id="filter0_f_129_2759" x="0" y="0" width="113" height="113" filterUnits="userSpaceOnUse" color-interpolation-filters="sRGB">
<feFlood flood-opacity="0" result="BackgroundImageFix"/>
<feBlend mode="normal" in="SourceGraphic" in2="BackgroundImageFix" result="shape"/>
<feGaussianBlur stdDeviation="20" result="effect1_foregroundBlur_129_2759"/>
</filter>
<radialGradient id="paint0_angular_129_2759" cx="0" cy="0" r="1" gradientUnits="userSpaceOnUse" gradientTransform="translate(69 43.5) rotate(134.193) scale(50.2096 65.9356)">
<stop stop-color="#0C0028"/>
<stop offset="0.853932" stop-color="#0099EF"/>
<stop offset="1" stop-color="#0099EF" stop-opacity="0"/>
</radialGradient>
<radialGradient id="paint1_angular_129_2759" cx="0" cy="0" r="1" gradientUnits="userSpaceOnUse" gradientTransform="translate(56.5 56.5) rotate(90) scale(37.5)">
<stop offset="0.114972" stop-color="#0C0028" stop-opacity="0"/>
<stop offset="0.577126" stop-color="#0099EF"/>
</radialGradient>
</defs>
</svg>
